<?xml version="1.0" encoding="utf-8"?>
<!-- Generator: Adobe Illustrator 24.1.2, SVG Export Plug-In . SVG Version: 6.00 Build 0)  -->
<svg version="1.1" id="Layer_1" xmlns="http://www.w3.org/2000/svg" xmlns:xlink="http://www.w3.org/1999/xlink" x="0px" y="0px"
	 viewBox="0 0 200.76 122.61" style="enable-background:new 0 0 200.76 122.61;" xml:space="preserve">
<style type="text/css">
	.st0{fill-rule:evenodd;clip-rule:evenodd;}
</style>
<g>
	<path class="st0" d="M18.39,83.05c-3.87-2.79-5.92-4.84-7.85-7.8c-2.79-4.32-4.32-9.56-4.32-14.74c0-14.96,12.06-27.08,27.03-27.08
		c14.91,0,27.03,12.12,27.03,27.03c0,6.15-2.11,12.29-5.8,16.84c-1.54,1.93-2.85,3.07-6.37,5.75V67.23h2.67v10.81
		c1.99-2.33,2.96-3.76,3.93-5.46c1.99-3.53,3.07-7.91,3.07-12.12c0-13.66-10.98-24.75-24.52-24.75c-13.6,0-24.52,11.1-24.52,24.92
		c0,6.31,2.22,11.89,6.94,17.41V67.23h2.73V83.05L18.39,83.05z M23.74,85.78c-0.51-0.11-1.71-0.68-2.67-1.2V67.23h2.67V85.78
		L23.74,85.78z M29.14,87.2c-0.97-0.17-1.02-0.17-1.36-0.28c-0.29-0.06-0.4-0.06-1.31-0.28V49.65h2.67V87.2L29.14,87.2z
		 M34.55,87.43c-0.4,0.06-0.51,0.06-1.08,0.06c-0.85,0-1.14,0-1.59-0.06V49.65h2.67V87.43L34.55,87.43z M39.95,86.58
		c-0.85,0.28-1.59,0.46-2.68,0.68V49.65h2.68V86.58L39.95,86.58z M40.01,47.66l-6.77-5.24l-6.77,5.24l-1.48-1.94l8.25-6.43
		l8.25,6.43L40.01,47.66L40.01,47.66z M45.42,84.58c-0.85,0.4-1.37,0.63-2.73,1.25V67.23h2.73V84.58L45.42,84.58z"/>
	<path class="st0" d="M75.23,44.81v-7.23c0.8-0.28,1.19-0.34,1.76-0.34c2.05,0,3.24,1.37,3.24,3.64c0,2.67-1.14,3.93-3.59,3.93
		H75.23L75.23,44.81z M73.92,36.16h-3.47v1.2l1.93,0.34v16.56l-1.93,0.34v1.14h3.3c0.57,0,1.31,0,2.28,0.06h1.76
		c1.88,0,2.9-0.11,3.76-0.46c1.88-0.74,3.07-2.56,3.07-4.72c0-2.79-1.59-4.67-4.55-5.29c2.33-1.14,3.41-2.56,3.41-4.55
		c0-2.9-2.16-4.78-5.4-4.78c-0.23,0-0.91,0.06-1.76,0.11L73.92,36.16L73.92,36.16z M75.23,46.18h1.25c3.3,0,4.84,1.31,4.84,4.1
		c0,2.67-1.65,4.32-4.33,4.32c-0.8,0-1.19-0.11-1.76-0.46V46.18L75.23,46.18z M92.53,41.51c-3.41,0-5.75,3.07-5.75,7.51
		c0,4.15,2.22,7,5.46,7c3.41,0,5.75-3.01,5.75-7.51C97.99,44.3,95.77,41.51,92.53,41.51L92.53,41.51z M92.42,42.88
		c1.59,0,2.5,1.88,2.5,5.29c0,4.27-0.91,6.43-2.62,6.43c-1.59,0-2.5-2.05-2.5-5.69C89.8,45.1,90.77,42.88,92.42,42.88L92.42,42.88z
		 M110.17,48.57c-0.06-4.72-1.59-7-4.78-7c-3.3,0-5.29,2.84-5.29,7.57c0,4.44,1.93,6.88,5.35,6.88c2.22,0,3.24-0.74,4.67-3.3
		l-1.25-0.51c-0.85,1.31-1.59,1.82-2.62,1.82c-2.05,0-3.01-1.59-3.3-5.46H110.17L110.17,48.57z M102.94,47.2
		c0.34-2.96,1.02-4.27,2.33-4.27c1.31,0,1.88,1.19,1.99,4.27H102.94L102.94,47.2z M77.05,84.81v-1.2l-1.65-0.34V66.72l1.71-0.34
		v-1.2h-6.54v1.25l1.82,0.28v16.61l-1.82,0.34v1.14H77.05L77.05,84.81z M91.85,84.81v-1.2l-1.48-0.34v-8.82c0-2.33-1.2-3.7-3.36-3.7
		c-1.25,0-2.05,0.34-3.76,1.65V70.7h-0.8l-3.53,0.91v1.14l1.65,0.23v10.36l-1.65,0.34v1.14h5.86v-1.2l-1.48-0.34V74
		c1.08-0.91,1.82-1.25,2.67-1.25c1.08,0,1.59,0.74,1.59,2.33v8.31l-1.48,0.28v1.14H91.85L91.85,84.81z M105.16,72.64v-1.65
		l-2.33,0.06h-0.51c-0.23,0.06-0.45,0.06-0.51,0.06c-0.28,0-0.68-0.06-1.25-0.23c-1.03-0.23-1.25-0.28-1.82-0.28
		c-2.67,0-4.72,2.05-4.72,4.72c0,1.76,0.63,2.84,2.33,3.93c-1.82,1.14-2.56,2.05-2.56,3.07c0,0.8,0.46,1.31,1.59,1.76
		c-1.65,1.08-2.22,1.82-2.22,2.96c0,1.76,1.99,2.9,5.06,2.9c4.1,0,6.77-1.93,6.77-4.95c0-2.11-1.25-3.13-3.93-3.24l-3.41-0.17
		c-0.85-0.06-1.19-0.23-1.19-0.57c0-0.34,0.4-0.8,1.08-1.25c0.51,0.17,0.97,0.23,1.54,0.23c2.73,0,4.78-1.93,4.78-4.55
		c0-1.08-0.23-1.77-1.02-2.79H105.16L105.16,72.64z M98.85,71.78c1.37,0,2.05,1.19,2.05,3.7c0,2.11-0.63,3.19-1.93,3.19
		c-1.37,0-1.94-1.08-1.94-3.47C97.02,72.86,97.59,71.78,98.85,71.78L98.85,71.78z M97.99,84.36c4.38,0.28,5.01,0.51,5.01,1.71
		c0,1.37-1.76,2.33-4.1,2.33c-1.88,0-3.01-0.74-3.01-1.99c0-0.85,0.28-1.42,1.02-2.11L97.99,84.36L97.99,84.36z"/>
	<path class="st0" d="M109.54,76.28c0.34-3.02,1.08-4.27,2.39-4.27c1.31,0,1.88,1.31,1.93,4.27H109.54L109.54,76.28z M124.62,55.74
		v-1.19l-1.48-0.28v-8.59c0-2.56-1.14-3.87-3.36-3.87c-1.2,0-2.11,0.4-3.7,1.65v-8.59h-0.8l-3.53,0.74v0.97l1.59,0.34v17.35
		l-1.71,0.34v1.14h5.8v-1.19l-1.37-0.28V45.1c1.14-0.97,1.76-1.25,2.62-1.25c1.19,0,1.65,0.74,1.65,2.79v7.68l-1.37,0.28v1.14
		H124.62L124.62,55.74z M130.82,41.68h-0.85l-3.41,0.91v0.91l1.65,0.28v10.47l-1.65,0.34v1.14h6.32v-1.19l-1.99-0.28V46.8
		c0-0.8,0.8-1.88,1.76-2.39l1.48,0.8c0.74-0.57,1.08-1.08,1.08-1.71c0-1.02-0.63-1.65-1.65-1.65c-1.02,0-1.59,0.51-2.73,2.45V41.68
		L130.82,41.68z M139.3,34.86c-1.03,0-1.82,0.8-1.82,1.82c0,1.02,0.8,1.82,1.82,1.82c1.02,0,1.82-0.8,1.82-1.82
		C141.12,35.65,140.33,34.86,139.3,34.86L139.3,34.86z M142.49,55.74v-1.19l-1.59-0.28V41.8h-0.68l-3.58,0.91v0.97l1.54,0.34v10.24
		l-1.54,0.34v1.14H142.49L142.49,55.74z M116.83,77.59c-0.11-1.88-0.17-2.79-0.4-3.53c-0.68-2.22-2.16-3.41-4.44-3.41
		c-3.3,0-5.29,2.79-5.29,7.51c0,4.38,1.93,6.94,5.35,6.94c2.22,0,3.41-0.85,4.72-3.3l-1.25-0.51c-0.85,1.31-1.59,1.82-2.67,1.82
		c-2.05,0-3.02-1.59-3.3-5.52H116.83L116.83,77.59z M124.39,84.81v-1.2l-1.54-0.34v-19.4h-0.74l-3.58,0.8v0.97l1.59,0.17v17.52
		l-1.65,0.34v1.14H124.39L124.39,84.81z M139.25,84.81v-1.2l-1.54-0.34v-8.76c0-2.33-1.2-3.64-3.3-3.64c-1.31,0-2.22,0.4-3.75,1.65
		v-8.65h-0.74l-3.58,0.8v0.97l1.59,0.28v17.41l-1.65,0.34v1.14h5.75v-1.2l-1.37-0.34v-9.1c1.14-0.97,1.82-1.31,2.62-1.31
		c1.19,0,1.65,0.74,1.65,2.79v7.74l-1.36,0.28v1.14H139.25L139.25,84.81z M151.19,77.59c-0.11-1.88-0.17-2.79-0.4-3.53
		c-0.68-2.22-2.16-3.41-4.44-3.41c-3.3,0-5.29,2.79-5.29,7.51c0,4.38,1.93,6.94,5.35,6.94c2.22,0,3.41-0.85,4.72-3.3l-1.25-0.51
		c-0.85,1.31-1.59,1.82-2.67,1.82c-2.05,0-3.02-1.59-3.3-5.52H151.19L151.19,77.59z M143.91,76.28c0.34-3.02,1.08-4.27,2.39-4.27
		c1.31,0,1.88,1.31,1.94,4.27H143.91L143.91,76.28z"/>
	<path class="st0" d="M164.34,42.71c1.37,0,2.05,1.2,2.05,3.7c0,2.11-0.63,3.19-1.93,3.19c-1.36,0-1.93-1.08-1.93-3.47
		C162.52,43.79,163.09,42.71,164.34,42.71L164.34,42.71z M157.4,55.74v-1.19l-1.48-0.34v-8.82c0-2.33-1.2-3.7-3.36-3.7
		c-1.25,0-2.05,0.34-3.75,1.65v-1.71h-0.8l-3.53,0.91v1.14l1.65,0.23v10.35l-1.65,0.34v1.14h5.86v-1.19l-1.48-0.34v-9.27
		c1.08-0.91,1.82-1.25,2.67-1.25c1.08,0,1.59,0.74,1.59,2.33v8.31l-1.48,0.28v1.14H157.4L157.4,55.74z M170.65,43.56v-1.65
		l-2.33,0.06h-0.51c-0.23,0.06-0.46,0.06-0.51,0.06c-0.28,0-0.68-0.06-1.25-0.23c-1.02-0.23-1.25-0.28-1.82-0.28
		c-2.67,0-4.72,2.05-4.72,4.72c0,1.76,0.63,2.85,2.33,3.93c-1.82,1.14-2.56,2.05-2.56,3.02c0,0.8,0.46,1.36,1.59,1.82
		c-1.59,1.02-2.22,1.82-2.22,2.96c0,1.76,1.99,2.9,5.06,2.9c4.1,0,6.77-1.93,6.77-4.95c0-2.11-1.25-3.13-3.93-3.24l-3.41-0.17
		c-0.85-0.06-1.19-0.23-1.19-0.63c0-0.28,0.4-0.74,1.08-1.19c0.51,0.17,0.97,0.23,1.54,0.23c2.73,0,4.78-1.93,4.78-4.55
		c0-1.08-0.23-1.76-1.02-2.79H170.65L170.65,43.56z M162.4,55.23c5.63,0.34,6.09,0.46,6.09,1.76c0,1.31-1.76,2.33-4.1,2.33
		c-1.88,0-3.02-0.74-3.02-1.99C161.38,56.48,161.66,55.91,162.4,55.23L162.4,55.23z M182.32,48.57c-0.06-4.72-1.59-7-4.78-7
		c-3.3,0-5.29,2.84-5.29,7.57c0,4.44,1.93,6.88,5.35,6.88c2.22,0,3.24-0.74,4.67-3.3l-1.25-0.51c-0.85,1.31-1.59,1.82-2.62,1.82
		c-2.05,0-3.02-1.59-3.3-5.46H182.32L182.32,48.57z M175.09,47.2c0.34-2.96,1.02-4.27,2.33-4.27c1.31,0,1.88,1.19,1.99,4.27H175.09
		L175.09,47.2z M188.92,41.68h-0.85l-3.41,0.91v0.91l1.65,0.28v10.47l-1.65,0.34v1.14h6.32v-1.19l-1.99-0.28V46.8
		c0-0.8,0.8-1.88,1.76-2.39l1.48,0.8c0.74-0.57,1.08-1.08,1.08-1.71c0-1.02-0.63-1.65-1.65-1.65c-1.03,0-1.59,0.51-2.73,2.45V41.68
		L188.92,41.68z M156.2,63.87c-1.08,0-1.93,0.85-1.93,1.88c0,1.02,0.8,1.82,1.82,1.82c1.02,0,1.88-0.85,1.88-1.88
		C157.97,64.73,157.17,63.87,156.2,63.87L156.2,63.87z M159.27,84.81v-1.2l-1.59-0.34v-12.4H157l-3.58,0.91v0.91l1.54,0.34v10.3
		l-1.54,0.34v1.14H159.27h22.3v-1.2l-1.59-0.34v-8.36c0-2.85-1.03-4.04-3.47-4.04c-1.48,0-2.45,0.51-3.93,1.88
		c-0.8-1.25-1.76-1.82-3.19-1.82c-1.37,0-2.45,0.45-3.87,1.65V70.7h-0.74l-3.58,0.91v0.97l1.65,0.28v10.47l-1.65,0.34v1.14h5.8v-1.2
		l-1.31-0.34v-9.16c0.97-0.97,1.65-1.31,2.56-1.31c1.25,0,1.82,0.8,1.82,2.56v7.97l-1.59,0.34v1.14h5.75v-1.2l-1.42-0.34v-9.1
		c1.14-1.02,1.77-1.37,2.67-1.37c1.19,0,1.71,0.74,1.71,2.62v7.91l-1.54,0.34v1.14h5.92H159.27L159.27,84.81z"/>
</g>
</svg>
