<?xml version="1.0" encoding="utf-8"?>
<!-- Generator: Adobe Illustrator 24.1.2, SVG Export Plug-In . SVG Version: 6.00 Build 0)  -->
<svg version="1.1" id="Layer_1" xmlns="http://www.w3.org/2000/svg" xmlns:xlink="http://www.w3.org/1999/xlink" x="0px" y="0px"
	 viewBox="0 0 174.99 113.15" style="enable-background:new 0 0 174.99 113.15;" xml:space="preserve">
<style type="text/css">
	.st0{fill-rule:evenodd;clip-rule:evenodd;}
</style>
<path class="st0" d="M165.64,39.26l-2.2,1.01c-0.91,0.38-1.77,0.7-2.57,0.97c-2.31,0.7-5.69,1.13-10.08,1.29H84.47
	c-1.34-3.49-3.43-6.38-6.27-8.69c-4.08-3.32-9.33-4.98-15.71-4.98c-7.18,0-13.94,1.6-20.27,4.87c-2.52,1.34-4.82,2.79-6.91,4.45
	c-1.77,1.45-3.22,2.9-4.24,4.29h-5.79c-3.32-0.16-6.16,0.27-8.47,1.29c-2.52,1.13-4.29,2.84-5.25,5.2L4.91,71.05
	c-0.54,2.09,0.05,3.27,1.77,3.54c0.48,0.05,1.02-0.06,1.66-0.33l2.41-1.23c1.56-0.64,2.69-1.07,3.44-1.29
	c1.44-0.42,3.11-0.64,4.98-0.69h3.92c0.37,1.34,0.96,2.68,1.82,4.07c1.07,1.72,2.36,3.27,3.91,4.61c4.08,3.54,9.33,5.31,15.71,5.31
	c7.13,0,13.88-1.55,20.16-4.72c4.77-2.41,8.95-5.47,12.54-9.27h71.31c2.19,0,4.45-0.54,6.64-1.61c2.95-1.45,4.83-3.43,5.74-6.06
	l8.1-22.84C168.96,38.67,167.84,38.24,165.64,39.26z M37.72,39.52c1.77-1.34,3.75-2.57,5.85-3.64c5.89-3,12.22-4.5,18.92-4.5
	c5.74,0,10.45,1.44,14.1,4.39c2.2,1.82,3.91,4.08,5.04,6.7H69.57c-1.29,0-2.26,0.11-2.9,0.27c-1.02,0.32-1.98,1.02-2.89,2.09
	l-10.62,12.6l-0.21-4.93l-0.27-6.49c-0.11-1.45-0.59-2.46-1.5-3c-0.7-0.38-1.77-0.54-3.22-0.54H34.5
	C35.31,41.56,36.38,40.6,37.72,39.52z M20.19,68.37c-1.66,0.05-3.32,0.21-4.93,0.48c-1.5,0.27-2.74,0.64-3.65,1.02l-2.2,1.02
	c-0.59,0.26-1.01,0.21-1.23-0.11c-0.11-0.16,0-0.97,0.38-2.31l5.36-18.12c0.8-1.98,2.25-3.43,4.34-4.34
	c1.93-0.8,4.24-1.12,6.97-1.02l12.81-0.05c1.99,0,2.58,0.8,1.77,2.47l-8.52,17.47c-0.48,1.07-1.02,1.88-1.61,2.42
	c-0.75,0.69-1.61,1.07-2.63,1.07H20.19z M73.05,71.42l-1.5,1.34c-1.72,1.45-3.59,2.74-5.68,3.92c-6.6,3.75-13.67,5.63-21.29,5.63
	c-4.55,0-8.52-1.08-11.9-3.17c-3.27-2.03-5.57-4.77-6.81-8.25h12.87c-2.09-1.34-2.57-3.11-1.45-5.36l6.7-12.92l1.93,18.28
	c0.06,0.48,0.27,0.75,0.65,0.8c0.37,0.05,0.85-0.21,1.34-0.8l15.6-18.45l-2.15,12.01c-0.26,1.45-0.69,2.58-1.39,3.49
	c-0.7,1.02-1.93,1.98-3.59,2.95h17.21L73.05,71.42z M165.16,43.49l-7.51,19.52c-0.75,1.87-2.36,3.27-4.82,4.23
	c-1.99,0.75-4.13,1.13-6.49,1.13l-70.18,0.05l-2.73-0.05c-0.81-0.06-1.4-0.22-1.77-0.38c-0.43-0.27-0.7-0.59-0.86-1.02
	c-0.16-0.48-0.16-1.12-0.05-1.93l2.3-17.15c0.32-1.24,0.75-2.04,1.34-2.47c0.54-0.37,1.4-0.59,2.57-0.59l75.65-0.05l5.25-0.43
	c1.77-0.27,3.11-0.59,3.92-0.97l2.25-0.91h1.23C165.37,42.63,165.32,42.96,165.16,43.49z"/>
<path class="st0" d="M96.69,63.86c-0.16-0.16-0.21-0.37-0.16-0.64l4.83-14.96l-6.86,2.09l-0.06,0.22c1.07,0.48,1.45,1.23,1.07,2.3
	l-3.32,10.4c-0.11,0.22-0.32,0.43-0.59,0.65c-0.21,0.16-0.59,0.32-1.18,0.53l-0.96,0.38h8.36l-0.54-0.43L96.69,63.86z"/>
<path class="st0" d="M91.44,56.25c-0.27-0.8-0.7-1.45-1.29-1.98c-1.12-0.97-2.68-1.45-4.55-1.45c-2.09,0.05-4.08,0.59-5.95,1.72
	c-2.04,1.23-3.33,2.73-3.92,4.5c-0.59,1.88-0.32,3.38,0.81,4.5c1.07,1.07,2.68,1.61,4.82,1.61c2.2-0.05,4.24-0.64,6.11-1.77
	c1.99-1.23,3.27-2.79,3.86-4.66C91.6,57.86,91.65,57.06,91.44,56.25z M86.56,59.36c-1.07,3.27-2.52,4.88-4.4,4.88
	c-1.23,0-1.92-0.75-2.09-2.25c-0.1-1.07,0.06-2.31,0.54-3.65c0.38-1.18,0.86-2.14,1.45-2.95c0.86-1.12,1.82-1.66,2.95-1.71
	c0.59,0,1.02,0.21,1.28,0.64c0.27,0.27,0.43,0.7,0.54,1.29C87.1,56.63,87.04,57.91,86.56,59.36z"/>
<path class="st0" d="M142.32,56.36c-0.22-0.75-0.65-1.4-1.29-1.93c-1.13-1.02-2.68-1.5-4.56-1.45c-2.09,0-4.07,0.59-5.95,1.72
	c-1.98,1.18-3.27,2.68-3.86,4.5c-0.59,1.88-0.37,3.38,0.75,4.5c1.13,1.08,2.74,1.61,4.88,1.56c2.2,0,4.18-0.59,6.06-1.72
	c1.98-1.23,3.32-2.79,3.91-4.66C142.53,58.02,142.59,57.16,142.32,56.36z M137.44,59.52c-1.02,3.22-2.47,4.83-4.34,4.88
	c-1.29,0-1.99-0.75-2.09-2.25c-0.11-1.07,0.05-2.31,0.53-3.7c0.38-1.18,0.86-2.15,1.45-2.95c0.86-1.13,1.82-1.66,2.95-1.66
	c0.91,0,1.55,0.64,1.82,1.93C138.03,56.79,137.92,58.07,137.44,59.52z"/>
<path class="st0" d="M105.27,63.81c-0.16-0.16-0.16-0.37-0.11-0.64l3.33-10.3l-6.86,3.22l-0.06,0.16c0.86,0.38,1.13,0.97,0.86,1.82
	l-1.61,5.15c-0.11,0.32-0.59,0.7-1.45,1.18l-0.85,0.43h7.98l-0.53-0.48C105.59,64.08,105.38,63.92,105.27,63.81z"/>
<path class="st0" d="M109.4,48.53c-0.38-0.27-0.86-0.43-1.5-0.43c-0.64,0-1.29,0.16-1.88,0.43c-0.64,0.38-1.07,0.81-1.28,1.29
	c-0.22,0.53-0.17,0.96,0.21,1.28c0.32,0.33,0.8,0.49,1.5,0.49c0.7-0.06,1.34-0.22,1.93-0.54c0.64-0.32,1.07-0.75,1.29-1.29
	C109.83,49.28,109.78,48.85,109.4,48.53z"/>
<path class="st0" d="M124.95,57.59c0.32-0.91,0.48-1.55,0.48-1.93c0.05-0.59-0.11-1.12-0.48-1.55c-0.75-0.75-1.77-1.13-3-1.13
	c-1.13,0-2.36,0.32-3.65,0.97l-1.18,0.69c-0.38,0.22-0.59,0.32-0.7,0.32l0.11-1.76l-6,2.78l-0.06,0.22
	c0.86,0.37,1.13,0.96,0.86,1.77l-1.66,5.14c-0.06,0.27-0.22,0.49-0.48,0.65l-0.97,0.59l-0.86,0.48h8.2l-0.8-0.54l-0.59-0.53
	c-0.16-0.22-0.16-0.43-0.11-0.65l2.09-6.54c0.17-0.37,0.49-0.69,0.92-0.96c0.8-0.59,1.6-0.86,2.41-0.86c0.64,0,1.07,0.38,1.29,1.07
	c0.05,0.27,0.05,0.7-0.06,1.18l-0.37,1.29l-1.56,4.82l-0.48,0.59l-1.66,1.13h7.5l-0.59-0.64c-0.21-0.22-0.32-0.38-0.37-0.54
	c-0.06-0.16-0.06-0.38,0-0.64L124.95,57.59z"/>
<path class="st0" d="M151.7,56.84l-1.45-0.43c-1.28-0.37-1.82-0.86-1.61-1.45c0.16-0.48,0.54-0.8,1.13-1.07
	c0.48-0.21,1.07-0.32,1.66-0.32c1.13,0,2.09,0.64,3,1.88h0.11l1.29-1.99c-0.11-0.21-0.43-0.37-0.91-0.48l-3.43-0.27
	c-1.45,0-2.85,0.32-4.19,1.02c-1.5,0.75-2.46,1.72-2.89,2.9c-0.32,1.07,0.11,1.98,1.23,2.68c0.59,0.37,1.72,0.75,3.27,1.23
	c0.64,0.21,1.13,0.43,1.4,0.64c0.42,0.33,0.53,0.75,0.37,1.29c-0.16,0.48-0.64,0.91-1.39,1.23c-0.65,0.27-1.29,0.38-1.99,0.43
	c-2.52,0-3.7-1.07-3.64-3.16h-0.11l-1.66,2.57c0.11,0.27,0.37,0.54,0.75,0.75c0.86,0.49,2.14,0.75,3.81,0.7
	c1.98,0,3.59-0.38,4.93-1.07c1.71-0.91,2.79-2.04,3.27-3.43c0.32-1.02,0.16-1.83-0.48-2.42C153.68,57.59,152.83,57.22,151.7,56.84z"
	/>
</svg>
