<?xml version="1.0" encoding="utf-8"?>
<!-- Generator: Adobe Illustrator 24.1.2, SVG Export Plug-In . SVG Version: 6.00 Build 0)  -->
<svg version="1.1" id="Layer_1" xmlns="http://www.w3.org/2000/svg" xmlns:xlink="http://www.w3.org/1999/xlink" x="0px" y="0px"
	 viewBox="0 0 156.48 96.15" style="enable-background:new 0 0 156.48 96.15;" xml:space="preserve">
<style type="text/css">
	.st0{fill-rule:evenodd;clip-rule:evenodd;}
</style>
<g>
	<path class="st0" d="M52.66,27.97c2.28,0,8.58,0.3,4.52,12.24c-4.27,12.52-13.72,9.95-13.72,9.95l6.95-22.19H52.66z M69.57,41.01
		C74.9,27.86,64.94,24.3,58.44,24.3l-21.5,0.02c1.79,1.22,1.49,2.86,1.14,3.85L25.56,68.21c-0.5,1.58-2.38,3.25-3.37,3.51h17.4
		c-0.96-0.17-2.32-1.54-1.83-3.4l4.55-14.48C42.31,53.84,63.25,56.67,69.57,41.01"/>
	<path class="st0" d="M76.62,65.57c-0.69,0.42-3.41,1.8-5.96,2.04c-2.36,0.22-6.29-0.7-6.29-5.42c0-4.05,4.4-6.99,6.77-8.04
		C72.14,58.09,74.31,62.5,76.62,65.57 M83.48,40.06c-0.6,3.81-5.54,7.67-6.74,8.19c-0.21-2.14-0.12-5.53,1.68-8.3
		c1.18-1.84,2.75-2.64,4.03-2.2C83.46,38.11,83.59,39.05,83.48,40.06 M83.5,71.72h11.69c-3.75-1.22-9.28-4.74-11.49-7.27
		c1.79-1.95,3.99-4.39,4.39-9.38h-6.08c0,0,1.18,0.67,1.18,2.1c0,1.32-0.53,3.13-1.55,4.43c-1.78-2.63-3.69-5.64-4.34-10.06
		c2.37-1.19,5.72-2.47,8.39-4.8c2.51-2.22,3.09-4.29,3.14-5.66v-0.17c0-1.42-0.56-2.75-1.59-3.77c-1.75-1.76-4.53-2.46-7.43-1.92
		c-2.35,0.44-4.34,1.69-5.33,2.61c-3.55,3.3-4,8.78-4,11.25c0,0.59,0.02,1.06,0.05,1.32c-0.2,0.07-0.56,0.22-0.56,0.22
		c-2.58,0.94-9.48,2.79-11.95,8.46c-0.31,0.72-0.76,2.26-0.76,4.08c0,1.55,0.34,3.29,1.33,4.88c1.74,2.71,4.7,4.43,9.41,4.34
		c5.14-0.09,10.18-3.58,11.09-4.22C79.99,68.99,82.29,71.15,83.5,71.72"/>
	<path class="st0" d="M119.07,28.02c6.96-1.67,12.69,3.78,13.23,4.15l1.99-6.32c-2.77-0.82-22.73-7.58-36.83,8.54
		c-8.68,9.9-10.81,30.21,0.2,35.65c11.78,5.82,24.79-0.9,25.73-1.37l5.4-17.13c0.57-2.07,1.89-3.42,4.2-4.28h-18.7
		c2.74,1.15,2.54,3.2,2.31,4.04l-5.37,17.13c-0.71,0.15-15.74,3.88-7.32-22.41C105.72,40.37,110.8,30.01,119.07,28.02"/>
</g>
</svg>
