<?xml version="1.0" encoding="utf-8"?>
<!-- Generator: Adobe Illustrator 24.1.2, SVG Export Plug-In . SVG Version: 6.00 Build 0)  -->
<svg version="1.1" id="Layer_1" xmlns="http://www.w3.org/2000/svg" xmlns:xlink="http://www.w3.org/1999/xlink" x="0px" y="0px"
	 viewBox="0 0 1087.6 641.2" style="enable-background:new 0 0 1087.6 641.2;" xml:space="preserve">
<style type="text/css">
	.st0{fill:#0B8E55;}
	.st1{fill:#2D3488;}
</style>
<g>
	<g>
		<path class="st0" d="M708.4,316.9c-26.5,56.7-84.1,96.1-150.7,96.1c-57.7,0-108.6-29.6-138.5-74.3c-14.4-21.6-23.8-46.7-26.8-73.7
			c-2.5-1.4-5-2.9-7.6-4.5c-4.4-2.8-8.8-5.8-13.3-8.8c0.7,26.2,6.8,51,17.2,73.5c29.6,63.7,94.2,107.9,168.9,107.9
			c74.4,0,138.7-43.9,168.5-107.1c7.9-16.8,13.4-34.9,16-54c-6.5-2.8-12.6-6-19-9.9C721.5,281.4,716.3,299.9,708.4,316.9z
			 M408.2,174.1c27-55.4,83.9-93.6,149.5-93.6c51.6,0,97.7,23.6,128.2,60.6c19.5,23.6,32.6,52.6,36.6,84.4c8.2,4.1,15.1,7.3,21,9.9
			c-1.5-25.4-8.2-49.4-18.9-71.1l0,0c-30.5-61.4-93.8-103.8-166.9-103.8c-73.4,0-137.1,42.7-167.4,104.6
			c-8.2,16.7-13.9,34.7-16.8,53.7c7.1,3.6,13.3,6.8,18.9,9.5C394.7,209,400.1,190.8,408.2,174.1z"/>
	</g>
</g>
<path class="st1" d="M546.4,205c-9.6,10.3-30.7,30-63.3,37.9c-7.3,1.8-21.3,4.4-39,3c-11.3-0.9-22.1-3.4-51.5-17.6
	c-5.6-2.7-11.9-5.8-18.9-9.5c-9.6-4.9-20.6-10.7-33.4-17.6c-21.9-11.8-29.7-16.3-44-19.3c-21.5-4.6-40.5-1.9-53.4,1.1
	c11.9-13.7,22.9-23.8,31.1-30.7c16.6-13.9,23.8-16.6,28.4-17.8c6.7-1.8,15.5-2.6,29.3,0.5c24.3,5.5,38.5,17.4,53.4,26.8
	c1.8,1.2,3.6,2.3,5.4,3.3c5.9,3.5,11.7,6.3,17.9,8.9c12.2,5.2,26,9.4,45.7,15.4C475.2,196,506.5,203.3,546.4,205z"/>
<path class="st1" d="M546.4,303.5c-9.6,10.3-30.7,30-63.3,37.9c-7.3,1.8-21.3,4.5-39,3c-7-0.6-13.8-1.7-24.8-5.8
	c-7.6-2.8-17.3-7.1-30.5-13.6c-12.6-6.2-28.3-14.4-48.6-25.2c-21.9-11.8-29.7-16.3-44-19.3c-21.5-4.5-40.5-1.9-53.4,1.1
	c11.9-13.7,22.9-23.8,31.1-30.7c16.6-13.9,23.8-16.6,28.4-17.8c6.7-1.8,15.5-2.6,29.3,0.4c17.1,3.8,29.2,10.9,40,18
	c4.6,3,8.9,6,13.3,8.8c2.6,1.6,5.1,3.1,7.6,4.5c16.9,9.5,33,14.4,61.4,23.1C475.2,294.5,506.5,301.8,546.4,303.5z"/>
<path class="st1" d="M882.1,205c-9.5,10.3-30.6,30-63.3,37.9c-7.3,1.8-21.3,4.4-39,3c-9.1-0.8-17.9-2.5-36.2-10.5
	c-5.9-2.6-12.8-5.8-21-9.9c-12.2-6.1-27.4-14-46.6-24.3c-21.9-11.8-29.7-16.3-44-19.3c-21.5-4.6-40.5-1.9-53.4,1.1
	c11.9-13.7,22.9-23.8,31.1-30.7c16.6-13.9,23.8-16.6,28.4-17.8c6.7-1.8,15.5-2.6,29.3,0.5c7,1.6,13.1,3.7,18.6,6.1
	c13.8,6,24.1,14,34.7,20.8c1.4,0.9,2.7,1.7,4,2.5l0,0c18.3,10.9,34.5,15.9,65,25.2C810.9,196,842.2,203.3,882.1,205z"/>
<path class="st1" d="M882.1,303.5c-9.5,10.3-30.6,30-63.3,37.9c-7.3,1.8-21.3,4.5-39,3c-11.6-0.9-22.6-3.5-53.5-18.6
	c-5.3-2.6-11.3-5.6-17.9-9c-9.3-4.8-20.1-10.4-32.4-17.1c-21.9-11.8-29.7-16.3-44-19.3c-21.5-4.5-40.5-1.9-53.4,1.1
	c11.9-13.7,22.9-23.8,31.1-30.7c16.6-13.9,23.8-16.6,28.4-17.8c6.7-1.8,15.5-2.6,29.3,0.4c24.3,5.5,38.5,17.4,53.4,26.8
	c0.9,0.6,1.7,1.1,2.6,1.6c6.4,3.9,12.5,7.1,19,9.9c12.7,5.5,26.8,9.8,47.4,16.1C810.9,294.5,842.2,301.8,882.1,303.5z"/>
<g>
	<g>
		<path class="st1" d="M93,503.7h20.5l19.3,72.9h-17.9l-7.2-35.4c-1.4-7-3.3-15.7-4.6-23.1h-0.4c-1.4,7.4-3.1,16.1-4.4,23.1
			L91,576.6H73.7L93,503.7z M87.6,546.2h31.1v14.9H87.6V546.2z"/>
		<path class="st1" d="M137.1,585.8c0-4.6,2.6-8.1,7.5-10.8v-0.4c-2.8-2-4.9-4.9-4.9-9.6c0-3.8,2.5-7.9,5.9-10.5V554
			c-3.7-2.7-6.7-7.9-6.7-14.4c0-13.9,10.3-20.4,21.8-20.4c3,0,5.9,0.4,8.4,1.3H189v13.9h-8.9c0.7,1.3,1.4,3.6,1.4,5.8
			c0,13.2-9.1,18.6-20.8,18.6c-1.8,0-3.8-0.2-6.2-0.8c-1.2,1-1.6,1.7-1.6,3.3c0,2.5,2.2,3.4,7.7,3.4h8.4c13,0,20.5,4.3,20.5,14.6
			c0,12.1-11.7,20.4-30.1,20.4C147.1,599.7,137.1,595.9,137.1,585.8z M173.4,582.7c0-2.9-2.8-3.4-7.7-3.4h-4.9
			c-3.8,0-5.8-0.2-7.5-0.7c-1.7,1.3-2.5,2.5-2.5,4c0,3.6,4.5,5.2,11.1,5.2S173.4,585.8,173.4,582.7z M166.7,539.6
			c0-5.2-2.8-7.6-6-7.6c-3.3,0-5.9,2.5-5.9,7.6c0,5.4,2.7,7.9,5.9,7.9S166.7,545,166.7,539.6z"/>
		<path class="st1" d="M197.4,555.1v-34.5h16.9v32.1c0,6.3,1.2,9,5.6,9c2.9,0,4.8-0.9,7.4-4.9v-36.1h16.9v56.1h-13.8l-1.2-7.4h-0.4
			c-4.1,5.4-9.1,8.7-16,8.7C201.9,578,197.4,569,197.4,555.1z"/>
		<path class="st1" d="M256.3,560.7c0-12.6,8.7-19.1,31.1-20.4c-0.6-4-3.9-5.8-9.5-5.8c-4.1,0-8.3,1.6-14.2,4.7l-5.9-12.6
			c7.5-4.7,15.2-7.4,23.4-7.4c14,0,23.1,7.9,23.1,26.2v31.2h-13.8l-1.2-5.8H289c-4.8,4-10.6,7.2-16.7,7.2
			C262,578,256.3,569.9,256.3,560.7z M287.4,558.9v-7.2c-12,0.4-15,3.6-15,7.4c0,2.6,1.8,4,5.3,4
			C281.7,563.2,284.8,561.1,287.4,558.9z"/>
		<path class="st1" d="M314.6,569.4l7.1-11.9c6.2,4.1,13,6.3,19.3,6.3c4.3,0,6.1-1.3,6.1-3.4c0-2.7-2.6-3.1-10.8-5.2
			c-13.6-3.4-18.5-9.2-18.5-17.9c0-11,9.2-18.2,23.4-18.2c9.3,0,16.6,4.1,21.9,7.9l-7.5,11.4c-5.1-3.4-10.8-5.2-16-5.2
			c-3.2,0-5.1,1.1-5.1,3.1c0,2.5,2.6,2.7,10.2,4.7c14.8,3.8,19.1,8.9,19.1,18.2c0,10.5-8.8,18.6-25.2,18.6
			C330.2,578,320.9,574.2,314.6,569.4z"/>
		<path class="st1" d="M447.6,503.7h20.5l19.3,72.9h-17.9l-7.2-35.4c-1.4-7-3.3-15.7-4.6-23.1h-0.4c-1.4,7.4-3.1,16.1-4.4,23.1
			l-7.2,35.4h-17.3L447.6,503.7z M442.2,546.2h31.1v14.9h-31.1V546.2z"/>
		<path class="st1" d="M497.6,520.5h13.9l1.3,11.9h0.4c4.7-9.2,11.8-13.2,19.2-13.2c4.5,0,6.6,0.9,9.4,2.2l-3.3,16.1
			c-3-1-5-1.6-8.6-1.6c-5.6,0-11.6,3.4-15.3,12.8v27.8h-16.9v-56H497.6z"/>
		<path class="st1" d="M550.8,585.8c0-4.6,2.6-8.1,7.5-10.8v-0.4c-2.8-2-4.9-4.9-4.9-9.6c0-3.8,2.5-7.9,5.9-10.5V554
			c-3.7-2.7-6.7-7.9-6.7-14.4c0-13.9,10.3-20.4,21.8-20.4c3,0,5.9,0.4,8.4,1.3h19.9v13.9h-8.9c0.7,1.3,1.4,3.6,1.4,5.8
			c0,13.2-9.1,18.6-20.8,18.6c-1.8,0-3.8-0.2-6.2-0.8c-1.2,1-1.6,1.7-1.6,3.3c0,2.5,2.2,3.4,7.7,3.4h8.4c13,0,20.5,4.3,20.5,14.6
			c0,12.1-11.7,20.4-30.1,20.4C560.8,599.7,550.8,595.9,550.8,585.8z M587.1,582.7c0-2.9-2.8-3.4-7.7-3.4h-4.9
			c-3.8,0-5.8-0.2-7.5-0.7c-1.7,1.3-2.5,2.5-2.5,4c0,3.6,4.5,5.2,11.1,5.2S587.1,585.8,587.1,582.7z M580.4,539.6
			c0-5.2-2.8-7.6-6-7.6s-5.9,2.5-5.9,7.6c0,5.4,2.7,7.9,5.9,7.9S580.4,545,580.4,539.6z"/>
		<path class="st1" d="M610.5,548.6c0-18.4,12.6-29.4,25.8-29.4c15.6,0,23.4,12.1,23.4,27.1c0,3.4-0.5,6.7-0.7,8.1h-35.8v-12.6h24
			l-2.4,3.4c0-7.4-2.6-11.4-8.1-11.4c-6.5,0-10,4.7-10,14.8c0,10.5,4.5,14.8,13.6,14.8c3.9,0,7.5-1.1,11.8-3.4l5.5,11.4
			c-5.9,4.3-13.6,6.5-19.7,6.5C622.5,578,610.5,567.2,610.5,548.6z"/>
		<path class="st1" d="M671,520.5h13.8l1.2,6.7h0.4c3.9-4.3,9.3-8.1,16.5-8.1c10.9,0,15.7,9,15.7,22.9v34.5h-16.9v-32.1
			c0-6.3-1.4-9-5.7-9c-3.2,0-5.3,1.6-7.9,4.3v36.8H671V520.5z"/>
		<path class="st1" d="M739.7,552.8v-17.3h-11.8v-14.4l12.6-0.7l2.2-16.8h14v16.8h19.5v15h-19.5v16.9c0,8,3.3,10.4,9.6,10.4
			c3.3,0,6.3-0.8,9-1.8l3,13.9c-4.3,1.3-9.7,2.9-16.4,2.9C745.6,578,739.7,567.9,739.7,552.8z"/>
		<path class="st1" d="M808.9,535.6h-18.7v-15h35.7v56.1H809L808.9,535.6L808.9,535.6z M805.9,501.7c0-6.7,4.5-11.4,10.8-11.4
			s10.8,4.7,10.8,11.4c0,6.7-4.5,11.2-10.8,11.2S805.9,508.4,805.9,501.7z"/>
		<path class="st1" d="M848.3,520.5h13.8l1.2,6.7h0.4c3.9-4.3,9.3-8.1,16.5-8.1c10.9,0,15.7,9,15.7,22.9v34.5H879v-32.1
			c0-6.3-1.4-9-5.7-9c-3.2,0-5.3,1.6-7.9,4.3v36.8h-16.9v-56H848.3z"/>
		<path class="st1" d="M906.4,560.7c0-12.6,8.7-19.1,31.1-20.4c-0.6-4-3.9-5.8-9.5-5.8c-4.1,0-8.3,1.6-14.2,4.7l-5.9-12.6
			c7.5-4.7,15.2-7.4,23.4-7.4c14,0,23.1,7.9,23.1,26.2v31.2h-13.8l-1.2-5.8H939c-4.8,4-10.6,7.2-16.7,7.2
			C912.1,578,906.4,569.9,906.4,560.7z M937.5,558.9v-7.2c-12,0.4-15,3.6-15,7.4c0,2.6,1.8,4,5.3,4
			C931.8,563.2,934.9,561.1,937.5,558.9z"/>
		<path class="st1" d="M964.7,569.4l7.1-11.9c6.2,4.1,13,6.3,19.3,6.3c4.3,0,6.1-1.3,6.1-3.4c0-2.7-2.6-3.1-10.8-5.2
			c-13.6-3.4-18.5-9.2-18.5-17.9c0-11,9.2-18.2,23.4-18.2c9.3,0,16.6,4.1,21.9,7.9l-7.5,11.4c-5.1-3.4-10.8-5.2-16-5.2
			c-3.2,0-5.1,1.1-5.1,3.1c0,2.5,2.6,2.7,10.2,4.7c14.8,3.8,19.1,8.9,19.1,18.2c0,10.5-8.8,18.6-25.2,18.6
			C980.3,578,971,574.2,964.7,569.4z"/>
	</g>
</g>
</svg>
