<?xml version="1.0" encoding="utf-8"?>
<!-- Generator: Adobe Illustrator 24.1.2, SVG Export Plug-In . SVG Version: 6.00 Build 0)  -->
<svg version="1.1" id="Layer_1" xmlns="http://www.w3.org/2000/svg" xmlns:xlink="http://www.w3.org/1999/xlink" x="0px" y="0px"
	 viewBox="0 0 192.8 192.8" style="enable-background:new 0 0 192.8 192.8;" xml:space="preserve">
<style type="text/css">
	.st0{fill-rule:evenodd;clip-rule:evenodd;fill:#FFFFFF;}
	.st1{fill-rule:evenodd;clip-rule:evenodd;fill:#33337F;}
</style>
<g>
	<polygon class="st0" points="0,0 192.8,0 192.8,192.8 0,192.8 0,0 	"/>
	<path class="st1" d="M15,117.7c-3.9-2.8-5.9-4.8-7.9-7.8c-2.8-4.3-4.3-9.6-4.3-14.7c0-15,12.1-27.1,27-27.1c14.9,0,27,12.1,27,27
		c0,6.1-2.1,12.3-5.8,16.8c-1.5,1.9-2.8,3.1-6.4,5.7v-15.8h2.7v10.8c2-2.3,3-3.8,3.9-5.5c2-3.5,3.1-7.9,3.1-12.1
		c0-13.7-11-24.8-24.5-24.8c-13.6,0-24.5,11.1-24.5,24.9c0,6.3,2.2,11.9,6.9,17.4v-10.8H15V117.7L15,117.7z M20.4,120.5
		c-0.5-0.1-1.7-0.7-2.7-1.2v-17.4h2.7V120.5L20.4,120.5z M25.8,121.9c-1-0.2-1-0.2-1.4-0.3c-0.3-0.1-0.4-0.1-1.3-0.3v-37h2.7V121.9
		L25.8,121.9z M31.2,122.1c-0.4,0.1-0.5,0.1-1.1,0.1c-0.9,0-1.1,0-1.6-0.1V84.3h2.7V122.1L31.2,122.1z M36.6,121.3
		c-0.9,0.3-1.6,0.5-2.7,0.7V84.3h2.7V121.3L36.6,121.3z M36.6,82.4l-6.8-5.2l-6.8,5.2l-1.5-1.9l8.3-6.4l8.2,6.4L36.6,82.4L36.6,82.4
		z M42,119.3c-0.9,0.4-1.4,0.6-2.7,1.3v-18.6H42V119.3L42,119.3z"/>
	<path class="st1" d="M71.9,79.5v-7.2c0.8-0.3,1.2-0.3,1.8-0.3c2,0,3.2,1.4,3.2,3.6c0,2.7-1.1,3.9-3.6,3.9H71.9L71.9,79.5z
		 M70.5,70.9h-3.5v1.2l1.9,0.3V89l-1.9,0.3v1.1h3.3c0.6,0,1.3,0,2.3,0.1h1.8c1.9,0,2.9-0.1,3.8-0.5c1.9-0.7,3.1-2.6,3.1-4.7
		c0-2.8-1.6-4.7-4.6-5.3c2.3-1.1,3.4-2.6,3.4-4.6c0-2.9-2.2-4.8-5.4-4.8c-0.2,0-0.9,0.1-1.8,0.1L70.5,70.9L70.5,70.9z M71.9,80.9
		h1.3c3.3,0,4.8,1.3,4.8,4.1c0,2.7-1.7,4.3-4.3,4.3c-0.8,0-1.2-0.1-1.8-0.5V80.9L71.9,80.9z M89.2,76.2c-3.4,0-5.7,3.1-5.7,7.5
		c0,4.2,2.2,7,5.5,7c3.4,0,5.7-3,5.7-7.5C94.6,79,92.4,76.2,89.2,76.2L89.2,76.2z M89,77.6c1.6,0,2.5,1.9,2.5,5.3
		c0,4.3-0.9,6.4-2.6,6.4c-1.6,0-2.5-2-2.5-5.7C86.4,79.8,87.4,77.6,89,77.6L89,77.6z M106.8,83.3c-0.1-4.7-1.6-7-4.8-7
		c-3.3,0-5.3,2.8-5.3,7.6c0,4.4,1.9,6.9,5.3,6.9c2.2,0,3.2-0.7,4.7-3.3l-1.3-0.5c-0.9,1.3-1.6,1.8-2.6,1.8c-2,0-3-1.6-3.3-5.5H106.8
		L106.8,83.3z M99.6,81.9c0.3-3,1-4.3,2.3-4.3c1.3,0,1.9,1.2,2,4.3H99.6L99.6,81.9z M73.7,119.5v-1.2L72,118v-16.6l1.7-0.3v-1.2
		h-6.5v1.3l1.8,0.3V118l-1.8,0.3v1.1H73.7L73.7,119.5z M88.5,119.5v-1.2L87,118v-8.8c0-2.3-1.2-3.7-3.4-3.7c-1.3,0-2,0.3-3.8,1.7
		v-1.7h-0.8l-3.5,0.9v1.1l1.6,0.2V118l-1.6,0.3v1.1h5.9v-1.2l-1.5-0.3v-9.3c1.1-0.9,1.8-1.3,2.7-1.3c1.1,0,1.6,0.7,1.6,2.3v8.3
		l-1.5,0.3v1.1H88.5L88.5,119.5z M101.8,107.3v-1.7l-2.3,0.1h-0.5c-0.2,0.1-0.5,0.1-0.5,0.1c-0.3,0-0.7-0.1-1.3-0.2
		c-1-0.2-1.3-0.3-1.8-0.3c-2.7,0-4.7,2-4.7,4.7c0,1.8,0.6,2.8,2.3,3.9c-1.8,1.1-2.6,2-2.6,3.1c0,0.8,0.5,1.3,1.6,1.8
		c-1.7,1.1-2.2,1.8-2.2,3c0,1.8,2,2.9,5.1,2.9c4.1,0,6.8-1.9,6.8-5c0-2.1-1.3-3.1-3.9-3.2l-3.4-0.2c-0.9-0.1-1.2-0.2-1.2-0.6
		c0-0.3,0.4-0.8,1.1-1.3c0.5,0.2,1,0.2,1.5,0.2c2.7,0,4.8-1.9,4.8-4.6c0-1.1-0.2-1.8-1-2.8H101.8L101.8,107.3z M95.5,106.5
		c1.4,0,2,1.2,2,3.7c0,2.1-0.6,3.2-1.9,3.2c-1.4,0-1.9-1.1-1.9-3.5C93.6,107.6,94.2,106.5,95.5,106.5L95.5,106.5z M94.6,119.1
		c4.4,0.3,5,0.5,5,1.7c0,1.4-1.8,2.3-4.1,2.3c-1.9,0-3-0.7-3-2c0-0.9,0.3-1.4,1-2.1L94.6,119.1L94.6,119.1z"/>
	<path class="st1" d="M106.2,111c0.3-3,1.1-4.3,2.4-4.3c1.3,0,1.9,1.3,1.9,4.3H106.2L106.2,111z M121.2,90.4v-1.2l-1.5-0.3v-8.6
		c0-2.6-1.1-3.9-3.4-3.9c-1.2,0-2.1,0.4-3.7,1.7v-8.6h-0.8l-3.5,0.7v1l1.6,0.3V89l-1.7,0.3v1.1h5.8v-1.2l-1.4-0.3v-9.2
		c1.1-1,1.8-1.3,2.6-1.3c1.2,0,1.7,0.7,1.7,2.8V89l-1.4,0.3v1.1H121.2L121.2,90.4z M127.4,76.4h-0.9l-3.4,0.9v0.9l1.6,0.3V89
		l-1.6,0.3v1.1h6.3v-1.2l-2-0.3v-7.5c0-0.8,0.8-1.9,1.8-2.4l1.5,0.8c0.7-0.6,1.1-1.1,1.1-1.7c0-1-0.6-1.7-1.6-1.7
		c-1,0-1.6,0.5-2.7,2.4V76.4L127.4,76.4z M135.9,69.6c-1,0-1.8,0.8-1.8,1.8c0,1,0.8,1.8,1.8,1.8c1,0,1.8-0.8,1.8-1.8
		C137.7,70.3,136.9,69.6,135.9,69.6L135.9,69.6z M139.1,90.4v-1.2l-1.6-0.3V76.5h-0.7l-3.6,0.9v1l1.5,0.3V89l-1.5,0.3v1.1H139.1
		L139.1,90.4z M113.4,112.3c-0.1-1.9-0.2-2.8-0.4-3.5c-0.7-2.2-2.2-3.4-4.4-3.4c-3.3,0-5.3,2.8-5.3,7.5c0,4.4,1.9,6.9,5.3,6.9
		c2.2,0,3.4-0.9,4.7-3.3l-1.3-0.5c-0.9,1.3-1.6,1.8-2.7,1.8c-2,0-3-1.6-3.3-5.5H113.4L113.4,112.3z M121,119.5v-1.2l-1.5-0.3V98.6
		h-0.7l-3.6,0.8v1l1.6,0.2V118l-1.6,0.3v1.1H121L121,119.5z M135.9,119.5v-1.2l-1.5-0.3v-8.8c0-2.3-1.2-3.6-3.3-3.6
		c-1.3,0-2.2,0.4-3.8,1.7v-8.6h-0.7l-3.6,0.8v1l1.6,0.3V118l-1.6,0.3v1.1h5.7v-1.2l-1.4-0.3v-9.1c1.1-1,1.8-1.3,2.6-1.3
		c1.2,0,1.6,0.7,1.6,2.8v7.7l-1.4,0.3v1.1H135.9L135.9,119.5z M147.8,112.3c-0.1-1.9-0.2-2.8-0.4-3.5c-0.7-2.2-2.2-3.4-4.4-3.4
		c-3.3,0-5.3,2.8-5.3,7.5c0,4.4,1.9,6.9,5.3,6.9c2.2,0,3.4-0.9,4.7-3.3l-1.3-0.5c-0.9,1.3-1.6,1.8-2.7,1.8c-2,0-3-1.6-3.3-5.5H147.8
		L147.8,112.3z M140.5,111c0.3-3,1.1-4.3,2.4-4.3c1.3,0,1.9,1.3,1.9,4.3H140.5L140.5,111z"/>
	<path class="st1" d="M161,77.4c1.4,0,2,1.2,2,3.7c0,2.1-0.6,3.2-1.9,3.2c-1.4,0-1.9-1.1-1.9-3.5C159.1,78.5,159.7,77.4,161,77.4
		L161,77.4z M154,90.4v-1.2l-1.5-0.3v-8.8c0-2.3-1.2-3.7-3.4-3.7c-1.3,0-2,0.3-3.8,1.6v-1.7h-0.8l-3.5,0.9v1.1l1.6,0.2V89l-1.6,0.3
		v1.1h5.9v-1.2l-1.5-0.3v-9.3c1.1-0.9,1.8-1.3,2.7-1.3c1.1,0,1.6,0.7,1.6,2.3V89l-1.5,0.3v1.1H154L154,90.4z M167.3,78.3v-1.7
		l-2.3,0.1h-0.5c-0.2,0.1-0.5,0.1-0.5,0.1c-0.3,0-0.7-0.1-1.3-0.2c-1-0.2-1.3-0.3-1.8-0.3c-2.7,0-4.7,2-4.7,4.7
		c0,1.8,0.6,2.8,2.3,3.9c-1.8,1.1-2.6,2-2.6,3c0,0.8,0.5,1.4,1.6,1.8c-1.6,1-2.2,1.8-2.2,3c0,1.8,2,2.9,5.1,2.9c4.1,0,6.8-1.9,6.8-5
		c0-2.1-1.3-3.1-3.9-3.2l-3.4-0.2c-0.9-0.1-1.2-0.2-1.2-0.6c0-0.3,0.4-0.7,1.1-1.2c0.5,0.2,1,0.2,1.5,0.2c2.7,0,4.8-1.9,4.8-4.6
		c0-1.1-0.2-1.8-1-2.8H167.3L167.3,78.3z M159,89.9c5.6,0.3,6.1,0.5,6.1,1.8c0,1.3-1.8,2.3-4.1,2.3c-1.9,0-3-0.7-3-2
		C158,91.2,158.3,90.6,159,89.9L159,89.9z M178.9,83.3c-0.1-4.7-1.6-7-4.8-7c-3.3,0-5.3,2.8-5.3,7.6c0,4.4,1.9,6.9,5.3,6.9
		c2.2,0,3.2-0.7,4.7-3.3l-1.3-0.5c-0.9,1.3-1.6,1.8-2.6,1.8c-2,0-3-1.6-3.3-5.5H178.9L178.9,83.3z M171.7,81.9c0.3-3,1-4.3,2.3-4.3
		c1.3,0,1.9,1.2,2,4.3H171.7L171.7,81.9z M185.5,76.4h-0.9l-3.4,0.9v0.9l1.6,0.3V89l-1.6,0.3v1.1h6.3v-1.2l-2-0.3v-7.5
		c0-0.8,0.8-1.9,1.8-2.4l1.5,0.8c0.7-0.6,1.1-1.1,1.1-1.7c0-1-0.6-1.7-1.6-1.7c-1,0-1.6,0.5-2.7,2.4V76.4L185.5,76.4z M152.8,98.6
		c-1.1,0-1.9,0.9-1.9,1.9c0,1,0.8,1.8,1.8,1.8c1,0,1.9-0.9,1.9-1.9C154.6,99.4,153.8,98.6,152.8,98.6L152.8,98.6z M155.9,119.5v-1.2
		l-1.6-0.3v-12.4h-0.7l-3.6,0.9v0.9l1.5,0.3V118l-1.5,0.3v1.1H155.9h22.3v-1.2l-1.6-0.3v-8.4c0-2.8-1-4-3.5-4
		c-1.5,0-2.4,0.5-3.9,1.9c-0.8-1.3-1.8-1.8-3.2-1.8c-1.4,0-2.4,0.5-3.9,1.6v-1.9h-0.7l-3.6,0.9v1l1.7,0.3V118l-1.7,0.3v1.1h5.8v-1.2
		l-1.3-0.3v-9.2c1-1,1.6-1.3,2.6-1.3c1.3,0,1.8,0.8,1.8,2.6v8l-1.6,0.3v1.1h5.7v-1.2l-1.4-0.3v-9.1c1.1-1,1.8-1.4,2.7-1.4
		c1.2,0,1.7,0.7,1.7,2.6v7.9l-1.5,0.3v1.1h5.9H155.9L155.9,119.5z"/>
</g>
</svg>
