<?xml version="1.0" encoding="utf-8"?>
<!-- Generator: Adobe Illustrator 24.1.2, SVG Export Plug-In . SVG Version: 6.00 Build 0)  -->
<svg version="1.1" id="Layer_1" xmlns="http://www.w3.org/2000/svg" xmlns:xlink="http://www.w3.org/1999/xlink" x="0px" y="0px"
	 viewBox="0 0 192.8 192.8" style="enable-background:new 0 0 192.8 192.8;" xml:space="preserve">
<style type="text/css">
	.st0{fill-rule:evenodd;clip-rule:evenodd;fill:#1D509C;}
	.st1{fill-rule:evenodd;clip-rule:evenodd;fill:#FFFFFF;}
	.st2{fill-rule:evenodd;clip-rule:evenodd;fill:#EB2D38;}
</style>
<g>
	<polygon class="st0" points="0,0 192.8,0 192.8,192.8 0,192.8 0,0 	"/>
	<path class="st1" d="M173,79.7l2.2-1c2.2-1,3.3-0.6,3.4,1.3l-8.1,22.8c-0.9,2.6-2.8,4.6-5.7,6.1c-2.2,1.1-4.4,1.6-6.6,1.6H86.7
		c-3.6,3.8-7.8,6.9-12.5,9.3c-6.3,3.2-13,4.7-20.2,4.7c-6.4,0-11.6-1.8-15.7-5.3c-1.6-1.3-2.8-2.9-3.9-4.6c-0.9-1.4-1.4-2.7-1.8-4.1
		h-3.9c-1.9,0.1-3.5,0.3-5,0.7c-0.8,0.2-1.9,0.6-3.4,1.3l-2.4,1.2c-0.6,0.3-1.2,0.4-1.7,0.3c-1.7-0.3-2.3-1.4-1.8-3.5l6.6-22.1
		c1-2.4,2.7-4.1,5.3-5.2c2.3-1,5.1-1.4,8.5-1.3h5.8c1-1.4,2.5-2.8,4.2-4.3c2.1-1.7,4.4-3.1,6.9-4.4c6.3-3.3,13.1-4.9,20.3-4.9
		c6.4,0,11.6,1.7,15.7,5c2.8,2.3,4.9,5.2,6.3,8.7h66.3c4.4-0.2,7.8-0.6,10.1-1.3C171.2,80.4,172,80.1,173,79.7L173,79.7z"/>
	<path class="st0" d="M23.4,89.8l-5.4,18.1c-0.4,1.3-0.5,2.1-0.4,2.3c0.2,0.3,0.6,0.4,1.2,0.1l2.2-1c0.9-0.4,2.1-0.8,3.6-1
		c1.6-0.3,3.3-0.4,4.9-0.5h6.9c1,0,1.9-0.4,2.6-1.1c0.6-0.5,1.1-1.3,1.6-2.4l8.5-17.5c0.8-1.7,0.2-2.5-1.8-2.5l-12.8,0.1
		c-2.7-0.1-5,0.2-7,1C25.7,86.4,24.2,87.8,23.4,89.8L23.4,89.8z"/>
	<path class="st0" d="M162.1,84.2l-75.6,0.1c-1.2,0-2,0.2-2.6,0.6c-0.6,0.4-1,1.2-1.3,2.5l-2.3,17.2c-0.1,0.8-0.1,1.4,0.1,1.9
		c0.2,0.4,0.4,0.8,0.9,1c0.4,0.2,1,0.3,1.8,0.4l2.7,0.1l70.2-0.1c2.4,0,4.5-0.4,6.5-1.1c2.5-1,4.1-2.4,4.8-4.2l7.5-19.5
		c0.2-0.5,0.2-0.9,0.1-1h-1.2l-2.3,0.9c-0.8,0.4-2.1,0.7-3.9,1L162.1,84.2L162.1,84.2z"/>
	<path class="st1" d="M95.8,93.8c-0.3-0.4-0.7-0.6-1.3-0.6c-1.1,0.1-2.1,0.6-2.9,1.7c-0.6,0.8-1.1,1.8-1.4,2.9
		c-0.5,1.3-0.6,2.6-0.5,3.6c0.2,1.5,0.9,2.3,2.1,2.3c1.9,0,3.3-1.6,4.4-4.9c0.5-1.4,0.5-2.7,0.3-3.8C96.2,94.4,96.1,94,95.8,93.8
		L95.8,93.8z M104,89.8l6.9-2.1l-4.8,15c-0.1,0.3,0,0.5,0.2,0.6l0.6,0.5l0.5,0.4H99l1-0.4c0.6-0.2,1-0.4,1.2-0.5
		c0.3-0.2,0.5-0.4,0.6-0.6l3.3-10.4c0.4-1.1,0-1.8-1.1-2.3L104,89.8L104,89.8L104,89.8z M85.2,98.5c0.6-1.8,1.9-3.3,3.9-4.5
		c1.9-1.1,3.9-1.7,6-1.7c1.9,0,3.4,0.5,4.6,1.4c0.6,0.5,1,1.2,1.3,2c0.2,0.8,0.2,1.6-0.1,2.5c-0.6,1.9-1.9,3.4-3.9,4.7
		c-1.9,1.1-3.9,1.7-6.1,1.8c-2.1,0-3.8-0.5-4.8-1.6C84.9,101.8,84.7,100.3,85.2,98.5L85.2,98.5L85.2,98.5z M142.5,94.9
		c-0.6,0.8-1.1,1.8-1.4,2.9c-0.5,1.4-0.6,2.6-0.5,3.7c0.1,1.5,0.8,2.3,2.1,2.3c1.9-0.1,3.3-1.7,4.3-4.9c0.5-1.4,0.6-2.7,0.3-3.8
		c-0.3-1.3-0.9-1.9-1.8-1.9C144.3,93.3,143.4,93.8,142.5,94.9L142.5,94.9L142.5,94.9z M136.2,98.6c0.6-1.8,1.9-3.3,3.9-4.5
		c1.9-1.1,3.9-1.7,6-1.7c1.9-0.1,3.4,0.4,4.6,1.4c0.6,0.5,1.1,1.2,1.3,1.9c0.3,0.8,0.2,1.7-0.1,2.5c-0.6,1.9-1.9,3.4-3.9,4.7
		c-1.9,1.1-3.9,1.7-6.1,1.7c-2.1,0.1-3.8-0.5-4.9-1.6C135.8,102,135.6,100.5,136.2,98.6L136.2,98.6L136.2,98.6z M115.5,103.8
		l0.5,0.5h-8l0.9-0.4c0.9-0.5,1.3-0.9,1.4-1.2l1.6-5.1c0.3-0.9,0-1.4-0.9-1.8l0.1-0.2l6.9-3.2l-3.3,10.3c-0.1,0.3-0.1,0.5,0.1,0.6
		C114.9,103.3,115.1,103.5,115.5,103.8L115.5,103.8L115.5,103.8z M117.4,87.5c0.6,0,1.1,0.2,1.5,0.4c0.4,0.3,0.4,0.8,0.3,1.2
		c-0.2,0.5-0.6,1-1.3,1.3c-0.6,0.3-1.2,0.5-1.9,0.5c-0.7,0-1.2-0.2-1.5-0.5c-0.4-0.3-0.4-0.8-0.2-1.3c0.2-0.5,0.6-0.9,1.3-1.3
		C116.1,87.7,116.8,87.5,117.4,87.5L117.4,87.5L117.4,87.5z M126.6,94.1l1.2-0.7c1.3-0.6,2.5-1,3.6-1c1.2,0,2.3,0.4,3,1.1
		c0.4,0.4,0.5,1,0.5,1.6c0,0.4-0.2,1-0.5,1.9l-1.8,5.4c-0.1,0.3-0.1,0.5,0,0.6c0.1,0.2,0.2,0.3,0.4,0.5l0.6,0.6h-7.5l1.7-1.1
		l0.5-0.6l1.6-4.8l0.4-1.3c0.1-0.5,0.1-0.9,0.1-1.2c-0.2-0.7-0.6-1.1-1.3-1.1c-0.8,0-1.6,0.3-2.4,0.9c-0.4,0.3-0.8,0.6-0.9,1
		l-2.1,6.5c-0.1,0.2-0.1,0.4,0.1,0.6l0.6,0.5l0.8,0.5h-8.2l0.9-0.5l1-0.6c0.3-0.2,0.4-0.4,0.5-0.6l1.7-5.1c0.3-0.8,0-1.4-0.9-1.8
		l0.1-0.2l6-2.8l-0.1,1.8C126,94.4,126.3,94.3,126.6,94.1L126.6,94.1L126.6,94.1z M164.1,94.9h-0.1c-0.9-1.2-1.9-1.9-3-1.9
		c-0.6,0-1.2,0.1-1.7,0.3c-0.6,0.3-1,0.6-1.1,1.1c-0.2,0.6,0.3,1.1,1.6,1.4l1.4,0.4c1.1,0.4,2,0.8,2.5,1.2c0.6,0.6,0.8,1.4,0.5,2.4
		c-0.5,1.4-1.6,2.5-3.3,3.4c-1.3,0.7-2.9,1.1-4.9,1.1c-1.7,0.1-2.9-0.2-3.8-0.7c-0.4-0.2-0.6-0.5-0.8-0.8l1.7-2.6h0.1
		c-0.1,2.1,1.1,3.2,3.6,3.2c0.7-0.1,1.3-0.2,2-0.4c0.8-0.3,1.2-0.8,1.4-1.2c0.2-0.5,0.1-1-0.4-1.3c-0.3-0.2-0.8-0.4-1.4-0.6
		c-1.6-0.5-2.7-0.9-3.3-1.2c-1.1-0.7-1.6-1.6-1.2-2.7c0.4-1.2,1.4-2.1,2.9-2.9c1.3-0.7,2.7-1,4.2-1l3.4,0.3c0.5,0.1,0.8,0.3,0.9,0.5
		L164.1,94.9L164.1,94.9L164.1,94.9z"/>
	<path class="st2" d="M70.9,103.9l2.1-12l-15.6,18.4c-0.5,0.6-1,0.9-1.3,0.8c-0.4-0.1-0.6-0.3-0.6-0.8L53.5,92L46.8,105
		c-1.1,2.3-0.6,4,1.4,5.4H35.4c1.2,3.5,3.5,6.2,6.8,8.3c3.4,2.1,7.3,3.2,11.9,3.2c7.6,0,14.7-1.9,21.3-5.6c2.1-1.2,4-2.5,5.7-3.9
		l1.5-1.3l0.5-0.5H65.9c1.7-1,2.9-1.9,3.6-2.9C70.2,106.5,70.6,105.3,70.9,103.9L70.9,103.9z"/>
	<path class="st2" d="M72,70.8c-6.7,0-13,1.5-18.9,4.5C51,76.4,49,77.6,47.2,79c-1.3,1.1-2.4,2-3.2,2.9h13.5c1.4,0,2.5,0.2,3.2,0.5
		c0.9,0.5,1.4,1.6,1.5,3l0.3,6.5l0.2,4.9l10.6-12.6c0.9-1.1,1.9-1.8,2.9-2.1c0.6-0.2,1.6-0.3,2.9-0.3h12.1c-1.1-2.6-2.8-4.9-5-6.7
		C82.5,72.3,77.7,70.8,72,70.8L72,70.8z"/>
</g>
</svg>
