<?xml version="1.0" encoding="utf-8"?>
<!-- Generator: Adobe Illustrator 24.1.2, SVG Export Plug-In . SVG Version: 6.00 Build 0)  -->
<svg version="1.1" id="Layer_1" xmlns="http://www.w3.org/2000/svg" xmlns:xlink="http://www.w3.org/1999/xlink" x="0px" y="0px"
	 viewBox="0 0 792 416.2" style="enable-background:new 0 0 792 416.2;" xml:space="preserve">
<style type="text/css">
	.st0{fill-rule:evenodd;clip-rule:evenodd;fill:#006FBA;}
</style>
<g>
	<path class="st0" d="M339.5,162c34.7-85.8-30.3-109-72.7-109H126.6c11.7,8,9.8,18.6,7.5,25.2L52.4,339.4
		c-3.3,10.3-15.5,21.2-22,22.9l113.6,0c-6.2-1.1-15.2-10-12-22.2l29.7-94.5C161.6,245.7,298.2,264.1,339.5,162z M229.2,77
		c14.8,0,56,2,29.4,79.8c-27.9,81.7-89.5,64.9-89.5,64.9L214.6,77C214.6,77,228.7,77,229.2,77z"/>
	<path class="st0" d="M430.3,362.4l76.3,0c-24.4-7.8-60.6-30.9-74.9-47.4c11.6-12.7,26-28.7,28.6-61.2h-39.6c0,0,7.6,4.4,7.6,13.6
		c0,8.6-3.4,20.4-10.1,28.9c-11.6-17.2-24-36.8-28.3-65.6c15.5-7.8,37.4-16.1,54.7-31.3c16.4-14.4,20.3-28,20.5-36.9
		c0-0.4,0-0.7,0-1.1c0-9.3-3.6-18-10.3-24.6c-11.5-11.4-29.6-16-48.5-12.5c-15.3,2.9-28.3,11-34.8,17.1
		c-23.1,21.6-26.1,57.2-26.1,73.3c0,3.9,0.2,6.9,0.3,8.6c-1.3,0.5-3.7,1.4-3.7,1.4c-16.8,6.2-61.8,18.2-77.9,55.2
		c-2.1,4.7-5,14.8-5,26.6c0,10.1,2.1,21.5,8.7,31.8c11.3,17.7,30.6,28.9,61.4,28.4c33.5-0.6,66.5-23.4,72.4-27.6
		C407.5,344.5,422.5,358.6,430.3,362.4z M430.3,155.8c-4,24.9-36.2,50-44.1,53.4c-1.4-14-0.8-36.1,11-54.1
		c7.8-11.9,18-17.2,26.3-14.3C430.1,143.1,430.9,149.3,430.3,155.8z M385.5,322.2c-4.5,2.8-22.2,11.8-38.9,13.4
		c-15.4,1.4-41-4.5-40.9-35.4c0-26.4,28.7-45.6,44.2-52.3C356.3,273.4,370.4,302.2,385.5,322.2z"/>
	<path class="st0" d="M662.5,77.3c45.4-10.9,82.8,24.6,86.2,27.1l13-41.2c-18-5.4-148.2-49.5-240.2,55.6
		c-56.6,64.7-70.5,197.1,1.3,232.6c76.9,38,161.7-5.8,167.9-8.9l35.1-111.7c3.8-13.5,12.4-22.3,27.5-27.9h-122
		c17.8,7.4,16.5,20.8,15.1,26.3l-35,111.7c-4.7,0.9-102.7,25.4-47.8-146.2C575.4,157.9,608.4,90.3,662.5,77.3z"/>
</g>
</svg>
