<?xml version="1.0" encoding="utf-8"?>
<!-- Generator: Adobe Illustrator 24.1.2, SVG Export Plug-In . SVG Version: 6.00 Build 0)  -->
<svg version="1.1" id="Layer_1" xmlns="http://www.w3.org/2000/svg" xmlns:xlink="http://www.w3.org/1999/xlink" x="0px" y="0px"
	 viewBox="0 0 1087.6 641.2" style="enable-background:new 0 0 1087.6 641.2;" xml:space="preserve">
<style type="text/css">
	.st0{fill:#3C81C3;}
</style>
<g>
	<path class="st0" d="M648.3,278.7H542.4c-19.4,0-35.3,16.9-35.3,37.7v10.2c0,20.8,15.9,37.7,35.3,37.7h56.8v36.2
		c0,3.8-1.5,7.3-4,9.1c-16.5,12.3-38.2,18.6-64.2,18.6c-18.8,0-35.4-4.5-49.6-13.3c-14-8.8-25-21.3-32.6-37.3
		c-7.7-16.3-11.7-35.4-11.7-57c0-33.3,8.8-59.8,26-78.9c17.4-19.2,40.7-28.6,71.3-28.6c14,0,27.9,2.9,41.2,8.7
		c6.7,2.8,12.9,6.4,18.7,10.4c14.5,10.2,32.9,8.7,44.8-3.9l11.2-11.8c7.2-7.6,11-18.3,10.3-29.1c-0.6-10.4-5.3-19.9-12.8-26.2
		c-12.1-10-25.1-18.2-38.6-24.3c-22.1-10.1-47.1-15.2-74.2-15.2c-37.4,0-71.1,8.5-100.1,25.2c-29.2,16.8-52.2,40.6-68.5,70.7
		c-16.2,30.1-24.3,64.7-24.3,103.1c0,39.4,7.7,74.3,23.1,104.2c15.5,30.1,37.6,53.6,65.9,69.9c28.1,16.2,61.1,24.3,98.3,24.3
		c31,0,59.8-5.5,85.7-16.4c18-7.5,34.1-17.4,48.2-29.5c12.8-11.1,20.3-28.1,20.3-46.8V316.1C683.3,295.6,667.6,278.7,648.3,278.7z"
		/>
	<path class="st0" d="M1069,440.8L930.1,160.3c-9-18.3-27.3-29.5-47.6-29.5c-20.3,0-38.5,11.3-47.6,29.4L695.3,440.7
		c-7.5,15.1-6.7,32.8,2.2,47.2c8.9,14.4,24.3,23,41.3,23c19.7,0,37.4-11.8,44.9-30.1l14.5-35.2h166.5l14.5,35.2
		c7.5,18.3,25.2,30.1,46.2,30.1c16.9,0,32.4-8.6,41.2-23C1075.6,473.6,1076.4,455.9,1069,440.8z M841.9,315.5
		c-9.7,0-17.5-7.8-17.5-17.5s7.8-17.5,17.5-17.5c9.7,0,17.5,7.8,17.5,17.5C859.3,307.7,851.5,315.5,841.9,315.5z M877.7,351.4
		c-9.7,0-17.5-7.8-17.5-17.5s7.8-17.5,17.5-17.5c9.7,0,17.5,7.8,17.5,17.5C895.3,343.6,887.4,351.4,877.7,351.4z M877.7,279.5
		c-9.7,0-17.5-7.8-17.5-17.5c0-9.7,7.8-17.5,17.5-17.5c9.7,0,17.5,7.8,17.5,17.5C895.3,271.6,887.4,279.5,877.7,279.5z M913.6,315.5
		c-9.7,0-17.5-7.8-17.5-17.5s7.8-17.5,17.5-17.5c9.7,0,17.5,7.8,17.5,17.5S923.3,315.5,913.6,315.5z"/>
	<path class="st0" d="M95.2,130.8H51.4c-20.9,0-37.8,16.9-37.8,37.8s16.9,37.8,37.8,37.8h44l21.3-37.8L95.2,130.8z"/>
	<path class="st0" d="M369.4,168.6c0-20.9-16.9-37.8-37.8-37.8h-43.9l-21.5,37.8l21.3,37.8h44C352.4,206.4,369.4,189.5,369.4,168.6z
		"/>
	<path class="st0" d="M251.1,164.9l19.2-34.1h-78.8l0,0h-78.8l19.2,34.1c1.4,2.3,1.4,5.1,0,7.3l-19.2,34.1h34.1v259.9
		c0,24.6,20,44.7,44.7,44.7s44.7-20,44.7-44.7V206.4h34.1l-19.2-34.1C249.8,169.9,249.8,167.1,251.1,164.9z"/>
</g>
</svg>
