<?xml version="1.0" encoding="utf-8"?>
<!-- Generator: Adobe Illustrator 24.1.2, SVG Export Plug-In . SVG Version: 6.00 Build 0)  -->
<svg version="1.1" id="Layer_1" xmlns="http://www.w3.org/2000/svg" xmlns:xlink="http://www.w3.org/1999/xlink" x="0px" y="0px"
	 viewBox="0 0 156.5 96.2" style="enable-background:new 0 0 156.5 96.2;" xml:space="preserve">
<style type="text/css">
	.st0{fill:#FFFFFF;}
</style>
<g>
	<path class="st0" d="M54.7,36.6c0.1,0.1,0.1,0.3,0.1,0.4s0,0.3-0.1,0.4s-0.3,0.1-0.4,0.1h-3.4c-0.3,0-0.5,0-0.7-0.1S50,37.1,50,37
		l-0.7-2.1h-7L41.6,37c0,0.1-0.1,0.3-0.3,0.4c-0.1,0.1-0.4,0.1-0.7,0.1h-3.4c-0.1,0-0.3,0-0.4-0.1c-0.1-0.1-0.4-0.3-0.4-0.5
		c0-0.1,0-0.3,0.1-0.4l5.6-16.5c0.1-0.3,0.3-0.4,0.4-0.7c0.1-0.1,0.4-0.3,0.8-0.3h4.3c0.3,0,0.5,0.1,0.8,0.3
		c0.1,0.1,0.3,0.4,0.4,0.7L54.7,36.6z M47.8,30.6l-2.1-6.3l-2.1,6.3H47.8z"/>
	<path class="st0" d="M65.6,35.6c-0.3,0.3-0.5,0.5-0.8,0.8c-0.3,0.3-0.7,0.4-1.1,0.5c-0.4,0.1-1.1,0.3-1.7,0.3
		c-1.6,0-3.1-0.5-4.2-1.5c-1.1-0.9-1.6-2.4-1.7-4.3v-0.9v-0.9c0.1-1.9,0.7-3.4,1.7-4.4c1.1-0.9,2.4-1.5,4.2-1.5c1.7,0,3,0.5,3.8,1.6
		v-0.5c0-0.1,0.1-0.4,0.3-0.5c0.1-0.1,0.3-0.3,0.5-0.3h3.1c0.1,0,0.4,0.1,0.5,0.3c0,0,0,0.1,0,0.4v12.8c0,1.9-0.7,3.4-2,4.4
		s-3.1,1.5-5.2,1.5c-1.6,0-3-0.3-4-0.8c-1.1-0.5-1.7-1.1-2-1.9c-0.4-0.7-0.7-1.3-0.7-2c0-0.1,0-0.4,0.1-0.5s0.3-0.3,0.5-0.3h3.4
		c0.4,0,0.7,0.1,0.8,0.5c0.1,0.3,0.4,0.5,0.7,0.7c0.3,0.1,0.7,0.3,1.2,0.3c0.7,0,1.3-0.1,1.7-0.5s0.7-0.8,0.7-1.3v-1.7H65.6z
		 M61.4,32.5c0.4,0.4,0.9,0.5,1.7,0.5c0.7,0,1.2-0.1,1.6-0.5c0.4-0.4,0.7-0.8,0.7-1.3c0-0.1,0-0.4,0-0.8c0-0.4,0-0.7,0-0.8
		c-0.1-0.5-0.3-0.9-0.7-1.3c-0.4-0.4-0.9-0.5-1.6-0.5s-1.2,0.1-1.6,0.5c-0.4,0.4-0.7,0.9-0.7,1.5c0,0.1,0,0.4,0,0.7s0,0.5,0,0.7
		C60.9,31.7,61,32.1,61.4,32.5z"/>
	<path class="st0" d="M73.4,24.1c0.1-0.1,0.3-0.3,0.5-0.3h3.4c0.1,0,0.4,0.1,0.5,0.3c0.1,0.1,0.3,0.3,0.3,0.5v6.6
		c0,0.8,0.1,1.3,0.5,1.9c0.4,0.4,0.9,0.7,1.6,0.7c1.5,0,2.1-0.8,2.1-2.6v-6.6c0-0.1,0.1-0.4,0.3-0.5c0.1-0.1,0.3-0.3,0.5-0.3h3.4
		c0.1,0,0.4,0.1,0.5,0.3c0.1,0.1,0.3,0.3,0.3,0.5v12.2c0,0.1-0.1,0.4-0.3,0.5c-0.1,0.1-0.3,0.3-0.5,0.3h-3.1c-0.1,0-0.4-0.1-0.5-0.3
		c-0.1-0.1-0.3-0.3-0.3-0.5v-0.5c-0.4,0.4-0.8,0.8-1.3,1.1c-0.5,0.3-1.3,0.4-2.3,0.4c-1.7,0-3.1-0.5-4-1.5c-0.9-0.9-1.5-2.6-1.5-4.4
		v-7.3C73.1,24.3,73.2,24.2,73.4,24.1z"/>
	<path class="st0" d="M97.7,28.6c0-0.9-0.5-1.5-1.5-1.5c-0.5,0-1.1,0.1-1.5,0.5c-0.1,0.1-0.3,0.3-0.4,0.3c-0.1,0-0.3,0-0.5,0h-3.4
		c-0.1,0-0.3,0-0.4-0.1c-0.1-0.1-0.1-0.3-0.1-0.4c0-0.5,0.4-1.1,0.9-1.7c0.5-0.5,1.3-1.1,2.3-1.5s2-0.5,3.1-0.5c2,0,3.6,0.5,4.7,1.5
		c1.1,0.9,1.6,2.1,1.6,3.8v7.9c0,0.1-0.1,0.4-0.3,0.5c-0.1,0.1-0.3,0.3-0.5,0.3h-3.4c-0.1,0-0.4-0.1-0.5-0.3
		c-0.1-0.1-0.3-0.3-0.3-0.5v-0.7c-0.4,0.5-0.9,0.9-1.6,1.2c-0.7,0.3-1.5,0.4-2.4,0.4c-1.5,0-2.6-0.4-3.5-1.2c-0.7-0.8-1.1-1.7-1.1-3
		c0-1.2,0.4-2.1,1.3-2.8c0.9-0.8,2.3-1.3,4.3-1.6L97.7,28.6z M95.2,32c-0.5,0.1-0.8,0.3-1.2,0.4s-0.4,0.5-0.4,0.8
		c0,0.5,0.4,0.9,1.2,0.9c0.8,0,1.5-0.3,1.9-0.7c0.5-0.5,0.8-1.1,0.8-1.7L95.2,32z"/>
	<path class="st0" d="M105.9,30.6c-0.7-0.8-1.1-1.7-1.1-2.8c0-0.8,0.3-1.5,0.8-2.1c0.5-0.7,1.2-1.2,2.1-1.5c0.9-0.4,2-0.5,3.2-0.5
		c1.2,0,2.3,0.1,3.2,0.5c0.9,0.4,1.7,0.8,2.3,1.3c0.5,0.5,0.8,1.2,0.9,1.7c0,0.1,0,0.4-0.1,0.5c-0.1,0.1-0.3,0.3-0.5,0.3h-3.1
		c-0.1,0-0.4-0.1-0.7-0.3c-0.3-0.1-0.5-0.3-0.7-0.4c-0.3-0.1-0.7-0.1-1.1-0.1s-0.8,0-1.1,0.1c-0.3,0.1-0.4,0.3-0.4,0.5
		s0,0.4,0.1,0.5c0.1,0.1,0.3,0.1,0.5,0.3c0.3,0,0.7,0.1,1.3,0.3l1.6,0.3c1.5,0.3,2.7,0.8,3.4,1.6c0.8,0.8,1.1,1.7,1.1,2.8
		c0,0.8-0.3,1.5-0.8,2.1c-0.5,0.7-1.3,1.2-2.3,1.6c-0.9,0.4-2.1,0.5-3.5,0.5c-1.3,0-2.4-0.1-3.4-0.5c-0.9-0.4-1.7-0.8-2.3-1.5
		c-0.5-0.5-0.8-1.2-0.8-1.7c0-0.1,0-0.4,0.1-0.5c0.1-0.1,0.3-0.3,0.5-0.3h3.2c0.1,0,0.3,0,0.3,0c0.1,0,0.1,0.1,0.3,0.3
		c0.3,0.1,0.4,0.4,0.7,0.4c0.3,0.1,0.7,0.1,1.2,0.1c0.5,0,0.9-0.1,1.3-0.3c0.4-0.1,0.5-0.4,0.5-0.5c0-0.3-0.1-0.4-0.4-0.5
		c-0.3-0.1-0.8-0.3-1.7-0.4l-1.9-0.3C107.6,31.9,106.5,31.5,105.9,30.6z"/>
	<path class="st0" d="M22.3,67.9c0.1,0.1,0.1,0.3,0.1,0.4c0,0.1,0,0.3-0.1,0.4c-0.1,0.1-0.3,0.1-0.4,0.1h-3.4c-0.3,0-0.5,0-0.7-0.1
		c-0.1-0.1-0.3-0.3-0.3-0.4l-0.7-2.1h-7l-0.7,2.1c0,0.1-0.1,0.3-0.3,0.4c-0.1,0.1-0.4,0.1-0.7,0.1H5c-0.1,0-0.3,0-0.4-0.1
		c-0.1-0.1-0.1-0.3-0.1-0.4c0-0.1,0-0.3,0.1-0.4l5.6-16.5c0.1-0.3,0.3-0.4,0.4-0.7c0.1-0.1,0.4-0.3,0.8-0.3h4.3
		c0.3,0,0.5,0.1,0.8,0.3c0.1,0.1,0.3,0.4,0.4,0.7L22.3,67.9z M15.5,61.9l-2.1-6.3l-2.1,6.3H15.5z"/>
	<path class="st0" d="M34.3,55.5c0.1,0.1,0.3,0.3,0.3,0.5v2.7c0,0.1-0.1,0.4-0.3,0.5c-0.1,0.1-0.3,0.3-0.5,0.3h-2.4
		c-0.8,0-1.3,0.3-1.7,0.7c-0.4,0.4-0.7,1.1-0.7,1.7v6.4c0,0.1-0.1,0.4-0.3,0.5c-0.1,0.1-0.3,0.3-0.5,0.3h-3.4
		c-0.1,0-0.4-0.1-0.5-0.3c-0.1-0.1-0.3-0.3-0.3-0.5V56.2c0-0.1,0.1-0.4,0.3-0.5c0.1-0.1,0.3-0.3,0.5-0.3h3.1c0.1,0,0.4,0.1,0.5,0.3
		c0.1,0.1,0.3,0.3,0.3,0.5v0.5c0.9-0.8,2-1.3,3.5-1.3h1.6C33.9,55.2,34.1,55.4,34.3,55.5z"/>
	<path class="st0" d="M45.3,67.1c-0.3,0.3-0.5,0.5-0.8,0.8c-0.3,0.3-0.7,0.4-1.1,0.5s-1.1,0.3-1.7,0.3c-1.6,0-3.1-0.5-4.2-1.5
		c-1.1-0.9-1.6-2.4-1.7-4.3v-0.9V61c0.1-1.9,0.7-3.4,1.7-4.4c1.1-0.9,2.4-1.5,4.2-1.5c1.7,0,3,0.5,3.8,1.6v-0.5
		c0-0.1,0.1-0.4,0.3-0.5c0.1-0.1,0.3-0.3,0.5-0.3h3.1c0.1,0,0.4,0.1,0.5,0.3c0.1,0.1,0.3,0.3,0.3,0.5v12.8c0,1.9-0.7,3.4-2,4.4
		c-1.3,1.1-3.1,1.5-5.2,1.5c-1.6,0-3-0.3-4-0.8c-0.9-0.5-1.7-1.1-2-1.9c-0.4-0.7-0.7-1.3-0.7-2c0-0.1,0-0.4,0.1-0.5
		c0.1-0.1,0.3-0.3,0.5-0.3h3.4c0.4,0,0.7,0.1,0.8,0.5c0.1,0.3,0.4,0.5,0.7,0.7c0.3,0.1,0.7,0.3,1.2,0.3c0.7,0,1.3-0.1,1.7-0.5
		c0.5-0.3,0.7-0.8,0.7-1.3C45.3,68.9,45.3,67.1,45.3,67.1z M41.1,64c0.4,0.4,0.9,0.5,1.7,0.5c0.7,0,1.2-0.1,1.6-0.5s0.7-0.8,0.7-1.3
		c0-0.1,0-0.4,0-0.8c0-0.4,0-0.7,0-0.8c-0.1-0.5-0.3-0.9-0.7-1.3s-0.9-0.5-1.6-0.5c-0.7,0-1.2,0.1-1.6,0.5c-0.4,0.4-0.7,0.9-0.7,1.5
		c0,0.1,0,0.4,0,0.7c0,0.3,0,0.5,0,0.7C40.4,63,40.7,63.6,41.1,64z"/>
	<path class="st0" d="M57.6,65.2c0.5,0.3,1.1,0.5,1.6,0.5c0.5,0,0.9,0,1.2-0.1c0.3-0.1,0.5-0.3,0.8-0.4c0.1-0.1,0.3-0.3,0.4-0.3
		c0.1,0,0.3,0,0.4,0h3.4c0.1,0,0.3,0,0.4,0.1c0.1,0.1,0.1,0.3,0.1,0.4c0,0.4-0.3,0.8-0.8,1.5c-0.5,0.7-1.3,1.2-2.3,1.7
		c-1.1,0.5-2.3,0.8-3.8,0.8c-2.3,0-4-0.7-5.2-1.9c-1.2-1.2-1.9-3-1.9-5.2c0-1.3,0.3-2.6,0.8-3.6c0.5-1.1,1.3-1.9,2.4-2.6
		c1.1-0.5,2.3-0.9,3.8-0.9c1.6,0,3,0.4,4,1.1c1.1,0.7,1.9,1.6,2.3,2.7c0.5,1.1,0.7,2.3,0.7,3.4V63c0,0.1-0.1,0.4-0.3,0.5
		c-0.1,0.1-0.3,0.3-0.5,0.3h-8.7C57,64.2,57.1,64.8,57.6,65.2z M61.7,60.6c-0.1-0.5-0.3-1.1-0.7-1.5c-0.4-0.4-0.9-0.7-1.6-0.7
		c-0.7,0-1.3,0.3-1.7,0.7c-0.4,0.4-0.7,0.9-0.7,1.5H61.7z"/>
	<path class="st0" d="M82.4,68.7c-0.1,0.1-0.3,0.3-0.5,0.3h-3.4c-0.1,0-0.4-0.1-0.5-0.3c-0.1-0.1-0.3-0.3-0.3-0.5v-6.6
		c0-0.8-0.1-1.3-0.5-1.9c-0.4-0.4-0.9-0.7-1.7-0.7c-0.8,0-1.3,0.3-1.7,0.7s-0.5,1.1-0.5,1.9v6.6c0,0.1-0.1,0.4-0.3,0.5
		c-0.1,0.1-0.3,0.3-0.5,0.3h-3.4c-0.1,0-0.4-0.1-0.5-0.3c-0.1-0.1-0.3-0.3-0.3-0.5V55.9c0-0.1,0.1-0.4,0.3-0.5
		c0.1-0.1,0.3-0.3,0.5-0.3h3.2c0.1,0,0.4,0.1,0.5,0.3c0.1,0.1,0.3,0.3,0.3,0.5v0.5c0.8-1.1,2-1.6,3.6-1.6c1.7,0,3.1,0.5,4.2,1.5
		c1.1,0.9,1.5,2.6,1.5,4.4V68C82.6,68.4,82.5,68.5,82.4,68.7z"/>
	<path class="st0" d="M92.8,64.8H95c0.1,0,0.4,0.1,0.5,0.3c0.1,0.1,0.3,0.3,0.3,0.5v2.7c0,0.1-0.1,0.4-0.3,0.5
		c-0.1,0.1-0.3,0.3-0.5,0.3h-2.6c-1.6,0-3-0.4-4-1.3c-0.9-0.9-1.5-2.1-1.5-3.8v-4.4H85c-0.1,0-0.4-0.1-0.5-0.3
		c-0.1-0.1-0.3-0.3-0.3-0.5V56c0-0.1,0.1-0.4,0.3-0.5c0.1-0.1,0.3-0.3,0.5-0.3h1.9v-4.3c0-0.1,0.1-0.4,0.3-0.5
		c0.1-0.1,0.3-0.3,0.5-0.3h3.4c0.1,0,0.4,0.1,0.5,0.3c0.1,0.1,0.3,0.3,0.3,0.5v4.3h3c0.1,0,0.4,0.1,0.5,0.3c0.1,0.1,0.3,0.3,0.3,0.5
		v2.7c0,0.1-0.1,0.4-0.3,0.5s-0.3,0.3-0.5,0.3h-3v4.3C91.8,64.4,92,64.8,92.8,64.8z"/>
	<path class="st0" d="M102.4,53.6c-0.1,0.1-0.3,0.3-0.5,0.3h-3.4c-0.1,0-0.4-0.1-0.5-0.3c-0.1-0.1-0.3-0.3-0.3-0.5v-2.7
		c0-0.1,0.1-0.4,0.3-0.5c0.1-0.1,0.3-0.3,0.5-0.3h3.4c0.1,0,0.4,0.1,0.5,0.3c0.1,0.1,0.3,0.3,0.3,0.5v2.7
		C102.6,53.3,102.5,53.5,102.4,53.6z M102.4,68.7c-0.1,0.1-0.3,0.3-0.5,0.3h-3.4c-0.1,0-0.4-0.1-0.5-0.3c-0.1-0.1-0.3-0.3-0.3-0.5
		V55.9c0-0.1,0.1-0.4,0.3-0.5c0.1-0.1,0.3-0.3,0.5-0.3h3.4c0.1,0,0.4,0.1,0.5,0.3c0.1,0.1,0.3,0.3,0.3,0.5v12.2
		C102.6,68.4,102.5,68.5,102.4,68.7z"/>
	<path class="st0" d="M119.3,68.7c-0.1,0.1-0.3,0.3-0.5,0.3h-3.4c-0.1,0-0.4-0.1-0.5-0.3c-0.1-0.1-0.3-0.3-0.3-0.5v-6.6
		c0-0.8-0.1-1.3-0.5-1.9s-0.9-0.7-1.7-0.7c-0.8,0-1.3,0.3-1.7,0.7s-0.5,1.1-0.5,1.9v6.6c0,0.1-0.1,0.4-0.3,0.5
		c-0.1,0.1-0.3,0.3-0.5,0.3h-3.4c-0.1,0-0.4-0.1-0.5-0.3c-0.1-0.1-0.3-0.3-0.3-0.5V55.9c0-0.1,0.1-0.4,0.3-0.5
		c0.1-0.1,0.3-0.3,0.5-0.3h3.2c0.1,0,0.4,0.1,0.5,0.3c0.1,0.1,0.3,0.3,0.3,0.5v0.5c0.8-1.1,2-1.6,3.6-1.6c1.7,0,3.1,0.5,4.2,1.5
		c1.1,0.9,1.5,2.6,1.5,4.4V68C119.6,68.4,119.4,68.5,119.3,68.7z"/>
	<path class="st0" d="M130.3,59.9c0-0.9-0.5-1.5-1.5-1.5c-0.5,0-1.1,0.1-1.5,0.5c-0.1,0.1-0.3,0.3-0.4,0.3s-0.3,0-0.5,0h-3.4
		c-0.1,0-0.3,0-0.4-0.1c-0.1-0.1-0.1-0.3-0.1-0.4c0-0.5,0.4-1.1,0.9-1.7c0.5-0.5,1.3-1.1,2.3-1.5c0.9-0.4,2-0.5,3.1-0.5
		c2,0,3.6,0.5,4.7,1.5c1.1,0.9,1.6,2.3,1.6,3.8v7.9c0,0.1-0.1,0.4-0.3,0.5c-0.1,0.1-0.3,0.3-0.5,0.3H131c-0.1,0-0.4-0.1-0.5-0.3
		c-0.1-0.1-0.3-0.3-0.3-0.5v-0.7c-0.4,0.5-0.9,0.9-1.6,1.2c-0.7,0.3-1.5,0.4-2.4,0.4c-1.5,0-2.6-0.4-3.5-1.2c-0.8-0.8-1.2-1.7-1.2-3
		s0.4-2.1,1.3-2.8c0.9-0.8,2.3-1.3,4.3-1.6L130.3,59.9z M127.9,63.4c-0.5,0.1-0.8,0.3-1.2,0.4c-0.3,0.3-0.4,0.5-0.4,0.8
		c0,0.5,0.4,0.9,1.2,0.9c0.8,0,1.5-0.3,1.9-0.7c0.5-0.5,0.8-1.1,0.8-1.7L127.9,63.4z"/>
	<path class="st0" d="M138.5,62.1c-0.7-0.8-1.1-1.7-1.1-2.8c0-0.8,0.3-1.5,0.8-2.1s1.2-1.2,2.1-1.5c0.9-0.4,2-0.5,3.2-0.5
		c1.2,0,2.3,0.1,3.2,0.5c0.9,0.4,1.7,0.8,2.3,1.3s0.8,1.2,0.9,1.7c0,0.1,0,0.4-0.1,0.5c-0.1,0.1-0.3,0.3-0.5,0.3h-3.1
		c-0.1,0-0.4-0.1-0.7-0.3c-0.3-0.1-0.5-0.3-0.7-0.4c-0.3-0.1-0.7-0.1-1.1-0.1s-0.8,0-1.1,0.1c-0.3,0.1-0.4,0.3-0.4,0.5
		s0,0.4,0.1,0.5c0.1,0.1,0.3,0.1,0.5,0.3c0.3,0.1,0.7,0.1,1.3,0.3l1.6,0.3c1.5,0.3,2.7,0.8,3.4,1.6c0.7,0.8,1.1,1.7,1.1,2.8
		c0,0.8-0.3,1.5-0.8,2.1c-0.5,0.7-1.3,1.2-2.3,1.6c-0.9,0.4-2.1,0.5-3.5,0.5s-2.4-0.1-3.4-0.5c-0.9-0.4-1.7-0.8-2.3-1.5
		c-0.5-0.5-0.8-1.2-0.8-1.7c0-0.1,0-0.4,0.1-0.5c0.1-0.1,0.3-0.3,0.5-0.3h3.2c0.1,0,0.3,0,0.3,0c0.1,0,0.1,0.1,0.3,0.3
		c0.3,0.1,0.4,0.4,0.7,0.4c0.3,0.1,0.7,0.1,1.2,0.1s0.9-0.1,1.3-0.3s0.5-0.4,0.5-0.5c0-0.3-0.1-0.4-0.4-0.5
		c-0.3-0.1-0.8-0.3-1.7-0.4l-1.9-0.3C140.3,63.3,139.2,62.9,138.5,62.1z"/>
</g>
</svg>
