<?xml version="1.0" encoding="utf-8"?>
<!-- Generator: Adobe Illustrator 24.1.2, SVG Export Plug-In . SVG Version: 6.00 Build 0)  -->
<svg version="1.1" id="Layer_1" xmlns="http://www.w3.org/2000/svg" xmlns:xlink="http://www.w3.org/1999/xlink" x="0px" y="0px"
	 viewBox="0 0 200.8 122.6" style="enable-background:new 0 0 200.8 122.6;" xml:space="preserve">
<style type="text/css">
	.st0{fill-rule:evenodd;clip-rule:evenodd;fill:#FFFFFF;}
</style>
<g>
	<path class="st0" d="M18.4,83.1c-3.9-2.8-5.9-4.8-7.9-7.8c-2.8-4.3-4.3-9.6-4.3-14.7c0-15,12.1-27.1,27-27.1c14.9,0,27,12.1,27,27
		c0,6.2-2.1,12.3-5.8,16.8c-1.5,1.9-2.8,3.1-6.4,5.8V67.2h2.7V78c2-2.3,3-3.8,3.9-5.5c2-3.5,3.1-7.9,3.1-12.1
		c0-13.7-11-24.8-24.5-24.8c-13.6,0-24.5,11.1-24.5,24.9c0,6.3,2.2,11.9,6.9,17.4V67.2h2.7L18.4,83.1L18.4,83.1z M23.7,85.8
		c-0.5-0.1-1.7-0.7-2.7-1.2V67.2h2.7V85.8L23.7,85.8z M29.1,87.2c-1-0.2-1-0.2-1.4-0.3c-0.3-0.1-0.4-0.1-1.3-0.3v-37h2.7V87.2
		L29.1,87.2z M34.5,87.4c-0.4,0.1-0.5,0.1-1.1,0.1c-0.8,0-1.1,0-1.6-0.1V49.7h2.7L34.5,87.4L34.5,87.4z M40,86.6
		c-0.8,0.3-1.6,0.5-2.7,0.7V49.7H40V86.6L40,86.6z M40,47.7l-6.8-5.2l-6.8,5.2L25,45.7l8.3-6.4l8.3,6.4L40,47.7L40,47.7z M45.4,84.6
		c-0.8,0.4-1.4,0.6-2.7,1.3V67.2h2.7V84.6L45.4,84.6z"/>
	<path class="st0" d="M75.2,44.8v-7.2c0.8-0.3,1.2-0.3,1.8-0.3c2.1,0,3.2,1.4,3.2,3.6c0,2.7-1.1,3.9-3.6,3.9H75.2L75.2,44.8z
		 M73.9,36.2h-3.5v1.2l1.9,0.3v16.6l-1.9,0.3v1.1h3.3c0.6,0,1.3,0,2.3,0.1h1.8c1.9,0,2.9-0.1,3.8-0.5c1.9-0.7,3.1-2.6,3.1-4.7
		c0-2.8-1.6-4.7-4.6-5.3c2.3-1.1,3.4-2.6,3.4-4.5c0-2.9-2.2-4.8-5.4-4.8c-0.2,0-0.9,0.1-1.8,0.1L73.9,36.2L73.9,36.2z M75.2,46.2
		h1.3c3.3,0,4.8,1.3,4.8,4.1c0,2.7-1.7,4.3-4.3,4.3c-0.8,0-1.2-0.1-1.8-0.5V46.2L75.2,46.2z M92.5,41.5c-3.4,0-5.8,3.1-5.8,7.5
		c0,4.2,2.2,7,5.5,7c3.4,0,5.8-3,5.8-7.5C98,44.3,95.8,41.5,92.5,41.5L92.5,41.5z M92.4,42.9c1.6,0,2.5,1.9,2.5,5.3
		c0,4.3-0.9,6.4-2.6,6.4c-1.6,0-2.5-2-2.5-5.7C89.8,45.1,90.8,42.9,92.4,42.9L92.4,42.9z M110.2,48.6c-0.1-4.7-1.6-7-4.8-7
		c-3.3,0-5.3,2.8-5.3,7.6c0,4.4,1.9,6.9,5.3,6.9c2.2,0,3.2-0.7,4.7-3.3l-1.3-0.5c-0.8,1.3-1.6,1.8-2.6,1.8c-2.1,0-3-1.6-3.3-5.5
		L110.2,48.6L110.2,48.6z M102.9,47.2c0.3-3,1-4.3,2.3-4.3c1.3,0,1.9,1.2,2,4.3H102.9L102.9,47.2z M77.1,84.8v-1.2l-1.7-0.3V66.7
		l1.7-0.3v-1.2h-6.5v1.3l1.8,0.3v16.6l-1.8,0.3v1.1L77.1,84.8L77.1,84.8z M91.8,84.8v-1.2l-1.5-0.3v-8.8c0-2.3-1.2-3.7-3.4-3.7
		c-1.3,0-2.1,0.3-3.8,1.7v-1.7h-0.8l-3.5,0.9v1.1l1.7,0.2v10.4l-1.7,0.3v1.1h5.9v-1.2l-1.5-0.3V74c1.1-0.9,1.8-1.3,2.7-1.3
		c1.1,0,1.6,0.7,1.6,2.3v8.3l-1.5,0.3v1.1H91.8L91.8,84.8z M105.2,72.6V71l-2.3,0.1h-0.5c-0.2,0.1-0.4,0.1-0.5,0.1
		c-0.3,0-0.7-0.1-1.3-0.2c-1-0.2-1.3-0.3-1.8-0.3c-2.7,0-4.7,2.1-4.7,4.7c0,1.8,0.6,2.8,2.3,3.9c-1.8,1.1-2.6,2.1-2.6,3.1
		c0,0.8,0.5,1.3,1.6,1.8c-1.7,1.1-2.2,1.8-2.2,3c0,1.8,2,2.9,5.1,2.9c4.1,0,6.8-1.9,6.8-4.9c0-2.1-1.3-3.1-3.9-3.2l-3.4-0.2
		c-0.8-0.1-1.2-0.2-1.2-0.6s0.4-0.8,1.1-1.3c0.5,0.2,1,0.2,1.5,0.2c2.7,0,4.8-1.9,4.8-4.6c0-1.1-0.2-1.8-1-2.8L105.2,72.6
		L105.2,72.6z M98.8,71.8c1.4,0,2.1,1.2,2.1,3.7c0,2.1-0.6,3.2-1.9,3.2c-1.4,0-1.9-1.1-1.9-3.5C97,72.9,97.6,71.8,98.8,71.8
		L98.8,71.8z M98,84.4c4.4,0.3,5,0.5,5,1.7c0,1.4-1.8,2.3-4.1,2.3c-1.9,0-3-0.7-3-2c0-0.8,0.3-1.4,1-2.1L98,84.4L98,84.4z"/>
	<path class="st0" d="M109.5,76.3c0.3-3,1.1-4.3,2.4-4.3s1.9,1.3,1.9,4.3H109.5L109.5,76.3z M124.6,55.7v-1.2l-1.5-0.3v-8.6
		c0-2.6-1.1-3.9-3.4-3.9c-1.2,0-2.1,0.4-3.7,1.7v-8.6h-0.8l-3.5,0.7v1l1.6,0.3v17.4l-1.7,0.3v1.1h5.8v-1.2l-1.4-0.3v-9.2
		c1.1-1,1.8-1.3,2.6-1.3c1.2,0,1.7,0.7,1.7,2.8v7.7l-1.4,0.3v1.1L124.6,55.7L124.6,55.7z M130.8,41.7H130l-3.4,0.9v0.9l1.6,0.3v10.5
		l-1.7,0.3v1.1h6.3v-1.2l-2-0.3v-7.5c0-0.8,0.8-1.9,1.8-2.4l1.5,0.8c0.7-0.6,1.1-1.1,1.1-1.7c0-1-0.6-1.7-1.6-1.7
		c-1,0-1.6,0.5-2.7,2.5L130.8,41.7L130.8,41.7z M139.3,34.9c-1,0-1.8,0.8-1.8,1.8s0.8,1.8,1.8,1.8s1.8-0.8,1.8-1.8
		C141.1,35.7,140.3,34.9,139.3,34.9L139.3,34.9z M142.5,55.7v-1.2l-1.6-0.3V41.8h-0.7l-3.6,0.9v1l1.5,0.3v10.2l-1.5,0.3v1.1H142.5
		L142.5,55.7z M116.8,77.6c-0.1-1.9-0.2-2.8-0.4-3.5c-0.7-2.2-2.2-3.4-4.4-3.4c-3.3,0-5.3,2.8-5.3,7.5c0,4.4,1.9,6.9,5.3,6.9
		c2.2,0,3.4-0.8,4.7-3.3l-1.3-0.5c-0.8,1.3-1.6,1.8-2.7,1.8c-2.1,0-3-1.6-3.3-5.5H116.8L116.8,77.6z M124.4,84.8v-1.2l-1.5-0.3V63.9
		h-0.7l-3.6,0.8v1l1.6,0.2v17.5l-1.7,0.3v1.1H124.4L124.4,84.8z M139.3,84.8v-1.2l-1.5-0.3v-8.8c0-2.3-1.2-3.6-3.3-3.6
		c-1.3,0-2.2,0.4-3.8,1.7v-8.7h-0.7l-3.6,0.8v1l1.6,0.3v17.4l-1.7,0.3v1.1h5.8v-1.2l-1.4-0.3v-9.1c1.1-1,1.8-1.3,2.6-1.3
		c1.2,0,1.6,0.7,1.6,2.8v7.7l-1.4,0.3v1.1L139.3,84.8L139.3,84.8z M151.2,77.6c-0.1-1.9-0.2-2.8-0.4-3.5c-0.7-2.2-2.2-3.4-4.4-3.4
		c-3.3,0-5.3,2.8-5.3,7.5c0,4.4,1.9,6.9,5.4,6.9c2.2,0,3.4-0.8,4.7-3.3l-1.3-0.5c-0.9,1.3-1.6,1.8-2.7,1.8c-2.1,0-3-1.6-3.3-5.5
		H151.2L151.2,77.6z M143.9,76.3c0.3-3,1.1-4.3,2.4-4.3s1.9,1.3,1.9,4.3H143.9L143.9,76.3z"/>
	<path class="st0" d="M164.3,42.7c1.4,0,2.1,1.2,2.1,3.7c0,2.1-0.6,3.2-1.9,3.2c-1.4,0-1.9-1.1-1.9-3.5
		C162.5,43.8,163.1,42.7,164.3,42.7L164.3,42.7z M157.4,55.7v-1.2l-1.5-0.3v-8.8c0-2.3-1.2-3.7-3.4-3.7c-1.3,0-2.1,0.3-3.8,1.7v-1.7
		H148l-3.5,0.9v1.1l1.6,0.2v10.3l-1.6,0.3v1.1h5.9v-1.2l-1.5-0.3v-9.3c1.1-0.9,1.8-1.3,2.7-1.3c1.1,0,1.6,0.7,1.6,2.3v8.3l-1.5,0.3
		v1.1L157.4,55.7L157.4,55.7z M170.6,43.6v-1.7l-2.3,0.1h-0.5c-0.2,0.1-0.5,0.1-0.5,0.1c-0.3,0-0.7-0.1-1.3-0.2
		c-1-0.2-1.3-0.3-1.8-0.3c-2.7,0-4.7,2-4.7,4.7c0,1.8,0.6,2.8,2.3,3.9c-1.8,1.1-2.6,2-2.6,3c0,0.8,0.5,1.4,1.6,1.8
		c-1.6,1-2.2,1.8-2.2,3c0,1.8,2,2.9,5.1,2.9c4.1,0,6.8-1.9,6.8-5c0-2.1-1.3-3.1-3.9-3.2l-3.4-0.2c-0.9-0.1-1.2-0.2-1.2-0.6
		c0-0.3,0.4-0.7,1.1-1.2c0.5,0.2,1,0.2,1.5,0.2c2.7,0,4.8-1.9,4.8-4.5c0-1.1-0.2-1.8-1-2.8L170.6,43.6L170.6,43.6z M162.4,55.2
		c5.6,0.3,6.1,0.5,6.1,1.8c0,1.3-1.8,2.3-4.1,2.3c-1.9,0-3-0.7-3-2C161.4,56.5,161.7,55.9,162.4,55.2L162.4,55.2z M182.3,48.6
		c-0.1-4.7-1.6-7-4.8-7c-3.3,0-5.3,2.8-5.3,7.6c0,4.4,1.9,6.9,5.4,6.9c2.2,0,3.2-0.7,4.7-3.3l-1.3-0.5c-0.9,1.3-1.6,1.8-2.6,1.8
		c-2.1,0-3-1.6-3.3-5.5L182.3,48.6L182.3,48.6z M175.1,47.2c0.3-3,1-4.3,2.3-4.3s1.9,1.2,2,4.3H175.1L175.1,47.2z M188.9,41.7h-0.9
		l-3.4,0.9v0.9l1.6,0.3v10.5l-1.6,0.3v1.1h6.3v-1.2l-2-0.3v-7.5c0-0.8,0.8-1.9,1.8-2.4l1.5,0.8c0.7-0.6,1.1-1.1,1.1-1.7
		c0-1-0.6-1.7-1.6-1.7c-1,0-1.6,0.5-2.7,2.5L188.9,41.7L188.9,41.7z M156.2,63.9c-1.1,0-1.9,0.9-1.9,1.9c0,1,0.8,1.8,1.8,1.8
		s1.9-0.8,1.9-1.9C158,64.7,157.2,63.9,156.2,63.9L156.2,63.9z M159.3,84.8v-1.2l-1.6-0.3V70.9H157l-3.6,0.9v0.9L155,73v10.3
		l-1.5,0.3v1.1L159.3,84.8l22.3,0v-1.2l-1.6-0.3v-8.4c0-2.8-1-4-3.5-4c-1.5,0-2.4,0.5-3.9,1.9c-0.8-1.3-1.8-1.8-3.2-1.8
		c-1.4,0-2.4,0.4-3.9,1.7v-1.9h-0.7l-3.6,0.9v1l1.6,0.3v10.5l-1.6,0.3v1.1h5.8v-1.2l-1.3-0.3v-9.2c1-1,1.6-1.3,2.6-1.3
		c1.3,0,1.8,0.8,1.8,2.6v8l-1.6,0.3v1.1h5.8v-1.2l-1.4-0.3v-9.1c1.1-1,1.8-1.4,2.7-1.4c1.2,0,1.7,0.7,1.7,2.6v7.9l-1.5,0.3v1.1h5.9
		H159.3L159.3,84.8z"/>
</g>
</svg>
