<?xml version="1.0" encoding="utf-8"?>
<!-- Generator: Adobe Illustrator 24.1.2, SVG Export Plug-In . SVG Version: 6.00 Build 0)  -->
<svg version="1.1" id="Layer_1" xmlns="http://www.w3.org/2000/svg" xmlns:xlink="http://www.w3.org/1999/xlink" x="0px" y="0px"
	 viewBox="0 0 156.5 96.2" style="enable-background:new 0 0 156.5 96.2;" xml:space="preserve">
<style type="text/css">
	.st0{fill:#FFFFFF;}
</style>
<g>
	<path class="st0" d="M20.9,19.2c0.1,0.1,0.2,0.3,0.2,0.5v2.9c0,0.2-0.1,0.4-0.2,0.5c-0.1,0.1-0.3,0.2-0.5,0.2h-8.2v3.7h7.6
		c0.2,0,0.4,0.1,0.5,0.2c0.1,0.1,0.2,0.3,0.2,0.5v2.9c0,0.2-0.1,0.4-0.2,0.5c-0.1,0.1-0.3,0.2-0.5,0.2h-7.6v5.9
		c0,0.2-0.1,0.4-0.2,0.5c-0.1,0.1-0.3,0.2-0.5,0.2H7.8c-0.2,0-0.4-0.1-0.5-0.2s-0.2-0.3-0.2-0.5V19.7c0-0.2,0.1-0.4,0.2-0.5
		c0.1-0.1,0.3-0.2,0.5-0.2h12.5C20.5,18.9,20.7,19,20.9,19.2z"/>
	<path class="st0" d="M23.7,24.1c0.1-0.1,0.3-0.2,0.5-0.2h3.4c0.2,0,0.4,0.1,0.5,0.2c0.1,0.1,0.2,0.3,0.2,0.5v6.9
		c0,0.8,0.2,1.5,0.5,1.9c0.4,0.5,0.9,0.7,1.7,0.7c1.5,0,2.2-0.9,2.2-2.6v-6.9c0-0.2,0.1-0.4,0.2-0.5c0.1-0.1,0.3-0.2,0.5-0.2h3.4
		c0.2,0,0.4,0.1,0.5,0.2c0.1,0.1,0.2,0.3,0.2,0.5v12.7c0,0.2-0.1,0.4-0.2,0.5s-0.3,0.2-0.5,0.2h-3.2c-0.2,0-0.4-0.1-0.5-0.2
		s-0.2-0.3-0.2-0.5v-0.6c-0.4,0.5-0.9,0.9-1.5,1.2c-0.6,0.3-1.4,0.5-2.4,0.5c-1.8,0-3.2-0.5-4.3-1.6c-1-1-1.5-2.6-1.5-4.7v-7.5
		C23.5,24.4,23.6,24.2,23.7,24.1z"/>
	<path class="st0" d="M55.3,37.9c-0.1,0.1-0.3,0.2-0.5,0.2h-3.4c-0.2,0-0.4-0.1-0.5-0.2c-0.1-0.1-0.2-0.3-0.2-0.5v-6.9
		c0-0.8-0.2-1.4-0.6-1.9c-0.4-0.5-1-0.7-1.8-0.7c-0.8,0-1.4,0.2-1.8,0.7c-0.4,0.5-0.6,1.1-0.6,1.9v6.9c0,0.2-0.1,0.4-0.2,0.5
		s-0.3,0.2-0.5,0.2h-3.4c-0.2,0-0.4-0.1-0.5-0.2c-0.1-0.1-0.2-0.3-0.2-0.5V24.6c0-0.2,0.1-0.4,0.2-0.5c0.1-0.1,0.3-0.2,0.5-0.2H45
		c0.2,0,0.4,0.1,0.5,0.2c0.1,0.1,0.2,0.3,0.2,0.5v0.6c0.9-1.1,2.1-1.6,3.9-1.6c1.8,0,3.3,0.5,4.3,1.6c1.1,1,1.6,2.6,1.6,4.7v7.5
		C55.6,37.6,55.5,37.7,55.3,37.9z"/>
	<path class="st0" d="M67.8,19.4c0-0.2,0.1-0.4,0.2-0.5c0.1-0.1,0.3-0.2,0.5-0.2H72c0.2,0,0.4,0.1,0.5,0.2c0.1,0.1,0.2,0.3,0.2,0.5
		v17.9c0,0.2-0.1,0.4-0.2,0.5c-0.1,0.1-0.3,0.2-0.5,0.2h-3.3c-0.2,0-0.4-0.1-0.5-0.2C68,37.7,68,37.6,68,37.3v-0.6
		c-0.3,0.3-0.6,0.6-0.8,0.8c-0.3,0.2-0.6,0.4-1.1,0.6c-0.5,0.2-1.1,0.2-1.8,0.2c-1.7,0-3.2-0.5-4.3-1.6c-1.1-1.1-1.7-2.6-1.8-4.7
		l0-1.1l0-1.1c0.1-2.1,0.7-3.6,1.8-4.7c1.1-1.1,2.6-1.6,4.3-1.6c0.9,0,1.7,0.2,2.3,0.5c0.6,0.3,1,0.7,1.4,1.1V19.4z M63.6,33.5
		c0.4,0.4,1,0.7,1.8,0.7c0.7,0,1.3-0.2,1.7-0.6c0.4-0.4,0.6-0.9,0.7-1.6c0-0.2,0.1-0.5,0.1-1c0-0.5,0-0.8-0.1-1
		c-0.1-0.6-0.3-1.1-0.7-1.5c-0.4-0.4-1-0.6-1.7-0.6c-0.8,0-1.4,0.2-1.8,0.7c-0.4,0.4-0.6,1-0.7,1.7c0,0.2,0,0.4,0,0.8
		c0,0.3,0,0.6,0,0.8C63,32.5,63.2,33,63.6,33.5z"/>
	<path class="st0" d="M84.1,28.8c0-1-0.5-1.5-1.6-1.5c-0.6,0-1.1,0.2-1.5,0.5c-0.1,0.1-0.3,0.2-0.4,0.3c-0.1,0-0.3,0.1-0.5,0.1h-3.5
		c-0.2,0-0.3-0.1-0.5-0.2c-0.1-0.1-0.2-0.3-0.2-0.4c0.1-0.6,0.4-1.2,0.9-1.8c0.6-0.6,1.4-1.1,2.3-1.5c1-0.4,2.1-0.6,3.3-0.6
		c2.2,0,3.8,0.5,4.9,1.5c1.1,1,1.6,2.3,1.6,4v8.3c0,0.2-0.1,0.4-0.2,0.5c-0.1,0.1-0.3,0.2-0.5,0.2h-3.4c-0.2,0-0.4-0.1-0.5-0.2
		c-0.1-0.1-0.2-0.3-0.2-0.5v-0.8c-0.5,0.6-1,1-1.7,1.3c-0.7,0.3-1.5,0.5-2.5,0.5c-1.5,0-2.7-0.4-3.6-1.2C75.4,36.4,75,35.3,75,34
		c0-1.2,0.5-2.2,1.4-3c0.9-0.8,2.4-1.3,4.5-1.7L84.1,28.8z M81.6,32.4c-0.5,0.1-0.9,0.3-1.2,0.5c-0.3,0.2-0.4,0.5-0.4,0.8
		c0,0.6,0.4,0.9,1.3,0.9c0.8,0,1.5-0.3,2-0.8c0.5-0.5,0.8-1.1,0.8-1.9L81.6,32.4z"/>
	<path class="st0" d="M97.1,33.5c0.4,0.4,1,0.6,1.7,0.6c0.6,0,1-0.1,1.3-0.2c0.3-0.2,0.6-0.4,0.8-0.7c0.1-0.2,0.2-0.3,0.3-0.4
		c0.1-0.1,0.3-0.1,0.5-0.1h3.6c0.2,0,0.4,0.1,0.5,0.2c0.1,0.1,0.2,0.3,0.2,0.5c0,0.5-0.2,1.2-0.7,2c-0.5,0.8-1.2,1.5-2.3,2.1
		c-1.1,0.6-2.5,1-4.3,1c-1.4,0-2.6-0.3-3.7-0.8c-1.1-0.5-2-1.3-2.7-2.2c-0.7-0.9-1-2.1-1.1-3.3l0-1.1l0-1.1c0-1.3,0.4-2.4,1.1-3.3
		c0.7-0.9,1.6-1.7,2.7-2.2c1.1-0.5,2.3-0.8,3.7-0.8c1.8,0,3.2,0.3,4.2,0.9s1.8,1.3,2.3,2.1c0.5,0.8,0.7,1.4,0.7,2
		c0,0.2-0.1,0.4-0.2,0.5c-0.2,0.1-0.3,0.2-0.5,0.2h-3.6c-0.2,0-0.3,0-0.5-0.1c-0.1-0.1-0.2-0.2-0.3-0.4c-0.2-0.3-0.5-0.6-0.8-0.7
		c-0.3-0.2-0.8-0.2-1.3-0.2c-0.7,0-1.3,0.2-1.7,0.6s-0.7,0.9-0.8,1.6c0,0.2,0,0.5,0,1c0,0.5,0,0.8,0,1
		C96.4,32.6,96.7,33.1,97.1,33.5z"/>
	<path class="st0" d="M113.2,22.1c-0.1,0.1-0.3,0.2-0.5,0.2h-3.4c-0.2,0-0.4-0.1-0.5-0.2c-0.1-0.1-0.2-0.3-0.2-0.5v-2.8
		c0-0.2,0.1-0.4,0.2-0.5c0.1-0.1,0.3-0.2,0.5-0.2h3.4c0.2,0,0.4,0.1,0.5,0.2c0.1,0.1,0.2,0.3,0.2,0.5v2.8
		C113.4,21.8,113.3,22,113.2,22.1z M113.2,37.9c-0.1,0.1-0.3,0.2-0.5,0.2h-3.4c-0.2,0-0.4-0.1-0.5-0.2c-0.1-0.1-0.2-0.3-0.2-0.5
		V24.6c0-0.2,0.1-0.4,0.2-0.5c0.1-0.1,0.3-0.2,0.5-0.2h3.4c0.2,0,0.4,0.1,0.5,0.2c0.1,0.1,0.2,0.3,0.2,0.5v12.7
		C113.4,37.6,113.3,37.7,113.2,37.9z"/>
	<path class="st0" d="M129.8,35.2c-0.6,1-1.5,1.7-2.6,2.3c-1.1,0.6-2.4,0.8-3.8,0.8c-1.4,0-2.7-0.3-3.8-0.8c-1.1-0.6-2-1.3-2.6-2.3
		c-0.6-1-1-2-1-3.2l0-1.1l0-1c0-1.2,0.4-2.2,1-3.2c0.6-1,1.5-1.7,2.6-2.3c1.1-0.6,2.4-0.8,3.8-0.8c1.4,0,2.7,0.3,3.8,0.8
		c1.1,0.6,2,1.3,2.6,2.3c0.6,1,0.9,2,1,3.2c0,0.2,0,0.5,0,1c0,0.5,0,0.9,0,1.1C130.8,33.2,130.5,34.3,129.8,35.2z M125.2,33.5
		c0.4-0.4,0.7-0.9,0.8-1.6c0-0.4,0.1-0.7,0.1-0.9c0-0.3,0-0.6-0.1-0.9c-0.1-0.7-0.3-1.2-0.8-1.6c-0.4-0.4-1-0.6-1.8-0.6
		c-0.7,0-1.3,0.2-1.8,0.6s-0.7,0.9-0.8,1.6c0,0.2,0,0.5,0,0.9c0,0.4,0,0.7,0,0.9c0.1,0.7,0.3,1.2,0.8,1.6c0.4,0.4,1,0.6,1.8,0.6
		C124.1,34.1,124.7,33.9,125.2,33.5z M124.5,17.5c0.1-0.1,0.3-0.1,0.5-0.1h3.6c0.2,0,0.3,0.1,0.4,0.2c0.1,0.1,0.1,0.2,0.1,0.4
		c0,0.1,0,0.2-0.1,0.3l-3.7,3c-0.2,0.2-0.4,0.3-0.5,0.4c-0.2,0.1-0.4,0.1-0.6,0.1h-2.4c-0.3,0-0.4-0.1-0.4-0.4c0-0.1,0-0.3,0.1-0.4
		L124,18C124.2,17.7,124.4,17.6,124.5,17.5z"/>
	<path class="st0" d="M147.8,37.9c-0.1,0.1-0.3,0.2-0.5,0.2h-3.4c-0.2,0-0.4-0.1-0.5-0.2c-0.1-0.1-0.2-0.3-0.2-0.5v-6.9
		c0-0.8-0.2-1.4-0.6-1.9c-0.4-0.5-1-0.7-1.8-0.7c-0.8,0-1.4,0.2-1.8,0.7c-0.4,0.5-0.6,1.1-0.6,1.9v6.9c0,0.2-0.1,0.4-0.2,0.5
		c-0.1,0.1-0.3,0.2-0.5,0.2h-3.4c-0.2,0-0.4-0.1-0.5-0.2c-0.1-0.1-0.2-0.3-0.2-0.5V24.6c0-0.2,0.1-0.4,0.2-0.5
		c0.1-0.1,0.3-0.2,0.5-0.2h3.3c0.2,0,0.4,0.1,0.5,0.2c0.1,0.1,0.2,0.3,0.2,0.5v0.6c0.9-1.1,2.1-1.6,3.9-1.6c1.8,0,3.3,0.5,4.3,1.6
		c1.1,1,1.6,2.6,1.6,4.7v7.5C148,37.6,147.9,37.7,147.8,37.9z"/>
	<path class="st0" d="M48.5,69.9c0.1,0.2,0.1,0.3,0.1,0.4c0,0.2-0.1,0.3-0.2,0.4c-0.1,0.1-0.3,0.2-0.4,0.2h-3.4
		c-0.3,0-0.6-0.1-0.7-0.2c-0.2-0.1-0.3-0.3-0.3-0.5l-0.8-2.3h-7.3l-0.8,2.3c-0.1,0.2-0.2,0.3-0.3,0.5c-0.2,0.1-0.4,0.2-0.7,0.2h-3.4
		c-0.2,0-0.3-0.1-0.4-0.2c-0.1-0.1-0.2-0.3-0.2-0.4c0-0.1,0-0.2,0.1-0.4l6-17.2c0.1-0.3,0.2-0.5,0.4-0.6c0.2-0.2,0.5-0.3,0.8-0.3
		h4.4c0.3,0,0.6,0.1,0.8,0.3c0.2,0.2,0.3,0.4,0.4,0.6L48.5,69.9z M41.3,63.7l-2.2-6.6l-2.2,6.6H41.3z"/>
	<path class="st0" d="M64.8,70.7c-0.1,0.1-0.3,0.2-0.5,0.2h-3.4c-0.2,0-0.4-0.1-0.5-0.2c-0.1-0.1-0.2-0.3-0.2-0.5v-6.9
		c0-0.8-0.2-1.4-0.6-1.9c-0.4-0.5-1-0.7-1.8-0.7c-0.8,0-1.4,0.2-1.8,0.7c-0.4,0.5-0.6,1.1-0.6,1.9v6.9c0,0.2-0.1,0.4-0.2,0.5
		c-0.1,0.1-0.3,0.2-0.5,0.2h-3.4c-0.2,0-0.4-0.1-0.5-0.2c-0.1-0.1-0.2-0.3-0.2-0.5V57.4c0-0.2,0.1-0.4,0.2-0.5
		c0.1-0.1,0.3-0.2,0.5-0.2h3.3c0.2,0,0.4,0.1,0.5,0.2c0.1,0.1,0.2,0.3,0.2,0.5V58c0.9-1.1,2.1-1.6,3.9-1.6c1.8,0,3.3,0.5,4.3,1.6
		c1.1,1,1.6,2.6,1.6,4.7v7.5C65.1,70.4,65,70.5,64.8,70.7z"/>
	<path class="st0" d="M77.3,52.2c0-0.2,0.1-0.4,0.2-0.5c0.1-0.1,0.3-0.2,0.5-0.2h3.4c0.2,0,0.4,0.1,0.5,0.2c0.1,0.1,0.2,0.3,0.2,0.5
		v17.9c0,0.2-0.1,0.4-0.2,0.5c-0.1,0.1-0.3,0.2-0.5,0.2h-3.3c-0.2,0-0.4-0.1-0.5-0.2c-0.1-0.1-0.2-0.3-0.2-0.5v-0.6
		c-0.3,0.3-0.6,0.6-0.8,0.8c-0.3,0.2-0.6,0.4-1.1,0.6c-0.5,0.2-1.1,0.2-1.8,0.2c-1.7,0-3.2-0.5-4.3-1.6c-1.1-1.1-1.7-2.6-1.8-4.7
		l0-1.1l0-1.1c0.1-2.1,0.7-3.6,1.8-4.7c1.1-1.1,2.6-1.6,4.3-1.6c0.9,0,1.7,0.2,2.3,0.5c0.6,0.3,1,0.7,1.4,1.1V52.2z M73.1,66.3
		c0.4,0.4,1,0.7,1.8,0.7c0.7,0,1.3-0.2,1.7-0.6c0.4-0.4,0.6-0.9,0.7-1.6c0-0.2,0.1-0.5,0.1-1c0-0.5,0-0.8-0.1-1
		c-0.1-0.6-0.3-1.1-0.7-1.5c-0.4-0.4-1-0.6-1.7-0.6c-0.8,0-1.4,0.2-1.8,0.7s-0.6,1-0.7,1.7c0,0.2,0,0.4,0,0.8c0,0.3,0,0.6,0,0.8
		C72.5,65.3,72.7,65.8,73.1,66.3z"/>
	<path class="st0" d="M90.1,55c-0.1,0.1-0.3,0.2-0.5,0.2h-3.4c-0.2,0-0.4-0.1-0.5-0.2c-0.1-0.1-0.2-0.3-0.2-0.5v-2.8
		c0-0.2,0.1-0.4,0.2-0.5c0.1-0.1,0.3-0.2,0.5-0.2h3.4c0.2,0,0.4,0.1,0.5,0.2c0.1,0.1,0.2,0.3,0.2,0.5v2.8
		C90.3,54.6,90.3,54.8,90.1,55z M90.1,70.7c-0.1,0.1-0.3,0.2-0.5,0.2h-3.4c-0.2,0-0.4-0.1-0.5-0.2c-0.1-0.1-0.2-0.3-0.2-0.5V57.4
		c0-0.2,0.1-0.4,0.2-0.5c0.1-0.1,0.3-0.2,0.5-0.2h3.4c0.2,0,0.4,0.1,0.5,0.2c0.1,0.1,0.2,0.3,0.2,0.5v12.7
		C90.3,70.4,90.3,70.5,90.1,70.7z"/>
	<path class="st0" d="M107.9,70.7c-0.1,0.1-0.3,0.2-0.5,0.2h-3.4c-0.2,0-0.4-0.1-0.5-0.2c-0.1-0.1-0.2-0.3-0.2-0.5v-6.9
		c0-0.8-0.2-1.4-0.6-1.9s-1-0.7-1.8-0.7c-0.8,0-1.4,0.2-1.8,0.7c-0.4,0.5-0.6,1.1-0.6,1.9v6.9c0,0.2-0.1,0.4-0.2,0.5
		c-0.1,0.1-0.3,0.2-0.5,0.2h-3.4c-0.2,0-0.4-0.1-0.5-0.2c-0.1-0.1-0.2-0.3-0.2-0.5V57.4c0-0.2,0.1-0.4,0.2-0.5
		c0.1-0.1,0.3-0.2,0.5-0.2h3.3c0.2,0,0.4,0.1,0.5,0.2c0.1,0.1,0.2,0.3,0.2,0.5V58c0.9-1.1,2.1-1.6,3.9-1.6c1.8,0,3.3,0.5,4.3,1.6
		c1.1,1,1.6,2.6,1.6,4.7v7.5C108.1,70.4,108,70.5,107.9,70.7z"/>
	<path class="st0" d="M119.3,61.6c0-1-0.5-1.5-1.6-1.5c-0.6,0-1.1,0.2-1.5,0.5c-0.1,0.1-0.3,0.2-0.4,0.3c-0.1,0-0.3,0.1-0.5,0.1
		h-3.5c-0.2,0-0.3-0.1-0.5-0.2c-0.1-0.1-0.2-0.3-0.2-0.4c0.1-0.6,0.4-1.2,0.9-1.8c0.6-0.6,1.4-1.1,2.3-1.5s2.1-0.6,3.3-0.6
		c2.2,0,3.8,0.5,4.9,1.5c1.1,1,1.6,2.3,1.6,4v8.3c0,0.2-0.1,0.4-0.2,0.5c-0.1,0.1-0.3,0.2-0.5,0.2H120c-0.2,0-0.4-0.1-0.5-0.2
		c-0.1-0.1-0.2-0.3-0.2-0.5v-0.8c-0.5,0.6-1,1-1.7,1.3c-0.7,0.3-1.5,0.5-2.5,0.5c-1.5,0-2.7-0.4-3.6-1.2c-0.9-0.8-1.3-1.8-1.3-3.1
		c0-1.2,0.5-2.2,1.4-3c0.9-0.8,2.4-1.3,4.5-1.7L119.3,61.6z M116.8,65.2c-0.5,0.1-0.9,0.3-1.2,0.5c-0.3,0.2-0.4,0.5-0.4,0.8
		c0,0.6,0.4,0.9,1.3,0.9c0.8,0,1.5-0.3,2-0.8c0.5-0.5,0.8-1.1,0.8-1.9L116.8,65.2z"/>
</g>
</svg>
