<?xml version="1.0" encoding="utf-8"?>
<!-- Generator: Adobe Illustrator 24.1.2, SVG Export Plug-In . SVG Version: 6.00 Build 0)  -->
<svg version="1.1" id="Layer_1" xmlns="http://www.w3.org/2000/svg" xmlns:xlink="http://www.w3.org/1999/xlink" x="0px" y="0px"
	 viewBox="0 0 183.58 158.48" style="enable-background:new 0 0 183.58 158.48;" xml:space="preserve">
<style type="text/css">
	.st0{fill-rule:evenodd;clip-rule:evenodd;}
</style>
<g>
	<path class="st0" d="M21.26,77.89l-1.15,7.62h5.31c-0.85,1.97-3.34,2.82-5.18,2.82c-3.81,0-5.53-3.34-4.99-6.89
		c0.59-3.9,3.44-7.49,7.64-7.49c1.88,0,3.42,0.86,4.07,2.48l11.56-4.02c-1.69-5.52-8.97-8.3-14.57-8.3
		c-10.14,0-18.84,6.33-20.44,16.86C1.94,91.32,8.98,97.4,18.82,97.4c5.01,0,10.57-2.01,14.56-5.74c4.43-4.11,5.1-8.51,5.98-13.77
		H21.26L21.26,77.89L21.26,77.89z"/>
	<path class="st0" d="M38.11,96.88h11.04l3.44-22.72H41.55L38.11,96.88L38.11,96.88L38.11,96.88L38.11,96.88z M48.94,61.84
		c-3.47,0-6.38,2.01-6.88,5.3c-0.56,3.72,2.1,5.35,5.26,5.35c3.17,0,6.32-1.63,6.89-5.35C54.71,63.85,52.4,61.84,48.94,61.84
		L48.94,61.84L48.94,61.84z"/>
	<polygon class="st0" points="52.84,96.88 63.88,96.88 69.13,62.19 58.1,62.19 52.84,96.88 52.84,96.88 	"/>
	<polygon class="st0" points="67.19,96.88 78.23,96.88 83.48,62.19 72.45,62.19 67.19,96.88 67.19,96.88 	"/>
	<path class="st0" d="M108.95,87.39c1.85-8.51-3.74-13.73-11.82-13.73c-7.23,0-13.76,4.71-14.9,12.24
		c-1.19,7.83,4.8,11.51,11.95,11.51c5.22,0,11.72-2.53,14.01-8H97.43c-0.38,1.07-1.35,1.88-2.51,1.88c-2.31,0-2.3-2.05-2.02-3.89
		H108.95L108.95,87.39L108.95,87.39L108.95,87.39z M93.61,82.68c0.24-1.58,1.26-2.95,2.93-2.95c1.58,0,2.48,1.41,2.25,2.95H93.61
		L93.61,82.68L93.61,82.68z"/>
	<polygon class="st0" points="126.53,66.85 115.41,66.85 114.25,74.46 111.58,74.29 110.27,82.98 113,82.76 110.86,96.88 
		121.98,96.88 124.12,82.76 127.77,82.98 129.08,74.29 125.38,74.46 126.53,66.85 126.53,66.85 	"/>
	<polygon class="st0" points="145.13,66.85 134.01,66.85 132.85,74.46 130.19,74.29 128.87,82.98 131.6,82.76 129.46,96.88 
		140.58,96.88 142.72,82.76 146.37,82.98 147.68,74.29 143.98,74.46 145.13,66.85 145.13,66.85 	"/>
	<path class="st0" d="M173.04,87.39c1.84-8.51-3.74-13.73-11.82-13.73c-7.23,0-13.76,4.71-14.9,12.24
		c-1.19,7.83,4.8,11.51,11.95,11.51c5.22,0,11.72-2.53,14-8h-10.74c-0.38,1.07-1.36,1.88-2.51,1.88c-2.31,0-2.3-2.05-2.02-3.89
		H173.04L173.04,87.39L173.04,87.39L173.04,87.39z M157.7,82.68c0.24-1.58,1.26-2.95,2.93-2.95c1.59,0,2.48,1.41,2.25,2.95H157.7
		L157.7,82.68L157.7,82.68z"/>
	<path class="st0" d="M175.82,72.69c1.79,0,3.22-1.44,3.22-3.23c0-1.8-1.43-3.24-3.22-3.24c-1.8,0-3.23,1.44-3.23,3.24
		C172.59,71.25,174.02,72.69,175.82,72.69L175.82,72.69L175.82,72.69L175.82,72.69z M175.82,71.92c-1.41,0-2.46-1.03-2.46-2.46
		c0-1.45,1.05-2.48,2.46-2.48c1.39,0,2.46,1.03,2.46,2.48C178.28,70.9,177.2,71.92,175.82,71.92L175.82,71.92L175.82,71.92
		L175.82,71.92z M176.55,69.68c0.59-0.04,0.91-0.29,0.91-0.91c0-0.89-0.53-1.03-1.3-1.03h-1.63v3.36h0.75v-1.42h0.52l0.75,1.42h0.81
		L176.55,69.68L176.55,69.68L176.55,69.68L176.55,69.68z M175.28,69.18v-0.85H176c0.33,0,0.76,0,0.76,0.34
		c0,0.42-0.21,0.51-0.59,0.51H175.28L175.28,69.18L175.28,69.18z"/>
</g>
</svg>
