<?xml version="1.0" encoding="utf-8"?>
<!-- Generator: Adobe Illustrator 24.1.2, SVG Export Plug-In . SVG Version: 6.00 Build 0)  -->
<svg version="1.1" id="Layer_1" xmlns="http://www.w3.org/2000/svg" xmlns:xlink="http://www.w3.org/1999/xlink" x="0px" y="0px"
	 viewBox="0 0 175 113.2" style="enable-background:new 0 0 175 113.2;" xml:space="preserve">
<style type="text/css">
	.st0{fill-rule:evenodd;clip-rule:evenodd;fill:#FFFFFF;}
</style>
<path class="st0" d="M165.6,39.3l-2.2,1c-0.9,0.4-1.8,0.7-2.6,1c-2.3,0.7-5.7,1.1-10.1,1.3H84.5c-1.3-3.5-3.4-6.4-6.3-8.7
	c-4.1-3.3-9.3-5-15.7-5c-7.2,0-13.9,1.6-20.3,4.9c-2.5,1.3-4.8,2.8-6.9,4.5c-1.8,1.5-3.2,2.9-4.2,4.3h-5.8c-3.3-0.2-6.2,0.3-8.5,1.3
	c-2.5,1.1-4.3,2.8-5.3,5.2L4.9,71.1c-0.5,2.1,0.1,3.3,1.8,3.5c0.5,0.1,1-0.1,1.7-0.3l2.4-1.2c1.6-0.6,2.7-1.1,3.4-1.3
	c1.4-0.4,3.1-0.6,5-0.7h3.9c0.4,1.3,1,2.7,1.8,4.1c1.1,1.7,2.4,3.3,3.9,4.6c4.1,3.5,9.3,5.3,15.7,5.3c7.1,0,13.9-1.6,20.2-4.7
	c4.8-2.4,8.9-5.5,12.5-9.3h71.3c2.2,0,4.4-0.5,6.6-1.6c2.9-1.4,4.8-3.4,5.7-6.1l8.1-22.8C169,38.7,167.8,38.2,165.6,39.3z
	 M37.7,39.5c1.8-1.3,3.8-2.6,5.8-3.6c5.9-3,12.2-4.5,18.9-4.5c5.7,0,10.4,1.4,14.1,4.4c2.2,1.8,3.9,4.1,5,6.7H69.6
	c-1.3,0-2.3,0.1-2.9,0.3c-1,0.3-2,1-2.9,2.1L53.2,57.4L53,52.5L52.7,46c-0.1-1.5-0.6-2.5-1.5-3c-0.7-0.4-1.8-0.5-3.2-0.5H34.5
	C35.3,41.6,36.4,40.6,37.7,39.5z M20.2,68.4c-1.7,0.1-3.3,0.2-4.9,0.5c-1.5,0.3-2.7,0.6-3.6,1l-2.2,1c-0.6,0.3-1,0.2-1.2-0.1
	c-0.1-0.2,0-1,0.4-2.3l5.4-18.1c0.8-2,2.3-3.4,4.3-4.3c1.9-0.8,4.2-1.1,7-1l12.8,0c2,0,2.6,0.8,1.8,2.5l-8.5,17.5
	c-0.5,1.1-1,1.9-1.6,2.4c-0.8,0.7-1.6,1.1-2.6,1.1C27,68.4,20.2,68.4,20.2,68.4z M73.1,71.4l-1.5,1.3c-1.7,1.4-3.6,2.7-5.7,3.9
	c-6.6,3.8-13.7,5.6-21.3,5.6c-4.5,0-8.5-1.1-11.9-3.2c-3.3-2-5.6-4.8-6.8-8.3h12.9c-2.1-1.3-2.6-3.1-1.5-5.4L44,52.6l1.9,18.3
	c0.1,0.5,0.3,0.8,0.7,0.8c0.4,0.1,0.8-0.2,1.3-0.8l15.6-18.5l-2.2,12c-0.3,1.4-0.7,2.6-1.4,3.5c-0.7,1-1.9,2-3.6,2.9h17.2L73.1,71.4
	z M165.2,43.5L157.7,63c-0.8,1.9-2.4,3.3-4.8,4.2c-2,0.8-4.1,1.1-6.5,1.1l-70.2,0.1l-2.7-0.1c-0.8-0.1-1.4-0.2-1.8-0.4
	c-0.4-0.3-0.7-0.6-0.9-1c-0.2-0.5-0.2-1.1-0.1-1.9L73,47.9c0.3-1.2,0.8-2,1.3-2.5c0.5-0.4,1.4-0.6,2.6-0.6l75.6,0l5.3-0.4
	c1.8-0.3,3.1-0.6,3.9-1l2.3-0.9h1.2C165.4,42.6,165.3,43,165.2,43.5z"/>
<path class="st0" d="M96.7,63.9c-0.2-0.2-0.2-0.4-0.2-0.6l4.8-15l-6.9,2.1l-0.1,0.2c1.1,0.5,1.4,1.2,1.1,2.3l-3.3,10.4
	c-0.1,0.2-0.3,0.4-0.6,0.7c-0.2,0.2-0.6,0.3-1.2,0.5l-1,0.4h8.4l-0.5-0.4L96.7,63.9z"/>
<path class="st0" d="M91.4,56.3c-0.3-0.8-0.7-1.5-1.3-2c-1.1-1-2.7-1.5-4.6-1.5c-2.1,0-4.1,0.6-5.9,1.7c-2,1.2-3.3,2.7-3.9,4.5
	c-0.6,1.9-0.3,3.4,0.8,4.5c1.1,1.1,2.7,1.6,4.8,1.6c2.2-0.1,4.2-0.6,6.1-1.8c2-1.2,3.3-2.8,3.9-4.7C91.6,57.9,91.7,57.1,91.4,56.3z
	 M86.6,59.4c-1.1,3.3-2.5,4.9-4.4,4.9c-1.2,0-1.9-0.8-2.1-2.3c-0.1-1.1,0.1-2.3,0.5-3.7c0.4-1.2,0.9-2.1,1.4-3
	c0.9-1.1,1.8-1.7,2.9-1.7c0.6,0,1,0.2,1.3,0.6c0.3,0.3,0.4,0.7,0.5,1.3C87.1,56.6,87,57.9,86.6,59.4z"/>
<path class="st0" d="M142.3,56.4c-0.2-0.8-0.6-1.4-1.3-1.9c-1.1-1-2.7-1.5-4.6-1.5c-2.1,0-4.1,0.6-5.9,1.7c-2,1.2-3.3,2.7-3.9,4.5
	c-0.6,1.9-0.4,3.4,0.8,4.5c1.1,1.1,2.7,1.6,4.9,1.6c2.2,0,4.2-0.6,6.1-1.7c2-1.2,3.3-2.8,3.9-4.7C142.5,58,142.6,57.2,142.3,56.4z
	 M137.4,59.5c-1,3.2-2.5,4.8-4.3,4.9c-1.3,0-2-0.8-2.1-2.3c-0.1-1.1,0.1-2.3,0.5-3.7c0.4-1.2,0.9-2.2,1.4-3c0.9-1.1,1.8-1.7,2.9-1.7
	c0.9,0,1.6,0.6,1.8,1.9C138,56.8,137.9,58.1,137.4,59.5z"/>
<path class="st0" d="M105.3,63.8c-0.2-0.2-0.2-0.4-0.1-0.6l3.3-10.3l-6.9,3.2l-0.1,0.2c0.9,0.4,1.1,1,0.9,1.8l-1.6,5.2
	c-0.1,0.3-0.6,0.7-1.4,1.2l-0.8,0.4h8l-0.5-0.5C105.6,64.1,105.4,63.9,105.3,63.8z"/>
<path class="st0" d="M109.4,48.5c-0.4-0.3-0.9-0.4-1.5-0.4s-1.3,0.2-1.9,0.4c-0.6,0.4-1.1,0.8-1.3,1.3c-0.2,0.5-0.2,1,0.2,1.3
	c0.3,0.3,0.8,0.5,1.5,0.5c0.7-0.1,1.3-0.2,1.9-0.5c0.6-0.3,1.1-0.8,1.3-1.3C109.8,49.3,109.8,48.8,109.4,48.5z"/>
<path class="st0" d="M124.9,57.6c0.3-0.9,0.5-1.5,0.5-1.9c0.1-0.6-0.1-1.1-0.5-1.5c-0.8-0.8-1.8-1.1-3-1.1c-1.1,0-2.4,0.3-3.7,1
	l-1.2,0.7c-0.4,0.2-0.6,0.3-0.7,0.3l0.1-1.8l-6,2.8l-0.1,0.2c0.9,0.4,1.1,1,0.9,1.8l-1.7,5.1c-0.1,0.3-0.2,0.5-0.5,0.7l-1,0.6
	l-0.9,0.5h8.2l-0.8-0.5l-0.6-0.5c-0.2-0.2-0.2-0.4-0.1-0.7l2.1-6.5c0.2-0.4,0.5-0.7,0.9-1c0.8-0.6,1.6-0.9,2.4-0.9
	c0.6,0,1.1,0.4,1.3,1.1c0.1,0.3,0.1,0.7-0.1,1.2l-0.4,1.3l-1.6,4.8l-0.5,0.6l-1.7,1.1h7.5l-0.6-0.6c-0.2-0.2-0.3-0.4-0.4-0.5
	c-0.1-0.2-0.1-0.4,0-0.6L124.9,57.6z"/>
<path class="st0" d="M151.7,56.8l-1.4-0.4c-1.3-0.4-1.8-0.9-1.6-1.5c0.2-0.5,0.5-0.8,1.1-1.1c0.5-0.2,1.1-0.3,1.7-0.3
	c1.1,0,2.1,0.6,3,1.9h0.1l1.3-2c-0.1-0.2-0.4-0.4-0.9-0.5l-3.4-0.3c-1.4,0-2.9,0.3-4.2,1c-1.5,0.8-2.5,1.7-2.9,2.9
	c-0.3,1.1,0.1,2,1.2,2.7c0.6,0.4,1.7,0.8,3.3,1.2c0.6,0.2,1.1,0.4,1.4,0.6c0.4,0.3,0.5,0.8,0.4,1.3c-0.2,0.5-0.6,0.9-1.4,1.2
	c-0.6,0.3-1.3,0.4-2,0.4c-2.5,0-3.7-1.1-3.6-3.2h-0.1l-1.7,2.6c0.1,0.3,0.4,0.5,0.8,0.7c0.9,0.5,2.1,0.8,3.8,0.7
	c2,0,3.6-0.4,4.9-1.1c1.7-0.9,2.8-2,3.3-3.4c0.3-1,0.2-1.8-0.5-2.4C153.7,57.6,152.8,57.2,151.7,56.8z"/>
</svg>
