<?xml version="1.0" encoding="utf-8"?>
<!-- Generator: Adobe Illustrator 24.1.2, SVG Export Plug-In . SVG Version: 6.00 Build 0)  -->
<svg version="1.1" id="Layer_1" xmlns="http://www.w3.org/2000/svg" xmlns:xlink="http://www.w3.org/1999/xlink" x="0px" y="0px"
	 viewBox="0 0 156.5 96.2" style="enable-background:new 0 0 156.5 96.2;" xml:space="preserve">
<style type="text/css">
	.st0{fill-rule:evenodd;clip-rule:evenodd;fill:#FFFFFF;}
</style>
<g>
	<path class="st0" d="M52.7,28c2.3,0,8.6,0.3,4.5,12.2c-4.3,12.5-13.7,10-13.7,10l7-22.2H52.7z M69.6,41
		c5.3-13.1-4.6-16.7-11.1-16.7l-21.5,0c1.8,1.2,1.5,2.9,1.1,3.9l-12.5,40c-0.5,1.6-2.4,3.3-3.4,3.5h17.4c-1-0.2-2.3-1.5-1.8-3.4
		l4.5-14.5C42.3,53.8,63.3,56.7,69.6,41"/>
	<path class="st0" d="M76.6,65.6c-0.7,0.4-3.4,1.8-6,2c-2.4,0.2-6.3-0.7-6.3-5.4c0-4,4.4-7,6.8-8C72.1,58.1,74.3,62.5,76.6,65.6
		 M83.5,40.1c-0.6,3.8-5.5,7.7-6.7,8.2c-0.2-2.1-0.1-5.5,1.7-8.3c1.2-1.8,2.8-2.6,4-2.2C83.5,38.1,83.6,39,83.5,40.1 M83.5,71.7
		h11.7c-3.8-1.2-9.3-4.7-11.5-7.3c1.8-2,4-4.4,4.4-9.4H82c0,0,1.2,0.7,1.2,2.1c0,1.3-0.5,3.1-1.6,4.4c-1.8-2.6-3.7-5.6-4.3-10.1
		c2.4-1.2,5.7-2.5,8.4-4.8c2.5-2.2,3.1-4.3,3.1-5.7v-0.2c0-1.4-0.6-2.8-1.6-3.8c-1.8-1.8-4.5-2.5-7.4-1.9c-2.3,0.4-4.3,1.7-5.3,2.6
		c-3.6,3.3-4,8.8-4,11.3c0,0.6,0,1.1,0.1,1.3c-0.2,0.1-0.6,0.2-0.6,0.2c-2.6,0.9-9.5,2.8-12,8.5c-0.3,0.7-0.8,2.3-0.8,4.1
		c0,1.6,0.3,3.3,1.3,4.9c1.7,2.7,4.7,4.4,9.4,4.3c5.1-0.1,10.2-3.6,11.1-4.2C80,69,82.3,71.2,83.5,71.7"/>
	<path class="st0" d="M119.1,28c7-1.7,12.7,3.8,13.2,4.2l2-6.3c-2.8-0.8-22.7-7.6-36.8,8.5c-8.7,9.9-10.8,30.2,0.2,35.7
		c11.8,5.8,24.8-0.9,25.7-1.4l5.4-17.1c0.6-2.1,1.9-3.4,4.2-4.3h-18.7c2.7,1.2,2.5,3.2,2.3,4l-5.4,17.1c-0.7,0.2-15.7,3.9-7.3-22.4
		C105.7,40.4,110.8,30,119.1,28"/>
</g>
</svg>
