<?xml version="1.0" encoding="utf-8"?>
<!-- Generator: Adobe Illustrator 24.1.2, SVG Export Plug-In . SVG Version: 6.00 Build 0)  -->
<svg version="1.1" xmlns="http://www.w3.org/2000/svg" xmlns:xlink="http://www.w3.org/1999/xlink" x="0px" y="0px"
	 viewBox="0 0 260.34 470.61" style="enable-background:new 0 0 260.34 470.61;" xml:space="preserve">
<style type="text/css">
	.st0{fill:#D57099;}
</style>
<g id="Fondo_xA0_Imagen_1_">
</g>
<g id="Capa_1_xA0_Imagen_1_">
	<path class="st0" d="M106.84,64.64c0.06,1.6,0.13,1.6,1.63,1.81c0.49,0.07,1.19,0.54,1.31,0.96c0.41,1.47,1.35,2.29,2.66,2.92
		c0.6,0.29,1.05,0.88,1.65,1.4c-0.28,0.52-0.53,0.99-0.82,1.52c0.57,1.8,1.36,3.5,3.65,3.59c1.87,0.08,3.75,0.04,5.62-0.02
		c1.36-0.05,2.72-0.22,4.34-0.36c-0.05,0.57,0.03,1.05-0.15,1.4c-0.25,0.48-0.66,0.89-1.05,1.29c-3.12,3.13-6.31,6.19-9.36,9.38
		c-1.7,1.78-3.03,3.94-4.85,5.58c-1.29,1.17-2.29,2.54-3.43,3.79c-2.75,3.01-5.5,6.04-8.01,9.25c-2.17,2.78-4,5.83-6,8.74
		c-0.89,1.3-1.86,2.55-2.73,3.86c-0.61,0.92-1.09,1.92-1.63,2.88c-2.14,3.83-4.41,7.59-6.38,11.51c-1.52,3.01-2.66,6.21-3.96,9.33
		c-1.89,4.54-3.82,9.07-5.62,13.65c-0.91,2.31-1.59,4.72-2.34,7.09c-0.44,1.39-0.85,2.78-1.24,4.19c-1.27,4.62-2.91,9.17-3.52,13.92
		c-0.42,3.24-1.02,6.41-1.94,9.51c-0.29,0.99,0.18,2.05-0.49,2.89c-0.74,0.93-0.1,2-0.41,2.96c-0.53,1.68-0.73,3.4-0.6,5.17
		c0.03,0.4-0.43,0.85-0.68,1.26c-0.56,0.92-1.03,1.84-0.24,2.89c0.11,0.15,0.18,0.44,0.12,0.6c-0.84,1.92-0.24,4.03-0.78,6.01
		c-0.18,0.67-1.29,0.91-0.69,2.01c0.33,0.6-0.13,1.6-0.11,2.41c0.01,0.39,0.31,0.77,0.55,1.32c-0.89,0.88-1.07,1.9-0.58,3.37
		c0.38,1.11-0.2,2.54-0.35,3.82c-0.08,0.65-0.09,1.32-0.25,1.94c-0.17,0.64-0.49,1.23-0.8,1.98c0.44,0.95,1.02,2.05-0.07,3.1
		c0.66,1.63-0.62,3.05-0.47,4.74c0.13,1.47,0.76,3.08,0.04,4.6c-0.08,0.17-0.15,0.45-0.07,0.59c1.03,1.8,0.35,3.8,0.66,5.69
		c0.2,1.21-0.74,2.67-0.08,3.77c0.7,1.16,0.38,2.04,0.02,3.11c0.38,0.43,0.78,0.88,1.12,1.26c0.01,0.26,0.08,0.46,0.02,0.52
		c-1.48,1.5-1,3.39-0.85,5.11c0.38,4.1,0.91,8.19,1.46,12.28c0.08,0.63,0.55,1.21,0.83,1.81c-0.12,0.44-0.44,0.96-0.36,1.42
		c0.7,4.36,1.47,8.72,2.22,13.08c0.01,0.06,0.07,0.12,0.19,0.34c0.43-0.16,0.89-0.32,1.45-0.52c0.66,0.95,0.52,1.91,0.13,2.89
		c-0.37,0.93-0.78,1.81-0.42,2.91c0.74,2.24,1.34,4.54,2.05,6.79c0.33,1.04,0.33,2.01,0,3.06c-0.85,2.72-1.66,5.45-2.39,8.2
		c-2.43,9.13-3.15,18.46-2.96,27.87c0.1,5.21,0.2,10.42,0.54,15.62c0.46,6.99,0.95,14,1.8,20.95c0.99,8.07,2.88,15.99,4.7,23.92
		c1.32,5.79,2.39,11.64,3.6,17.45c0.55,2.66,0.97,5.36,1.82,7.93c0.99,3.01,2.29,5.93,3.62,8.82c0.96,2.1,2.22,2.75,4.9,2.87
		c-0.23-0.83-0.34-1.63-0.67-2.32c-2.04-4.25-3.2-8.74-3.93-13.37c-0.96-6.11-1.89-12.22-2.95-18.31
		c-1.14-6.57-2.57-13.1-3.57-19.69c-0.79-5.21-1.28-10.48-1.61-15.75c-0.35-5.53-0.45-11.08-0.47-16.63
		c-0.02-5.84-0.04-11.69,0.36-17.5c0.32-4.56,1.29-9.07,1.96-13.61c0.23-1.56,0.51-3.11,1.62-4.75c0.88,1.42,1.65,2.62,2.38,3.84
		c0.36,0.59,0.6,1.26,1,1.81c1.94,2.59,3.77,5.29,5.92,7.69c2.65,2.95,5.96,5.2,9.31,7.3c1.16,0.73,2.6,1.02,3.91,1.51
		c1.48,0.55,2.95,1.09,4.43,1.63c0.32,0.12,0.79,0.37,0.98,0.24c1.71-1.14,3.19,0.1,4.76,0.4c0.5,0.1,1.15-0.06,1.3,0.76
		c0.03,0.17,0.53,0.34,0.83,0.37c1.75,0.22,3.56,0.19,5.22,0.68c0.84,0.25,1.83-0.75,2.44,0.38c0.15-0.09,0.29-0.18,0.44-0.26
		c0.36-0.19,0.74-0.57,1.07-0.53c2.55,0.3,4.48-1.21,6.64-2.09c2.24-0.91,4.09-2.27,5.81-3.92c0.73-0.71,1.92-1.02,2.49-1.81
		c1.56-2.19,3.75-3.81,5.26-6.01c2.24-3.27,4.35-6.6,5.45-10.48c0.28-0.98,0.96-1.84,1.31-2.81c1.37-3.79,2.39-7.59,2.46-11.72
		c0.07-4.14-1.08-7.86-2.44-11.63c-1.05-2.91-1.8-5.93-2.87-8.83c-0.49-1.32-1.42-2.47-2.17-3.69c-0.36-0.59-0.78-1.14-1.1-1.74
		c-3.3-6.01-7.46-11.18-13.75-14.33c-3.14-1.57-6.43-2.75-9.89-3.15c-3.54-0.41-6.95,0.36-10.32,1.67
		c-2.78,1.09-5.52,2.23-8.08,3.72c-3.17,1.85-6,4.14-8.66,6.73c-1.57,1.53-3.06,3.14-4.63,4.67c-0.73,0.71-1.41,1.47-2.66,2.32
		c0-0.34,0.04-0.69-0.02-1.02c-0.56-3.46-1.18-6.91-1.69-10.38c-0.17-1.13-0.06-2.3-0.1-3.46c-0.02-0.56-0.02-1.12-0.15-1.66
		c-0.81-3.4-0.59-6.86-0.7-10.3c-0.13-3.81-0.18-7.63-0.14-11.45c0.04-3.87,0.24-7.74,0.73-11.6c0.27-2.13,0.15-4.31,0.32-6.46
		c0.25-3.24,0.54-6.47,0.93-9.7c0.23-1.91,0.74-3.79,1.03-5.7c0.48-3.2,0.81-6.42,1.35-9.61c0.6-3.54,1.36-7.05,2.06-10.57
		c0.08-0.4,0.32-0.82,0.26-1.2c-0.13-0.8-0.14-1.47,0.49-2.11c0.24-0.25,0.22-0.77,0.28-1.18c0.53-3.35,1.67-6.53,2.65-9.75
		c0.78-2.58,1.47-5.19,2.34-7.74c0.85-2.49,1.89-4.91,2.83-7.37c0.69-1.81,1.27-3.66,2.03-5.43c1.44-3.37,2.87-6.75,4.52-10.02
		c1.49-2.95,2.88-5.93,4.91-8.62c2.11-2.79,3.73-5.94,5.6-8.92c0.77-1.22,1.55-2.44,2.43-3.57c3.24-4.12,6.6-8.15,9.77-12.32
		c2.61-3.43,5.81-6.27,8.75-9.37c2.09-2.21,4.08-4.51,6.15-6.74c0.68-0.73,1.29-1.64,2.66-1.81c-0.02,0.67,0.1,1.29-0.08,1.82
		c-0.93,2.69-2.09,5.31-2.86,8.04c-0.52,1.85-1.05,3.68-1.67,5.5c-0.93,2.72-1.57,5.54-2.37,8.45c0.34,0.07,0.59,0.11,0.84,0.16
		c2.15,0.51,2.32,0.93,1.22,2.85c-0.22,0.38-0.43,0.98-0.28,1.32c0.66,1.47,1.45,2.89,2.32,4.56c0.33-0.64,0.5-0.97,0.67-1.31
		c0.17,0.07,0.31,0.09,0.41,0.18c1.36,1.2,2.31,2.89,4.33,3.33c0.43,0.09,0.81,1.05,0.96,1.67c0.45,1.81,1.7,2.7,3.39,2.94
		c2,0.29,4.72-1.77,4.93-3.86c0.24-2.48,1.09-4.69,2.13-6.92c0.71-1.54,0.97-3.29,1.43-4.95c1.88-6.84,4.52-13.4,7.1-19.99
		c1.36-3.48,2.49-7.05,3.77-10.57c0.71-1.93,1.55-3.82,2.28-5.74c2.03-5.32,4.03-10.65,6.06-15.96c0.59-1.54,0.26-3.35,1.38-4.74
		c-0.85-1.76,0.46-3.45,0.18-5.21c-0.09-0.57,0.47-1.55,0.99-2.04c-1.67-0.39-1.59-1.45-1.2-2.73c0.47-1.51,0.81-3.05,1.19-4.58
		c0.06-0.25,0.14-0.62,0.01-0.77c-1.11-1.31-0.16-2.49,0.26-3.63c0.62-1.7-0.55-3.5-2.27-3c-2.21,0.65-4.62,0.8-6.56,2.24
		c-0.05,0.04-0.11,0.11-0.17,0.11c-2.15,0.03-3.84,0.95-5.63,2.17c-1.57,1.07-3.81,1.17-5.77,1.63c-1.35,0.32-2.72,0.6-4.1,0.77
		c-4.28,0.55-8.38,1.86-12.59,2.73c-3.04,0.63-5.84,1.86-8.69,3.03c-3.13,1.28-6.4,2.21-9.59,3.36c-2.8,1.01-5.78,1.75-8.31,3.24
		c-2.61,1.53-5.57,2.79-7.34,5.8c0.13,0.17,0.41,0.52,0.69,0.87c0.48,0.09,0.96,0.19,1.44,0.28c-0.03,0.15-0.05,0.3-0.08,0.45
		C107.72,64.78,107.28,64.71,106.84,64.64z M85.97,304.74c0.08-0.13,0.16-0.25,0.24-0.38c0.82-0.8,0.54-1.66,0.08-2.48
		c-0.86-1.55-1.37-3.21-1.89-4.89c-0.45-1.47-0.25-2.81,0.69-3.93c2.09-2.51,4.11-5.11,6.45-7.36c5.64-5.4,12.49-8.73,19.93-10.89
		c1.35-0.39,2.68-0.37,4.09,0.05c3.88,1.16,6.86,3.53,9.37,6.6c0.21,0.25,0.47,0.46,0.65,0.64c0.62-0.34,1.13-0.62,1.64-0.9
		c1.03,1.44,2,2.69,2.84,4.02c0.85,1.35,1.6,2.76,2.34,4.17c0.48,0.92,0.69,1.85-0.46,2.31c0.5,2.17,1.06,4.24,1.46,6.34
		c0.73,3.92-0.09,7.65-1.73,11.21c-1.04,2.26-2.16,4.49-3.38,6.66c-0.77,1.37-1.54,2.88-2.71,3.84c-2.99,2.46-6.34,4.44-10.11,5.49
		c-3.76,1.04-7.55,1.22-11.2-0.54c-0.81-0.39-1.61-0.81-2.43-1.21c-2.6-1.27-4.65-3.25-6.28-5.54c-2.12-2.97-3.93-6.16-5.85-9.27
		c-0.7-1.14-1.43-2.21-2.82-2.6C86.26,305.89,85.72,305.57,85.97,304.74z M112.64,331.65c-0.39-0.38-0.75-0.95-0.95-0.9
		c-1.27,0.32-2.36-0.14-3.45-0.63c-1.6,0.93-2.42-0.81-3.67-1.11c-0.61-0.14-0.97-0.81-0.23-1.42c3.04,1.65,6.42,1.55,9.82,1.88
		C113.61,330.26,113.19,330.86,112.64,331.65z M168.57,44.59c-0.08-0.19-0.16-0.38-0.24-0.57c1.05-0.43,2.09-0.9,3.16-1.27
		c0.15-0.05,0.63,0.35,0.67,0.58c0.04,0.26-0.21,0.78-0.41,0.82C170.71,44.37,169.64,44.46,168.57,44.59z M109.04,266.18
		c-0.11-0.04-0.23-0.09-0.34-0.13c0.19-0.69,0.39-1.38,0.61-2.18c0.65,0.31,1.05,0.49,1.65,0.77
		C110.21,265.25,109.63,265.72,109.04,266.18z M108,266.09c-0.88,0.2-1.36,0.31-1.9,0.43C106.33,265.25,106.33,265.25,108,266.09z
		 M111.58,265.24c0.61-1.14,0.61-1.14,2.06-0.24C112.83,265.09,112.26,265.16,111.58,265.24z M101.44,327.27
		c0.3-0.1,0.51-0.24,0.64-0.18c0.12,0.05,0.15,0.31,0.21,0.47c-0.12,0.05-0.26,0.16-0.35,0.12
		C101.79,327.62,101.67,327.47,101.44,327.27z M104.33,266.16c0.06,0.13,0.11,0.24,0.16,0.34c-0.14,0.05-0.28,0.11-0.43,0.16
		c-0.01-0.12-0.06-0.26-0.02-0.35C104.09,266.24,104.23,266.21,104.33,266.16z"/>
</g>
</svg>
