<?xml version="1.0" encoding="utf-8"?>
<!-- Generator: Adobe Illustrator 24.1.2, SVG Export Plug-In . SVG Version: 6.00 Build 0)  -->
<svg version="1.1" xmlns="http://www.w3.org/2000/svg" xmlns:xlink="http://www.w3.org/1999/xlink" x="0px" y="0px"
	 viewBox="0 0 246.25 238.57" style="enable-background:new 0 0 246.25 238.57;" xml:space="preserve">
<style type="text/css">
	.st0{fill:#88CEB5;}
</style>
<g id="Fondo_xA0_Imagen_1_">
</g>
<g id="Capa_1_xA0_Imagen_1_">
	<path class="st0" d="M49.5,148c0-0.81-0.31-1.41-0.99-1.94c-2.1-1.64-4.15-3.34-5.92-5.35c-0.4-0.46-1.2-0.56-1.93-0.88
		c0.05-0.65,0.05-1.2-1.08-1.38c-1.76-0.28-3.53-0.87-4.25-2.85c-0.11-0.29-0.41-0.65-0.33-0.86c0.39-1.02-0.41-1.28-1-1.45
		c-1.38-0.4-2.16-1.33-2.73-2.55c-0.61-1.3-1.27-2.58-1.93-3.86c-0.11-0.22-0.34-0.41-0.56-0.53c-0.86-0.46-1.53-0.99-1.2-2.12
		c0.03-0.12,0-0.34-0.08-0.39c-1.89-1.15-1.89-3.55-3.33-5.05c-0.86-0.9-1.24-2.27-1.82-3.44c-0.21-0.43-0.32-0.92-0.58-1.31
		c-2.1-3.15-3.23-6.67-3.91-10.36c-0.37-1.96-0.92-3.9-1.24-5.87c-0.74-4.68,0.13-9.07,2.53-13.18c1-1.72,1.7-3.62,2.77-5.29
		c1.2-1.88,2.65-3.62,4.04-5.37c0.28-0.35,0.8-0.49,1.19-0.77c0.31-0.22,0.71-0.45,0.83-0.77c0.52-1.39,1.67-2.17,2.78-2.98
		c2.1-1.54,4.25-3,6.31-4.59c2.85-2.2,5.59-4.55,8.45-6.74c2.59-1.98,5.53-3.31,8.6-4.38c3.79-1.32,7.6-2.55,11.55-3.33
		c7.2-1.41,14.36-3.06,21.57-4.4c3.71-0.69,7.5-0.94,11.25-1.39c1.18-0.14,2.4-0.15,3.52-0.49c1.69-0.52,3.25-0.02,4.86,0.25
		c1.07,0.18,2.23-0.01,3.26,0.28c1.5,0.42,2.84-1.06,4.52,0.09c1.09,0.75,2.91,0.43,4.4,0.58c0.21,0.02,0.46,0.06,0.62-0.03
		c1.83-1.13,3.68,0.1,5.51-0.08c1.08-0.1,1.86,0.28,2.41,1.36c0.36-0.34,0.59-0.56,0.92-0.87c0.4,0.32,0.82,0.64,1.24,0.97
		c0.64-0.59,1.26-1.02,1.84,0.15c0.06,0.13,0.72,0.13,0.96-0.02c0.75-0.48,1.31-0.62,1.92,0.27c0.15,0.22,0.95,0.19,1.36,0.03
		c1.19-0.49,2.13-0.16,2.89,0.77c0.45-0.38,0.4-1.17,1.25-0.85c1.35,0.51,2.8,0.49,4.21,0.69c0.7,0.1,1.33,0.65,2.02,1.01
		c1.05-0.7,2.23-0.39,3.29,0.01c0.99,0.38,1.9,0.76,3.01,0.63c0.43-0.05,1.07,0.05,1.46,0.75c0.47,0.86,0.95,0.54,1.04-0.44
		c0.27,0.09,0.6,0.1,0.76,0.27c1.55,1.63,3.54,1.89,5.65,2c0.78,0.04,1.54,0.52,2.33,0.81c0.99-1.05,1.06-1.02,2.19-0.01
		c0.26,0.23,0.84,0.08,1.26,0.15c1.2,0.18,2.59-0.49,3.57,0.74c-0.55-0.05-1.1-0.09-2.09-0.17c1.18,0.51,1.18,0.51,2.07,0.13
		c0.16,0.31,0.32,0.61,0.55,1.05c1.31-0.59,2.62-0.97,3.11,0.99c1.48-1.54,4.5-0.07,5.79,1.76c1.58-0.72,2.18-0.62,3.52,0.63
		c0.23,0.22,0.39,0.66,0.63,0.71c3.28,0.63,3.28,0.62,5.73,2.58c0.57,0.46,1.45,0.48,1.73,1.43c0.09,0.31,0.83,0.85,1.42-0.09
		c0.5-0.8,1.26-0.02,1.79,0.32c0.51,0.32,0.86,0.88,1.37,1.21c0.35,0.23,0.83,0.29,1.26,0.36c0.32,0.06,0.77-0.11,0.98,0.06
		c1.82,1.38,4.1,1.84,5.97,3.08c0.76,0.5,1.27,1.37,1.94,2.01c0.26,0.24,0.69,0.46,1.02,0.44c1.75-0.11,2.2,0.14,2.99,1.84
		c1.65-0.3,1.65-0.3,2.02,1.55c0.64-0.02,1.29-0.04,2.01-0.06c0.03,0.29,0.06,0.55,0.1,0.82c2.71-0.04,4.46,1.96,6.47,3.24
		c1.98,1.26,4.26,2.29,5.59,4.65c0.97-0.53,1.75-0.02,2.48,0.64c1.63,1.49,3.79,2.14,5.49,3.48c1.91,1.5,4.14,2.68,5.37,4.92
		c0.67,1.22,1.28,2.47,2.17,4.18c-1.22-0.27-1.94-0.39-2.64-0.6c-2.44-0.75-4.84-1.53-7.09-2.84c-1.64-0.95-3.54-1.46-5.32-2.15
		c-1.66-0.65-3.2-1.61-4.96-2.02c-0.07-0.02-0.14-0.04-0.19-0.08c-1.8-1.81-4.39-2.09-6.51-3.3c-2.11-1.21-4.29-2.28-6.44-3.4
		c-2.02-1.06-4.03-2.15-6.08-3.15c-1.85-0.9-3.86-1.49-5.59-2.57c-2.34-1.47-4.94-2.27-7.38-3.49c-0.48-0.24-0.9-0.57-1.38-0.81
		c-0.49-0.24-1.06-0.67-1.5-0.58c-1.75,0.36-3.16-0.48-4.54-1.2c-3.4-1.76-7.07-2.75-10.75-3.47c-7-1.37-14.05-2.52-21.11-3.56
		c-3.69-0.54-7.42-0.93-11.19-0.82c-2.27,0.07-4.56-0.41-6.84-0.59c-2.33-0.19-4.65-0.66-7.01-0.26c-0.47,0.08-0.98,0.08-1.46,0
		c-3.99-0.7-8.01-0.63-12.03-0.55c-1.79,0.03-3.59,0.15-5.38,0.33c-2.76,0.28-5.53,0.57-8.27,1.02c-3.14,0.52-6.27,1.17-9.38,1.85
		c-4.45,0.96-8.9,1.92-13.32,3.02c-2.53,0.63-4.98,1.55-7.47,2.3c-1.19,0.36-2.45,0.52-3.6,0.96c-1.34,0.5-2.61,1.18-3.89,1.82
		c-3.23,1.62-6.17,3.65-8.89,6.07c-2.43,2.16-4.91,4.23-6.87,6.85c-1.98,2.65-3.69,5.48-5,8.49c-0.71,1.63-0.88,3.48-1.38,5.21
		c-1.03,3.54,0.26,6.6,1.79,9.67c1.02,2.04,1.83,4.19,2.67,6.14c-0.64,0.66-1.01,1.04-1.42,1.46c0.69,1.9,1.14,3.9,3.35,4.67
		l-0.03-0.09c-0.39,1.24,0.04,1.72,1.28,1.53c0.76-0.12,1.55-0.14,2.31-0.21c0.04,0.87-0.14,1.6,0.15,1.94
		c0.32,0.38,1.07,0.39,1.72,0.59c0.22,1.3-0.64,1.61-2.02,1.64c1.33,1.38,2.46,2.42,3.52,3.55c0.13-0.12,0.25-0.24,0.38-0.37
		c-0.4-0.61-0.8-1.21-1.32-2c0.54-0.23,1.21-0.63,1.3-0.53c0.35,0.4,0.52,0.97,0.82,1.62c0.93-0.22,1.75,0.22,2.25,1.4
		c-0.23,0.54-0.5,1.14-0.77,1.76c0.9,0.77,1.27-0.17,1.83-0.71c0.82,0.81,2.06,1.3,1.22,3.07c1.57-0.49,2.45,0.1,3.35,0.97
		c2.58,2.49,5.25,4.88,7.9,7.31c-0.12,0.36-0.48,0.89-0.34,1.13c0.58,0.99,1.05-0.8,1.79-0.03c0.04,0.71,0.08,1.54,0.12,2.36
		c0.12,0.03,0.25,0.07,0.37,0.1c0.33-0.43,0.65-0.86,1.03-1.36c1.36,1.04,2.7,2.07,4.39,3.36c-0.93-0.04-1.43-0.06-1.91-0.08
		c-0.18,0.54-0.18,0.54,2.05,1.66c0.09-0.22,0.17-0.43,0.28-0.63c0.1-0.17,0.24-0.31,0.45-0.56c0.52,0.37,1,0.71,1.58,1.12
		c-0.35,0.34-0.61,0.59-0.93,0.9c0.57,0.47,1.09,0.9,1.91,1.59c-0.1-0.76-0.15-1.16-0.24-1.84c0.66,0.26,1.24,0.4,1.74,0.68
		c2.72,1.51,5.42,3.06,8.13,4.6c1.29,0.73,2.87,1.15,2.99,3.08c0.02,0.34,0.66,0.63,1.15,1.06c0.28-0.4,0.49-0.7,0.78-1.12
		c0.83,0.36,1.72,0.75,2.61,1.14c-0.04,0.11-0.08,0.21-0.12,0.32c-0.63-0.22-1.26-0.43-2.07-0.71c0.76,1.38,3.07,2.53,5.05,2.43
		c-0.39-0.39-0.67-0.66-0.95-0.94c0.1-0.07,0.21-0.13,0.31-0.2c0.41,0.18,0.82,0.36,1.26,0.55c-0.26,0.36-0.45,0.63-0.69,0.97
		c1.16,0.93,2.28,1.56,3.78,0.7c0.33-0.19,0.98-0.1,1.34,0.11c0.89,0.5,1.59,1.34,2.75,1.28c0.15-0.01,0.47,0.24,0.46,0.35
		c-0.18,1.86,1.17,1.16,2.11,1.47c1.06,0.35,1.94,0.31,2.97,0.15c0.57-0.09,1.29,0.08,1.79,0.38c0.93,0.58,2.16,0.79,2.87,1.36
		c1.16,0.94,2.5,0.43,3.61,1.07c0.25,0.15,0.82-0.36,1.23-0.34c0.43,0.02,0.84,0.35,1.28,0.49c1.07,0.33,2.16,0.63,3.21,1.34
		c0.53-0.31,1.06-0.61,1.62-0.94c0.61,0.54,1.22,1.08,1.63,1.45c0.87-0.26,1.59-0.48,2.44-0.73c0.09,0.66,0.15,1.1,0.21,1.58
		c2.49-1.08,4.77-0.14,7.46,0.47c-0.52-0.74-0.8-1.34-1.26-1.74c-1.28-1.14-2.81-2.02-3.68-3.59c-0.13-0.24-0.35-0.55-0.57-0.59
		c-1.62-0.27-2.42-1.74-3.67-2.55c-1.4-0.9-2.46-2.32-3.64-3.54c-0.57-0.59-0.96-1.49-1.64-1.83c-1.35-0.68-1.78-2.04-2.14-3.13
		c-1-3.04-3.34-5-5.25-7.31c-0.57-0.69-1.21-1.33-1.85-1.96c-1.47-1.45-1.83-2.98-0.54-4.76c0.15-0.21-0.05-0.66-0.09-1.08
		c0.31-0.1,0.62-0.25,0.96-0.31c1.99-0.34,1.97-0.33,1.31-2.34c-0.08-0.24,0.15-0.59,0.27-0.97c0.89,0.68,1.66,1.28,2.53,1.94
		c0.6-0.67,1.04-1.17,1.52-1.7c0.77,0.18,1.56,0.37,2.35,0.55c1.31,0.3,1.31,0.23,2.07-1.16c0.34-0.61,0.93-1.16,1.53-1.53
		c2.54-1.54,5.92-0.87,7.77,1.54c0.92,1.19,2.27,2.09,2.64,3.68c2.02,0.88,2.88,2.92,4.33,4.37c1.85,1.85,3.51,3.9,5.37,5.75
		c1.56,1.55,3.28,2.94,4.91,4.41c2.16,1.94,4.27,3.93,6.46,5.84c1.39,1.21,2.88,2.3,4.31,3.46c1.43,1.16,2.77,2.44,4.27,3.51
		c4.28,3.05,8.66,5.95,12.9,9.04c2.96,2.16,5.73,4.56,8.62,6.81c2.2,1.71,4.35,3.46,6.03,5.72c0.29,0.39,0.63,0.75,0.88,1.16
		c1.3,2.1,0.83,4.53-1.13,6.03c-0.33,0.25-0.7,0.46-1.01,0.73c-0.9,0.77-1.05,1.3-0.37,2.31c1,1.52,0.7,3.02,0.16,4.55
		c-0.25,0.7-0.42,1.48-0.86,2.05c-0.62,0.81-0.46,1.48,0.07,2.15c-0.75,1.5-1.95,2.16-3.45,2.51c-6.1,1.41-12.24,2.5-18.49,3.02
		c-2.91,0.24-5.8,0.8-8.71,1.02c-3.09,0.23-6.19,0.27-9.28,0.33c-3.38,0.06-6.77,0.05-10.14,0.31c-0.21,0.02-0.44,0.12-0.62,0.06
		c-2.3-0.82-4.58,0.28-6.9,0.08c-2.33-0.2-4.7,0.24-7.06,0.26c-5.34,0.07-10.68,0.09-16.03,0.05c-1.52-0.01-1.52-0.13-2.99-1.42
		c0.16-0.36,0.31-0.8,0.53-1.2c0.82-1.44,0.39-2.52-1.23-2.9c-0.74-0.17-1.51-0.21-2.26-0.35c-1.73-0.31-1.96-0.62-1.99-2.44
		c-0.01-0.47-0.1-0.93-0.17-1.53c1.34-0.47,2.61-1.16,3.95-1.33c1.21-0.15,2.19-0.57,2.82-1.45c0.76-1.06,1.74-1.14,2.83-1.2
		c4-0.19,8.01-0.35,12-0.63c3.38-0.24,6.75-0.65,10.12-0.95c5.61-0.5,11.25-0.76,16.83-1.53c5.21-0.72,10.35-1.95,15.51-3.01
		c0.48-0.1,0.88-0.57,1.65-1.09c-0.75-0.11-1.12-0.18-1.49-0.22c-2.48-0.25-4.97-0.43-7.44-0.76c-3.15-0.42-6.27-1.28-9.42-1.38
		c-3.23-0.11-6.25-1.08-9.4-1.45c-2.53-0.3-5.08-0.38-7.62-0.61c-0.82-0.08-1.62-0.35-2.43-0.5c-1.48-0.28-2.96-0.67-4.46-0.77
		c-3.63-0.26-7.07-1.24-10.53-2.28c-1.5-0.45-3.1-0.58-4.64-0.9c-2.18-0.45-4.25-1.1-6.2-2.3c-1.43-0.88-3.17-1.25-4.75-1.9
		c-2.56-1.06-5.1-2.19-7.66-3.24c-1.08-0.45-2.24-0.72-3.32-1.18c-1.39-0.59-2.74-1.29-4.1-1.94c-3.88-1.85-7.81-3.62-11.63-5.58
		c-1.98-1.02-3.8-2.37-5.69-3.56c-2.14-1.35-4.38-2.58-6.41-4.09c-1.85-1.38-3.48-3.06-5.23-4.58c-0.28-0.25-0.63-0.49-0.99-0.55
		c-1.03-0.17-1.71-0.74-2.38-1.52c-0.88-1.03-2-1.84-2.93-2.84c-0.56-0.6-1.58-0.89-1.38-2.11c0.04-0.26-0.92-0.68-1.42-1.02
		C49.48,147.93,49.5,148,49.5,148z M24.94,84.52c-0.68,0.89-1.36,1.79-2.06,2.71c0.92,0.85,1.36-0.13,2.02-0.31
		c-0.04-0.48-0.05-0.89-0.13-1.29c-0.08-0.39,1.05-0.63,0.12-1.09c0.38-0.43,0.76-0.86,1.39-1.56
		C25.05,83.49,25.05,83.49,24.94,84.52z M146.43,211.06c-1.37-1.1-2.77-1.01-4.4-0.25c1.08,0.66,1.9,0.68,4.38,0.21
		c0.28,0.18,0.56,0.51,0.84,0.5c3.3-0.07,6.6-0.24,9.9-0.29c1.98-0.03,3.99,0.3,5.94,0.1c3.22-0.34,6.4-1.03,9.61-1.49
		c0.98-0.14,1.25-0.55,1.07-1.56c-1.31,0.14-2.73,0.68-3.88,0.34c-2.42-0.73-4.56,1.09-6.88,0.37c-1.86,1.08-3.9,1.17-5.99,1.14
		c-2.32-0.03-4.64,0.11-6.95,0.19C148.82,210.36,147.48,210.02,146.43,211.06z M22.7,107.86c0.28-0.1,0.55-0.19,0.83-0.29
		c-1.31-4.67-2.01-9.35-0.74-14.1c-0.29-0.19-0.61-0.4-0.84-0.56c0.45-0.73,0.83-1.33,1.2-1.92c-0.52-0.39-0.9-0.67-1.3-0.97
		c-0.64,0.64-1.26,1.27-1.75,1.76c0.05,0.74,0.35,1.6,0.07,1.88c-1.03,1.06-0.56,2.3-0.45,3.35c0.18,1.67-0.05,3.46,0.96,4.99
		c0.17,0.26,0.1,0.67,0.16,1.01c0.23,1.13,0.39,2.29,0.74,3.39C21.76,106.95,22.32,107.37,22.7,107.86z M130.73,210.5
		c0.07,1.13,0.49,1.35,1.15,1.31c2.96-0.18,5.92-0.34,8.88-0.52c0.1-0.01,0.19-0.15,0.54-0.45c-0.93-0.22-1.69-0.43-2.47-0.59
		c-0.51-0.11-1.37-0.38-1.51-0.19c-0.64,0.9-1.52,0.44-2.23,0.49C133.68,210.67,132.25,210.54,130.73,210.5z M27.45,104.67
		c-0.75,1.48-0.32,3.29,0.97,4.26C28.08,107.46,27.79,106.19,27.45,104.67z M125.81,211.54c0.91,0.25,1.82,0.7,3.14,0.15
		C127.69,211.02,126.75,211.36,125.81,211.54z M66.49,141.41c0.7-0.69,0.7-0.69-0.16-1.29C66.39,140.58,66.43,140.95,66.49,141.41z
		 M73.75,146.35c0.07-0.08,0.14-0.17,0.21-0.25c-0.21-0.22-0.43-0.44-0.64-0.65c-0.1,0.15-0.2,0.3-0.3,0.44
		C73.26,146.04,73.5,146.19,73.75,146.35z M53.85,150.9c-0.11,0.11-0.22,0.23-0.33,0.34c0.32,0.32,0.63,0.64,0.95,0.97
		c0.12-0.12,0.23-0.23,0.35-0.35C54.5,151.53,54.17,151.22,53.85,150.9z M27.51,81.97c-0.24-0.42-0.31-0.67-0.47-0.78
		c-0.13-0.09-0.37,0-0.56,0.01c0.02,0.24-0.03,0.55,0.1,0.7C26.68,82.02,27,81.94,27.51,81.97z"/>
</g>
</svg>
