<?xml version="1.0" encoding="utf-8"?>
<!-- Generator: Adobe Illustrator 24.1.2, SVG Export Plug-In . SVG Version: 6.00 Build 0)  -->
<svg version="1.1" id="Layer_1" xmlns="http://www.w3.org/2000/svg" xmlns:xlink="http://www.w3.org/1999/xlink" x="0px" y="0px"
	 viewBox="0 0 19.9 19.9" style="enable-background:new 0 0 19.9 19.9;" xml:space="preserve">
<g>
	<path d="M17.7,6.9l-7.1-2.5c-0.4-0.2-0.4-0.2-0.8,0L2.6,6.9C2.1,7,2.1,7.3,2.6,7.4L4.3,8c-0.8,0.7-0.8,1.5-0.8,2.4
		C3.2,10.5,3,10.8,3,11.1c0,0.3,0.2,0.6,0.4,0.7c-0.1,0.9-0.5,1.9-1.5,3.1c0.5,0.4,0.8,0.5,1.2,0.6c1.4-0.6,1.2-2.2,1.1-3.8
		c0.2-0.1,0.3-0.4,0.3-0.6c0-0.3-0.1-0.5-0.4-0.7c0-0.9,0.2-1.6,0.9-2.1c0,0,0,0,0,0l4.9-2c0.2-0.1,0.4,0,0.5,0.2l0,0
		c0.1,0.2,0,0.4-0.2,0.5L6.1,8.6l3.7,1.3c0.4,0.2,0.4,0.2,0.8,0l7.1-2.4C18.1,7.3,18.1,7,17.7,6.9z M9.8,10.8L5.3,9.3v1.1
		c0.2,0.2,0.4,0.5,0.4,0.9c0,0.3-0.1,0.6-0.3,0.8c0.1,0.2,0.2,0.4,0.3,0.4c2.6,1.4,6.2,1.4,9.1-0.1c0.2-0.2,0.4-0.4,0.4-0.6V9.2
		l-4.6,1.6C10.1,11,10.2,11,9.8,10.8z"/>
</g>
</svg>
