<?xml version="1.0" encoding="utf-8"?>
<!-- Generator: Adobe Illustrator 24.1.2, SVG Export Plug-In . SVG Version: 6.00 Build 0)  -->
<svg version="1.1" id="Layer_1" xmlns="http://www.w3.org/2000/svg" xmlns:xlink="http://www.w3.org/1999/xlink" x="0px" y="0px"
	 viewBox="0 0 16 16" style="enable-background:new 0 0 16 16;" xml:space="preserve">
<path d="M12.7,2.4c0.4,0,0.8,0.4,0.8,0.8v6.3c0,0.4-0.4,0.8-0.8,0.8H5.2c-0.4,0-0.8,0.2-1.1,0.5l-1.6,1.6V3.2c0-0.4,0.4-0.8,0.8-0.8
	H12.7z M3.3,1.6c-0.9,0-1.6,0.7-1.6,1.6v10.1c0,0.2,0.2,0.4,0.4,0.4c0.1,0,0.2,0,0.3-0.1l2.2-2.2c0.1-0.1,0.3-0.2,0.6-0.2h7.5
	c0.9,0,1.6-0.7,1.6-1.6V3.2c0-0.9-0.7-1.6-1.6-1.6H3.3z"/>
<path d="M5.6,6.4c0,0.4-0.4,0.8-0.8,0.8S4.1,6.8,4.1,6.4s0.4-0.8,0.8-0.8S5.6,5.9,5.6,6.4z M8.8,6.4c0,0.4-0.4,0.8-0.8,0.8
	S7.2,6.8,7.2,6.4S7.6,5.6,8,5.6S8.8,5.9,8.8,6.4z M11.9,6.4c0,0.4-0.4,0.8-0.8,0.8c-0.4,0-0.8-0.4-0.8-0.8s0.4-0.8,0.8-0.8
	C11.6,5.6,11.9,5.9,11.9,6.4z"/>
</svg>
