<?xml version="1.0" encoding="utf-8"?>
<!-- Generator: Adobe Illustrator 24.1.2, SVG Export Plug-In . SVG Version: 6.00 Build 0)  -->
<svg version="1.1" id="Layer_1" xmlns="http://www.w3.org/2000/svg" xmlns:xlink="http://www.w3.org/1999/xlink" x="0px" y="0px"
	 viewBox="0 0 21.8 21.8" style="enable-background:new 0 0 21.8 21.8;" xml:space="preserve">
<style type="text/css">
	.st0{fill-rule:evenodd;clip-rule:evenodd;}
</style>
<path class="st0" d="M2.9,3.4c0-0.3,0.2-0.5,0.5-0.5h9c0.3,0,0.5,0.2,0.5,0.5s-0.2,0.5-0.5,0.5h-9C3.1,3.9,2.9,3.7,2.9,3.4z
	 M15.9,3.4c0-0.3,0.2-0.5,0.5-0.5h2c0.3,0,0.5,0.2,0.5,0.5s-0.2,0.5-0.5,0.5h-2C16.1,3.9,15.9,3.7,15.9,3.4z M2.9,5.4
	c0-0.3,0.2-0.5,0.5-0.5h8c0.3,0,0.5,0.2,0.5,0.5c0,0.3-0.2,0.5-0.5,0.5h-8C3.1,5.9,2.9,5.7,2.9,5.4z M15.9,5.4
	c0-0.3,0.2-0.5,0.5-0.5h2c0.3,0,0.5,0.2,0.5,0.5c0,0.3-0.2,0.5-0.5,0.5h-2C16.1,5.9,15.9,5.7,15.9,5.4z M2.9,7.4
	c0-0.3,0.2-0.5,0.5-0.5h10c0.3,0,0.5,0.2,0.5,0.5s-0.2,0.5-0.5,0.5h-10C3.1,7.9,2.9,7.7,2.9,7.4z M15.9,7.4c0-0.3,0.2-0.5,0.5-0.5h2
	c0.3,0,0.5,0.2,0.5,0.5s-0.2,0.5-0.5,0.5h-2C16.1,7.9,15.9,7.7,15.9,7.4z M2.9,9.4c0-0.3,0.2-0.5,0.5-0.5h7c0.3,0,0.5,0.2,0.5,0.5
	c0,0.3-0.2,0.5-0.5,0.5h-7C3.1,9.9,2.9,9.7,2.9,9.4z M15.9,9.4c0-0.3,0.2-0.5,0.5-0.5h2c0.3,0,0.5,0.2,0.5,0.5
	c0,0.3-0.2,0.5-0.5,0.5h-2C16.1,9.9,15.9,9.7,15.9,9.4z M2.9,11.4c0-0.3,0.2-0.5,0.5-0.5h7c0.3,0,0.5,0.2,0.5,0.5s-0.2,0.5-0.5,0.5
	h-7C3.1,11.9,2.9,11.7,2.9,11.4z M15.9,11.4c0-0.3,0.2-0.5,0.5-0.5h2c0.3,0,0.5,0.2,0.5,0.5s-0.2,0.5-0.5,0.5h-2
	C16.1,11.9,15.9,11.7,15.9,11.4z M2.9,13.4c0-0.3,0.2-0.5,0.5-0.5h9c0.3,0,0.5,0.2,0.5,0.5s-0.2,0.5-0.5,0.5h-9
	C3.1,13.9,2.9,13.7,2.9,13.4z M15.9,13.4c0-0.3,0.2-0.5,0.5-0.5h2c0.3,0,0.5,0.2,0.5,0.5s-0.2,0.5-0.5,0.5h-2
	C16.1,13.9,15.9,13.7,15.9,13.4z M2.9,15.4c0-0.3,0.2-0.5,0.5-0.5h5c0.3,0,0.5,0.2,0.5,0.5s-0.2,0.5-0.5,0.5h-5
	C3.1,15.9,2.9,15.7,2.9,15.4z M15.9,15.4c0-0.3,0.2-0.5,0.5-0.5h2c0.3,0,0.5,0.2,0.5,0.5s-0.2,0.5-0.5,0.5h-2
	C16.1,15.9,15.9,15.7,15.9,15.4z M2.9,17.4c0-0.3,0.2-0.5,0.5-0.5h10c0.3,0,0.5,0.2,0.5,0.5s-0.2,0.5-0.5,0.5h-10
	C3.1,17.9,2.9,17.7,2.9,17.4z M15.9,17.4c0-0.3,0.2-0.5,0.5-0.5h2c0.3,0,0.5,0.2,0.5,0.5s-0.2,0.5-0.5,0.5h-2
	C16.1,17.9,15.9,17.7,15.9,17.4z"/>
</svg>
