<?xml version="1.0" encoding="utf-8"?>
<!-- Generator: Adobe Illustrator 24.1.2, SVG Export Plug-In . SVG Version: 6.00 Build 0)  -->
<svg version="1.1" id="Layer_1" xmlns="http://www.w3.org/2000/svg" xmlns:xlink="http://www.w3.org/1999/xlink" x="0px" y="0px"
	 viewBox="0 0 19.9 19.9" style="enable-background:new 0 0 19.9 19.9;" xml:space="preserve">
<path d="M11.2,1.9H5.9c-1.1,0-2,0.9-2,2v12c0,1.1,0.9,2,2,2h8c1.1,0,2-0.9,2-2V6.6c0-0.3-0.1-0.5-0.3-0.7l-3.7-3.7
	C11.7,2,11.5,1.9,11.2,1.9z M11.4,5.4v-2l3,3h-2C11.9,6.4,11.4,6,11.4,5.4z M12.9,9.9c0,1.7-1.3,3-3,3s-3-1.3-3-3s1.3-3,3-3
	S12.9,8.3,12.9,9.9z M14.9,15.7v0.2c0,0.6-0.4,1-1,1h-8c-0.6,0-1-0.4-1-1v-0.2c0,0,1-1.8,5-1.8S14.9,15.7,14.9,15.7z"/>
</svg>
