<?xml version="1.0" encoding="utf-8"?>
<!-- Generator: Adobe Illustrator 24.1.2, SVG Export Plug-In . SVG Version: 6.00 Build 0)  -->
<svg version="1.1" id="Layer_1" xmlns="http://www.w3.org/2000/svg" xmlns:xlink="http://www.w3.org/1999/xlink" x="0px" y="0px"
	 viewBox="0 0 20.6 20.6" style="enable-background:new 0 0 20.6 20.6;" xml:space="preserve">
<path d="M8.3,7.8c0,0.8-0.7,1.5-1.5,1.5S5.3,8.6,5.3,7.8S6,6.3,6.8,6.3S8.3,7,8.3,7.8z"/>
<path d="M4.3,3.3c-1.1,0-2,0.9-2,2v10c0,1.1,0.9,2,2,2h12c1.1,0,2-0.9,2-2v-10c0-1.1-0.9-2-2-2C16.3,3.3,4.3,3.3,4.3,3.3z M16.3,4.3
	c0.6,0,1,0.4,1,1v6.5l-3.8-1.9C13.3,9.8,13.1,9.8,13,10l-3.7,3.7l-2.7-1.8C6.4,11.8,6.1,11.8,6,12l-2.6,2.4v-9c0-0.6,0.4-1,1-1H16.3
	z"/>
</svg>
