<?xml version="1.0" encoding="utf-8"?>
<!-- Generator: Adobe Illustrator 24.1.2, SVG Export Plug-In . SVG Version: 6.00 Build 0)  -->
<svg version="1.1" id="Layer_1" xmlns="http://www.w3.org/2000/svg" xmlns:xlink="http://www.w3.org/1999/xlink" x="0px" y="0px"
	 viewBox="0 0 20.5 20.5" style="enable-background:new 0 0 20.5 20.5;" xml:space="preserve">
<path d="M2.3,3.4c0-0.6,0.5-1.1,1.2-1.1h13.6c0.6,0,1.2,0.5,1.2,1.1v13.7c0,0.6-0.5,1.1-1.2,1.1H3.4c-0.6,0-1.2-0.5-1.2-1.1V3.4z
	 M7.2,15.7V8.4H4.8v7.2H7.2z M6,7.4c0.8,0,1.4-0.6,1.4-1.2c0-0.7-0.5-1.2-1.3-1.2S4.7,5.5,4.7,6.2C4.7,6.9,5.2,7.4,6,7.4L6,7.4z
	 M10.9,15.7v-4c0-0.2,0-0.4,0.1-0.6c0.2-0.4,0.6-0.9,1.2-0.9c0.9,0,1.2,0.7,1.2,1.6v3.9h2.4v-4.1c0-2.2-1.2-3.3-2.8-3.3
	c-1.3,0-1.8,0.7-2.2,1.2v0h0c0,0,0,0,0,0v-1H8.5c0,0.7,0,7.2,0,7.2H10.9z"/>
</svg>
