<?xml version="1.0" encoding="utf-8"?>
<!-- Generator: Adobe Illustrator 24.1.2, SVG Export Plug-In . SVG Version: 6.00 Build 0)  -->
<svg version="1.1" id="Layer_1" xmlns="http://www.w3.org/2000/svg" xmlns:xlink="http://www.w3.org/1999/xlink" x="0px" y="0px"
	 viewBox="0 0 20.8 20.8" style="enable-background:new 0 0 20.8 20.8;" xml:space="preserve">
<path d="M2.5,6c0.2-0.9,1-1.6,2-1.6h12c0.9,0,1.7,0.6,2,1.6l-8,4.9L2.5,6z M2.4,7.1v7.1l5.8-3.6L2.4,7.1z M9.2,11.2l-6.6,4
	c0.3,0.7,1,1.1,1.8,1.1h12c0.8,0,1.5-0.4,1.8-1.1l-6.6-4L10.4,12L9.2,11.2L9.2,11.2z M12.6,10.7l5.8,3.6V7.1L12.6,10.7L12.6,10.7z"
	/>
</svg>
