<?xml version="1.0" encoding="utf-8"?>
<!-- Generator: Adobe Illustrator 24.1.2, SVG Export Plug-In . SVG Version: 6.00 Build 0)  -->
<svg version="1.1" id="Layer_1" xmlns="http://www.w3.org/2000/svg" xmlns:xlink="http://www.w3.org/1999/xlink" x="0px" y="0px"
	 viewBox="0 0 21.1 21.1" style="enable-background:new 0 0 21.1 21.1;" xml:space="preserve">
<path d="M2.6,4.6c0-1.1,0.9-2,2-2h12c1.1,0,2,0.9,2,2v8c0,1.1-0.9,2-2,2H7c-0.3,0-0.5,0.1-0.7,0.3l-2.9,2.9c-0.2,0.2-0.5,0.2-0.7,0
	c-0.1-0.1-0.1-0.2-0.1-0.4V4.6z M9.8,7.3C9.7,7.2,9.6,7.1,9.5,7.1C9.4,6.9,9.2,6.8,9.1,6.7l0,0C8.8,6.6,8.6,6.6,8.3,6.6
	c-1,0-1.7,0.7-1.7,1.7c0,0.9,0.8,1.7,1.7,1.7c0.3,0,0.7-0.1,0.9-0.3c-0.1,0.4-0.4,0.8-0.8,1.2c-0.2,0.2-0.2,0.4,0,0.6c0,0,0,0,0,0
	c0.2,0.2,0.4,0.2,0.6,0c1.3-1.3,1.4-2.8,0.9-3.7C9.9,7.6,9.8,7.5,9.8,7.3L9.8,7.3z M13.6,9.6c-0.1,0.4-0.4,0.8-0.8,1.2
	c-0.2,0.2-0.2,0.4,0,0.6c0,0,0,0,0,0c0.2,0.2,0.4,0.2,0.6,0c1.3-1.3,1.4-2.8,0.9-3.7c-0.1-0.1-0.1-0.3-0.2-0.4
	c-0.1-0.1-0.1-0.2-0.2-0.3c-0.1-0.1-0.3-0.2-0.5-0.3l0,0c-0.2-0.1-0.5-0.2-0.8-0.2c-1,0-1.7,0.7-1.7,1.7c0,0.9,0.8,1.7,1.7,1.7
	C13,9.9,13.3,9.8,13.6,9.6L13.6,9.6z"/>
</svg>
