<?xml version="1.0" encoding="utf-8"?>
<!-- Generator: Adobe Illustrator 24.1.2, SVG Export Plug-In . SVG Version: 6.00 Build 0)  -->
<svg version="1.1" id="Layer_1" xmlns="http://www.w3.org/2000/svg" xmlns:xlink="http://www.w3.org/1999/xlink" x="0px" y="0px"
	 viewBox="0 0 20.9 20.9" style="enable-background:new 0 0 20.9 20.9;" xml:space="preserve">
<path d="M6.5,3c0-0.3-0.2-0.5-0.5-0.5C5.7,2.5,5.5,2.7,5.5,3v0.5h-1c-1.1,0-2,0.9-2,2v1h16v-1c0-1.1-0.9-2-2-2h-1V3
	c0-0.3-0.2-0.5-0.5-0.5S14.5,2.7,14.5,3v0.5h-8V3z M18.5,9.5v-2h-16v5h5c0.6,0,1,0.4,1,1s-0.4,1-1,1h-5v2c0,1.1,0.9,2,2,2h12
	c1.1,0,2-0.9,2-2v-5h-6c-0.6,0-1-0.4-1-1s0.4-1,1-1H18.5z"/>
</svg>
