<?xml version="1.0" encoding="utf-8"?>
<!-- Generator: Adobe Illustrator 24.1.2, SVG Export Plug-In . SVG Version: 6.00 Build 0)  -->
<svg version="1.1" id="Layer_1" xmlns="http://www.w3.org/2000/svg" xmlns:xlink="http://www.w3.org/1999/xlink" x="0px" y="0px"
	 viewBox="0 0 20.3 20.3" style="enable-background:new 0 0 20.3 20.3;" xml:space="preserve">
<path d="M9.1,16.1c0,0-1,0-1-1s1-4,5-4s5,3,5,4s-1,1-1,1H9.1z M13.1,10.1c1.7,0,3-1.3,3-3s-1.3-3-3-3s-3,1.3-3,3
	S11.5,10.1,13.1,10.1z M7.4,16.1c-0.1-0.3-0.2-0.7-0.2-1c0-1.4,0.7-2.8,1.9-3.7c-0.6-0.2-1.3-0.3-1.9-0.3c-4,0-5,3-5,4s1,1,1,1H7.4z
	 M6.6,10.1C8,10.1,9.1,9,9.1,7.6S8,5.1,6.6,5.1S4.1,6.3,4.1,7.6S5.3,10.1,6.6,10.1z"/>
</svg>
