<?xml version="1.0" encoding="utf-8"?>
<!-- Generator: Adobe Illustrator 24.1.2, SVG Export Plug-In . SVG Version: 6.00 Build 0)  -->
<svg version="1.1" id="Layer_1" xmlns="http://www.w3.org/2000/svg" xmlns:xlink="http://www.w3.org/1999/xlink" x="0px" y="0px"
	 viewBox="0 0 20.4 20.4" style="enable-background:new 0 0 20.4 20.4;" xml:space="preserve">
<path d="M18,7.8l0-0.1l0-0.3l0-0.1c0-0.5-0.1-1-0.2-1.4c-0.2-0.7-0.7-1.2-1.4-1.4c-1.1-0.3-5.2-0.3-6.1-0.3h-0.3
	c-0.9,0-1.9,0-2.8,0.1H7.1L7,4.3H6.8l-0.2,0C5.5,4.4,4.5,4.4,4,4.6C3.3,4.8,2.8,5.3,2.6,6C2.5,6.4,2.4,6.9,2.4,7.4l0,0.1l0,0.3
	l0,0.1v0.1l0,0.1C2.3,8.8,2.3,9.5,2.3,9.7v0.1c0,0.7,0,1.4,0.1,2l0,0.1l0,0.1c0,0.6,0.1,1.1,0.2,1.5C2.8,14.3,3.3,14.9,4,15
	c0.5,0.1,1.5,0.2,2.6,0.3h0.2l0.2,0h0.1l0.2,0c1.3,0,2.6,0.1,2.9,0.1h0.1c0.6,0,5,0,6.1-0.3c0.7-0.2,1.2-0.7,1.4-1.4
	c0.1-0.4,0.2-1,0.2-1.5l0-0.1l0-0.1c0.1-0.9,0.1-1.8,0.1-2V9.8C18.1,9.6,18.1,8.7,18,7.8z M8.6,12.2V7.4l4.1,2.4L8.6,12.2z"/>
</svg>
